<svg width="391" height="135" viewBox="0 0 391 135" fill="none" xmlns="http://www.w3.org/2000/svg">
<path fill-rule="evenodd" clip-rule="evenodd" d="M322.035 0H0.125V135H321.148H322.035H390.767L322.035 98.1518V0Z" fill="white"/>
<path d="M20.4071 40.3845V28.2625H30.102V40.3845H27.511V30.4017H22.9981V40.3845H20.4071Z" fill="black"/>
<path d="M38.2032 30.945C39.2556 30.945 40.1078 31.3524 40.7599 32.1673C41.4119 32.9709 41.738 34.1594 41.738 35.7326C41.738 37.3059 41.4005 38.5056 40.7256 39.3319C40.0506 40.1468 39.187 40.5543 38.1345 40.5543C37.4596 40.5543 36.9219 40.4354 36.5216 40.1977C36.1212 39.9487 35.7952 39.6714 35.5435 39.3658H35.4062C35.4977 39.8412 35.5435 40.2939 35.5435 40.724V44.4591H32.9868V31.1147H35.063L35.4234 32.3201H35.5435C35.7952 31.9466 36.1326 31.6241 36.5559 31.3524C36.9791 31.0808 37.5282 30.945 38.2032 30.945ZM37.3795 32.9653C36.716 32.9653 36.247 33.169 35.9725 33.5765C35.7094 33.9839 35.5664 34.6065 35.5435 35.444V35.7157C35.5435 36.6098 35.675 37.3002 35.9381 37.7869C36.2127 38.2623 36.7046 38.5 37.4138 38.5C37.9973 38.5 38.4262 38.2623 38.7008 37.7869C38.9868 37.3002 39.1298 36.6041 39.1298 35.6987C39.1298 33.8764 38.5463 32.9653 37.3795 32.9653Z" fill="black"/>
<path d="M46.3162 34.7819C46.3162 34.9743 46.3048 35.212 46.2819 35.4949C46.2705 35.7779 46.2533 36.0665 46.2305 36.3608C46.219 36.6551 46.2019 36.9154 46.179 37.1418C46.1561 37.3681 46.1389 37.5266 46.1275 37.6171L50.4516 31.1147H53.5231V40.3845H51.0522V36.6834C51.0522 36.3778 51.0636 36.0439 51.0865 35.6817C51.1094 35.3082 51.1323 34.963 51.1551 34.6461C51.1895 34.3178 51.2123 34.0688 51.2238 33.8991L46.9168 40.3845H43.8453V31.1147H46.3162V34.7819Z" fill="black"/>
<path d="M64.5003 33.5425C64.5003 34.0405 64.3402 34.465 64.0199 34.8158C63.711 35.1667 63.2477 35.3931 62.63 35.4949V35.5629C63.282 35.6421 63.8025 35.8628 64.1915 36.225C64.5918 36.5872 64.792 37.0512 64.792 37.6171C64.792 38.1491 64.649 38.6245 64.363 39.0433C64.0885 39.462 63.6481 39.7903 63.0418 40.028C62.4355 40.2656 61.6405 40.3845 60.6567 40.3845H56.1953V31.1147H60.6567C61.3888 31.1147 62.0408 31.194 62.6128 31.3524C63.1962 31.4996 63.6538 31.7486 63.9855 32.0994C64.3287 32.4503 64.5003 32.9313 64.5003 33.5425ZM61.9093 33.7463C61.9093 33.1803 61.4574 32.8974 60.5537 32.8974H58.752V34.731H60.262C60.7997 34.731 61.2058 34.6574 61.4803 34.5102C61.7663 34.3518 61.9093 34.0971 61.9093 33.7463ZM62.1495 37.4813C62.1495 37.1191 62.0065 36.8588 61.7205 36.7004C61.4345 36.5306 61.0056 36.4457 60.4336 36.4457H58.752V38.6358H60.4851C60.9655 38.6358 61.3602 38.5509 61.6691 38.3811C61.9894 38.2 62.1495 37.9001 62.1495 37.4813Z" fill="black"/>
<path d="M70.8476 30.945C72.1403 30.945 73.1641 31.3128 73.9191 32.0485C74.6741 32.7729 75.0516 33.8085 75.0516 35.1554V36.3778H69.0116C69.0345 37.0908 69.2461 37.6511 69.6465 38.0586C70.0583 38.466 70.6245 38.6698 71.3452 38.6698C71.9515 38.6698 72.5006 38.6132 72.9925 38.5C73.4844 38.3755 73.9935 38.1887 74.5197 37.9397V39.8921C74.0621 40.1185 73.5759 40.2826 73.0612 40.3845C72.5578 40.4977 71.9458 40.5543 71.2251 40.5543C70.2871 40.5543 69.4577 40.3845 68.737 40.0449C68.0164 39.6941 67.4501 39.1678 67.0383 38.466C66.6265 37.7643 66.4205 36.8814 66.4205 35.8175C66.4205 34.731 66.6036 33.8311 66.9696 33.1181C67.3471 32.3937 67.8676 31.8504 68.5311 31.4882C69.1946 31.126 69.9668 30.945 70.8476 30.945ZM70.8648 32.7446C70.3729 32.7446 69.9611 32.903 69.6293 33.2199C69.309 33.5369 69.1203 34.0292 69.0631 34.697H72.6493C72.6379 34.1311 72.4892 33.667 72.2032 33.3048C71.9172 32.9313 71.4711 32.7446 70.8648 32.7446Z" fill="black"/>
<path d="M84.8808 33.0162H81.8093V40.3845H79.2525V33.0162H76.181V31.1147H84.8808V33.0162Z" fill="black"/>
<path d="M86.5109 27.8834H88.8234V36.795H86.5109V27.8834ZM87.6671 37.7815C88.0637 37.7815 88.4016 37.9196 88.6809 38.196C88.9658 38.4723 89.1082 38.8067 89.1082 39.199C89.1082 39.5859 88.9658 39.9203 88.6809 40.2021C88.4016 40.4784 88.0637 40.6166 87.6671 40.6166C87.2705 40.6166 86.9326 40.4784 86.6533 40.2021C86.374 39.9258 86.2344 39.5914 86.2344 39.199C86.2344 38.8067 86.374 38.4723 86.6533 38.196C86.9326 37.9196 87.2705 37.7815 87.6671 37.7815Z" fill="black"/>
<path d="M100.552 35.7326L97.6864 40.3845H94.8036L98.2869 35.0535C97.9552 34.9177 97.6234 34.7196 97.2917 34.4593C96.96 34.1877 96.6854 33.8311 96.4681 33.3897C96.2507 32.937 96.142 32.3824 96.142 31.7259C96.142 30.6054 96.5481 29.7509 97.3603 29.1623C98.1725 28.5624 99.3108 28.2625 100.775 28.2625H104.756V40.3845H102.165V35.7326H100.552ZM100.878 30.3677C100.214 30.3677 99.694 30.4866 99.3165 30.7242C98.9504 30.9619 98.7674 31.3581 98.7674 31.9127C98.7674 32.4446 98.9447 32.8691 99.2993 33.186C99.6654 33.4916 100.214 33.6444 100.947 33.6444H102.165V30.3677H100.878Z" fill="black"/>
<path d="M120.205 33.0162H117.133V40.3845H114.576V33.0162H111.505V31.1147H120.205V33.0162Z" fill="black"/>
<path d="M130.238 33.5425C130.238 34.0405 130.078 34.465 129.758 34.8158C129.449 35.1667 128.986 35.3931 128.368 35.4949V35.5629C129.02 35.6421 129.54 35.8628 129.929 36.225C130.33 36.5872 130.53 37.0512 130.53 37.6171C130.53 38.1491 130.387 38.6245 130.101 39.0433C129.826 39.462 129.386 39.7903 128.78 40.028C128.173 40.2656 127.378 40.3845 126.395 40.3845H121.933V31.1147H126.395C127.127 31.1147 127.779 31.194 128.351 31.3524C128.934 31.4996 129.392 31.7486 129.723 32.0994C130.067 32.4503 130.238 32.9313 130.238 33.5425ZM127.647 33.7463C127.647 33.1803 127.195 32.8974 126.292 32.8974H124.49V34.731H126C126.538 34.731 126.944 34.6574 127.218 34.5102C127.504 34.3518 127.647 34.0971 127.647 33.7463ZM127.887 37.4813C127.887 37.1191 127.744 36.8588 127.458 36.7004C127.172 36.5306 126.743 36.4457 126.171 36.4457H124.49V38.6358H126.223C126.703 38.6358 127.098 38.5509 127.407 38.3811C127.727 38.2 127.887 37.9001 127.887 37.4813Z" fill="black"/>
<path d="M141.236 35.7326C141.236 37.2719 140.824 38.4604 140 39.2979C139.188 40.1355 138.078 40.5543 136.671 40.5543C135.802 40.5543 135.024 40.3675 134.338 39.994C133.663 39.6205 133.131 39.0772 132.742 38.3642C132.353 37.6398 132.158 36.7626 132.158 35.7326C132.158 34.1933 132.565 33.0106 133.377 32.1843C134.189 31.3581 135.304 30.945 136.723 30.945C137.604 30.945 138.381 31.1317 139.056 31.5052C139.731 31.8787 140.263 32.422 140.652 33.1351C141.041 33.8368 141.236 34.7027 141.236 35.7326ZM134.767 35.7326C134.767 36.6494 134.915 37.3455 135.213 37.8209C135.522 38.2849 136.019 38.517 136.706 38.517C137.381 38.517 137.867 38.2849 138.164 37.8209C138.473 37.3455 138.627 36.6494 138.627 35.7326C138.627 34.8158 138.473 34.1311 138.164 33.6783C137.867 33.2143 137.375 32.9823 136.688 32.9823C136.014 32.9823 135.522 33.2143 135.213 33.6783C134.915 34.1311 134.767 34.8158 134.767 35.7326Z" fill="black"/>
<path d="M152.323 27.125C152.266 27.7136 152.1 28.2342 151.825 28.6869C151.551 29.1284 151.122 29.4736 150.538 29.7226C149.955 29.9716 149.171 30.0961 148.188 30.0961C147.181 30.0961 146.392 29.9772 145.82 29.7395C145.259 29.4905 144.859 29.1453 144.618 28.7039C144.378 28.2625 144.235 27.7362 144.189 27.125H146.472C146.529 27.7475 146.689 28.1606 146.952 28.3644C147.215 28.5681 147.644 28.67 148.239 28.67C148.731 28.67 149.131 28.5624 149.44 28.3474C149.76 28.121 149.949 27.7136 150.006 27.125H152.323ZM145.82 34.7819C145.82 34.9743 145.808 35.212 145.785 35.4949C145.774 35.7779 145.757 36.0665 145.734 36.3608C145.722 36.6551 145.705 36.9154 145.682 37.1418C145.659 37.3681 145.642 37.5266 145.631 37.6171L149.955 31.1147H153.026V40.3845H150.555V36.6834C150.555 36.3778 150.567 36.0439 150.59 35.6817C150.613 35.3082 150.636 34.963 150.658 34.6461C150.693 34.3178 150.716 34.0688 150.727 33.8991L146.42 40.3845H143.349V31.1147H145.82V34.7819Z" fill="black"/>
<path d="M163.065 31.1147V34.68H166.634V31.1147H169.19V40.3845H166.634V36.5645H163.065V40.3845H160.508V31.1147H163.065Z" fill="black"/>
<path d="M180.38 35.7326C180.38 37.2719 179.968 38.4604 179.145 39.2979C178.332 40.1355 177.223 40.5543 175.816 40.5543C174.946 40.5543 174.168 40.3675 173.482 39.994C172.807 39.6205 172.275 39.0772 171.886 38.3642C171.497 37.6398 171.303 36.7626 171.303 35.7326C171.303 34.1933 171.709 33.0106 172.521 32.1843C173.333 31.3581 174.449 30.945 175.867 30.945C176.748 30.945 177.526 31.1317 178.201 31.5052C178.876 31.8787 179.408 32.422 179.797 33.1351C180.186 33.8368 180.38 34.7027 180.38 35.7326ZM173.911 35.7326C173.911 36.6494 174.06 37.3455 174.357 37.8209C174.666 38.2849 175.164 38.517 175.85 38.517C176.525 38.517 177.011 38.2849 177.309 37.8209C177.617 37.3455 177.772 36.6494 177.772 35.7326C177.772 34.8158 177.617 34.1311 177.309 33.6783C177.011 33.2143 176.519 32.9823 175.833 32.9823C175.158 32.9823 174.666 33.2143 174.357 33.6783C174.06 34.1311 173.911 34.8158 173.911 35.7326Z" fill="black"/>
<path d="M190.798 33.5425C190.798 34.0405 190.638 34.465 190.318 34.8158C190.009 35.1667 189.545 35.3931 188.928 35.4949V35.5629C189.58 35.6421 190.1 35.8628 190.489 36.225C190.89 36.5872 191.09 37.0512 191.09 37.6171C191.09 38.1491 190.947 38.6245 190.661 39.0433C190.386 39.462 189.946 39.7903 189.34 40.028C188.733 40.2656 187.938 40.3845 186.954 40.3845H182.493V31.1147H186.954C187.687 31.1147 188.339 31.194 188.911 31.3524C189.494 31.4996 189.952 31.7486 190.283 32.0994C190.627 32.4503 190.798 32.9313 190.798 33.5425ZM188.207 33.7463C188.207 33.1803 187.755 32.8974 186.851 32.8974H185.05V34.731H186.56C187.097 34.731 187.504 34.6574 187.778 34.5102C188.064 34.3518 188.207 34.0971 188.207 33.7463ZM188.447 37.4813C188.447 37.1191 188.304 36.8588 188.018 36.7004C187.732 36.5306 187.303 36.4457 186.731 36.4457H185.05V38.6358H186.783C187.263 38.6358 187.658 38.5509 187.967 38.3811C188.287 38.2 188.447 37.9001 188.447 37.4813Z" fill="black"/>
<path d="M193.285 40.3845V31.1147H195.841V34.697H197.077C198.507 34.697 199.565 34.9234 200.251 35.3761C200.938 35.8288 201.281 36.5136 201.281 37.4304C201.281 38.3245 200.96 39.0433 200.32 39.5865C199.679 40.1185 198.627 40.3845 197.163 40.3845H193.285ZM202.636 40.3845V31.1147H205.193V40.3845H202.636ZM197.025 38.6358C197.529 38.6358 197.935 38.5452 198.244 38.3642C198.564 38.1831 198.724 37.8831 198.724 37.4643C198.724 36.7852 198.146 36.4457 196.991 36.4457H195.841V38.6358H197.025Z" fill="black"/>
<path d="M216.837 27.125C216.78 27.7136 216.614 28.2342 216.34 28.6869C216.065 29.1284 215.636 29.4736 215.053 29.7226C214.47 29.9716 213.686 30.0961 212.702 30.0961C211.695 30.0961 210.906 29.9772 210.334 29.7395C209.774 29.4905 209.373 29.1453 209.133 28.7039C208.893 28.2625 208.75 27.7362 208.704 27.125H210.986C211.043 27.7475 211.204 28.1606 211.467 28.3644C211.73 28.5681 212.159 28.67 212.754 28.67C213.245 28.67 213.646 28.5624 213.955 28.3474C214.275 28.121 214.464 27.7136 214.521 27.125H216.837ZM210.334 34.7819C210.334 34.9743 210.323 35.212 210.3 35.4949C210.288 35.7779 210.271 36.0665 210.248 36.3608C210.237 36.6551 210.22 36.9154 210.197 37.1418C210.174 37.3681 210.157 37.5266 210.145 37.6171L214.47 31.1147H217.541V40.3845H215.07V36.6834C215.07 36.3778 215.082 36.0439 215.104 35.6817C215.127 35.3082 215.15 34.963 215.173 34.6461C215.207 34.3178 215.23 34.0688 215.242 33.8991L210.935 40.3845H207.863V31.1147H210.334V34.7819Z" fill="black"/>
<path d="M233.448 31.1147V38.5339H234.82V43.7121H232.521V40.3845H226.224V43.7121H223.924V38.5339H224.714C225.125 37.9114 225.474 37.204 225.76 36.4117C226.046 35.6081 226.275 34.7536 226.447 33.8481C226.618 32.9426 226.744 32.0315 226.824 31.1147H233.448ZM228.969 33.0162C228.832 34.0462 228.643 35.0252 228.403 35.9533C228.163 36.8701 227.825 37.7303 227.39 38.5339H230.891V33.0162H228.969Z" fill="black"/>
<path d="M241.634 30.945C242.686 30.945 243.538 31.3524 244.19 32.1673C244.842 32.9709 245.168 34.1594 245.168 35.7326C245.168 37.3059 244.831 38.5056 244.156 39.3319C243.481 40.1468 242.617 40.5543 241.565 40.5543C240.89 40.5543 240.352 40.4354 239.952 40.1977C239.552 39.9487 239.226 39.6714 238.974 39.3658H238.837C238.928 39.8412 238.974 40.2939 238.974 40.724V44.4591H236.417V31.1147H238.493L238.854 32.3201H238.974C239.226 31.9466 239.563 31.6241 239.986 31.3524C240.41 31.0808 240.959 30.945 241.634 30.945ZM240.81 32.9653C240.146 32.9653 239.677 33.169 239.403 33.5765C239.14 33.9839 238.997 34.6065 238.974 35.444V35.7157C238.974 36.6098 239.105 37.3002 239.369 37.7869C239.643 38.2623 240.135 38.5 240.844 38.5C241.428 38.5 241.857 38.2623 242.131 37.7869C242.417 37.3002 242.56 36.6041 242.56 35.6987C242.56 33.8764 241.977 32.9653 240.81 32.9653Z" fill="black"/>
<path d="M245.77 31.1147H248.567L250.334 36.3268C250.426 36.5758 250.494 36.8362 250.54 37.1078C250.586 37.3681 250.62 37.6454 250.643 37.9397H250.694C250.729 37.6454 250.775 37.3681 250.832 37.1078C250.9 36.8362 250.975 36.5758 251.055 36.3268L252.788 31.1147H255.533L251.57 41.5729C251.215 42.535 250.694 43.2537 250.008 43.7291C249.333 44.2158 248.55 44.4591 247.657 44.4591C247.371 44.4591 247.12 44.4421 246.902 44.4082C246.696 44.3855 246.513 44.3572 246.353 44.3233V42.3199C246.479 42.3426 246.628 42.3652 246.799 42.3878C246.982 42.4105 247.171 42.4218 247.366 42.4218C247.903 42.4218 248.326 42.2577 248.635 41.9294C248.956 41.6125 249.19 41.2277 249.339 40.775L249.493 40.3166L245.77 31.1147Z" fill="black"/>
<path d="M263.347 31.1147V33.0162H259.434V40.3845H256.878V31.1147H263.347Z" fill="black"/>
<path d="M266.138 38.0219C266.501 38.0219 266.811 38.149 267.068 38.4032C267.325 38.6519 267.453 38.9559 267.453 39.3151C267.453 39.6743 267.325 39.981 267.068 40.2353C266.811 40.4895 266.501 40.6166 266.138 40.6166C265.775 40.6166 265.465 40.4895 265.208 40.2353C264.951 39.981 264.823 39.6743 264.823 39.3151C264.823 38.9559 264.951 38.6519 265.208 38.4032C265.465 38.149 265.775 38.0219 266.138 38.0219Z" fill="black"/>
<path d="M30.102 61.6065H27.511V51.6236H24.5081C24.4395 52.1443 24.3651 52.7102 24.285 53.3214C24.2164 53.9326 24.1363 54.5551 24.0448 55.1889C23.9647 55.8114 23.8789 56.4057 23.7874 56.9716C23.6959 57.5262 23.6044 58.0185 23.5129 58.4486C23.3642 59.1504 23.164 59.7502 22.9123 60.2482C22.6721 60.7463 22.3346 61.1254 21.8999 61.3857C21.4766 61.6461 20.9218 61.7762 20.2355 61.7762C19.7893 61.7762 19.3775 61.714 19 61.5895V59.4843C19.1487 59.5295 19.2917 59.5691 19.429 59.6031C19.5777 59.6371 19.7378 59.654 19.9094 59.654C20.2412 59.654 20.4929 59.4843 20.6644 59.1447C20.8475 58.7938 21.0305 58.143 21.2135 57.1923C21.2822 56.8301 21.3794 56.2642 21.5052 55.4945C21.6311 54.7249 21.7684 53.8251 21.9171 52.7951C22.0772 51.7538 22.2259 50.6503 22.3632 49.4845H30.102V61.6065Z" fill="black"/>
<path d="M35.4577 56.0039C35.4577 56.1963 35.4463 56.434 35.4234 56.7169C35.4119 56.9999 35.3948 57.2885 35.3719 57.5828C35.3605 57.877 35.3433 58.1374 35.3204 58.3637C35.2975 58.5901 35.2804 58.7486 35.2689 58.8391L39.5931 52.3367H42.6646V61.6065H40.1936V57.9053C40.1936 57.5997 40.2051 57.2659 40.2279 56.9037C40.2508 56.5302 40.2737 56.1849 40.2966 55.868C40.3309 55.5398 40.3538 55.2908 40.3652 55.121L36.0583 61.6065H32.9868V52.3367H35.4577V56.0039Z" fill="black"/>
<path d="M49.146 61.7762C47.7504 61.7762 46.6694 61.3971 45.903 60.6387C45.148 59.8691 44.7704 58.6637 44.7704 57.0225C44.7704 55.8907 44.9649 54.9682 45.3539 54.2552C45.7428 53.5421 46.2805 53.0158 46.9668 52.6762C47.6646 52.3367 48.4654 52.1669 49.3691 52.1669C50.0097 52.1669 50.5645 52.2292 51.0336 52.3537C51.514 52.4782 51.9316 52.6253 52.2862 52.7951L51.5312 54.7475C51.1308 54.5891 50.7533 54.4589 50.3987 54.357C50.0555 54.2552 49.7123 54.2042 49.3691 54.2042C48.0421 54.2042 47.3786 55.138 47.3786 57.0055C47.3786 57.9336 47.5502 58.6184 47.8934 59.0598C48.248 59.5012 48.7399 59.7219 49.3691 59.7219C49.9068 59.7219 50.3815 59.654 50.7933 59.5182C51.2051 59.3711 51.6055 59.173 51.9945 58.924V61.0801C51.6055 61.3292 51.1937 61.5046 50.759 61.6065C50.3358 61.7196 49.7981 61.7762 49.146 61.7762Z" fill="black"/>
<path d="M61.9069 54.2382H58.8354V61.6065H56.2786V54.2382H53.2071V52.3367H61.9069V54.2382Z" fill="black"/>
<path d="M67.4791 52.1499C68.7374 52.1499 69.6983 52.4216 70.3618 52.9649C71.0367 53.4968 71.3742 54.3174 71.3742 55.4266V61.6065H69.5896L69.092 60.3501H69.0234C68.623 60.8481 68.1997 61.2103 67.7536 61.4367C67.3075 61.663 66.6954 61.7762 65.9176 61.7762C65.0825 61.7762 64.3904 61.5385 63.8413 61.0632C63.2922 60.5765 63.0177 59.8351 63.0177 58.8391C63.0177 57.8544 63.3666 57.13 64.0644 56.666C64.7622 56.1906 65.8089 55.9303 67.2045 55.885L68.8346 55.8341V55.4266C68.8346 54.9399 68.7031 54.5834 68.44 54.357C68.1883 54.1307 67.8337 54.0175 67.3761 54.0175C66.9185 54.0175 66.4724 54.0854 66.0377 54.2212C65.603 54.3457 65.1683 54.5042 64.7336 54.6966L63.8928 52.9818C64.3961 52.7215 64.9509 52.5178 65.5572 52.3707C66.175 52.2235 66.8156 52.1499 67.4791 52.1499ZM67.8394 57.3451C67.0158 57.3677 66.4438 57.5149 66.1235 57.7865C65.8032 58.0581 65.643 58.4147 65.643 58.8561C65.643 59.2409 65.7574 59.5182 65.9862 59.688C66.215 59.8464 66.5124 59.9257 66.8785 59.9257C67.4276 59.9257 67.8909 59.7672 68.2684 59.4503C68.6459 59.1221 68.8346 58.6637 68.8346 58.0751V57.3111L67.8394 57.3451Z" fill="black"/>
<path d="M82.9655 48.347C82.9083 48.9355 82.7424 49.4562 82.4679 49.9089C82.1933 50.3503 81.7644 50.6955 81.1809 50.9445C80.5975 51.1935 79.8139 51.318 78.8301 51.318C77.8235 51.318 77.0341 51.1992 76.4622 50.9615C75.9016 50.7125 75.5012 50.3673 75.261 49.9259C75.0208 49.4845 74.8778 48.9582 74.832 48.347H77.1142C77.1714 48.9695 77.3316 49.3826 77.5947 49.5863C77.8578 49.7901 78.2868 49.8919 78.8816 49.8919C79.3735 49.8919 79.7739 49.7844 80.0828 49.5693C80.4031 49.343 80.5918 48.9355 80.649 48.347H82.9655ZM76.4622 56.0039C76.4622 56.1963 76.4507 56.434 76.4278 56.7169C76.4164 56.9999 76.3992 57.2885 76.3764 57.5828C76.3649 57.877 76.3478 58.1374 76.3249 58.3637C76.302 58.5901 76.2849 58.7486 76.2734 58.8391L80.5975 52.3367H83.669V61.6065H81.1981V57.9053C81.1981 57.5997 81.2095 57.2659 81.2324 56.9037C81.2553 56.5302 81.2782 56.1849 81.3011 55.868C81.3354 55.5398 81.3583 55.2908 81.3697 55.121L77.0627 61.6065H73.9912V52.3367H76.4622V56.0039Z" fill="black"/>
<path d="M99.4555 54.7645C99.4555 55.2625 99.2953 55.6869 98.975 56.0378C98.6662 56.3887 98.2029 56.615 97.5851 56.7169V56.7848C98.2372 56.864 98.7577 57.0848 99.1466 57.4469C99.547 57.8091 99.7472 58.2732 99.7472 58.8391C99.7472 59.3711 99.6042 59.8464 99.3182 60.2652C99.0437 60.684 98.6033 61.0122 97.997 61.2499C97.3907 61.4876 96.5956 61.6065 95.6118 61.6065H91.1504V52.3367H95.6118C96.344 52.3367 96.996 52.4159 97.568 52.5744C98.1514 52.7215 98.609 52.9705 98.9407 53.3214C99.2839 53.6723 99.4555 54.1533 99.4555 54.7645ZM96.8645 54.9682C96.8645 54.4023 96.4126 54.1193 95.5089 54.1193H93.7072V55.9529H95.2172C95.7548 55.9529 96.1609 55.8794 96.4355 55.7322C96.7215 55.5738 96.8645 55.3191 96.8645 54.9682ZM97.1047 58.7033C97.1047 58.3411 96.9617 58.0808 96.6757 57.9223C96.3897 57.7525 95.9607 57.6677 95.3888 57.6677H93.7072V59.8578H95.4402C95.9207 59.8578 96.3154 59.7729 96.6242 59.6031C96.9445 59.422 97.1047 59.1221 97.1047 58.7033Z" fill="black"/>
<path d="M104.499 52.3367V55.902H108.068V52.3367H110.625V61.6065H108.068V57.7865H104.499V61.6065H101.942V52.3367H104.499Z" fill="black"/>
<path d="M115.774 56.0039C115.774 56.1963 115.763 56.434 115.74 56.7169C115.728 56.9999 115.711 57.2885 115.688 57.5828C115.677 57.877 115.66 58.1374 115.637 58.3637C115.614 58.5901 115.597 58.7486 115.585 58.8391L119.91 52.3367H122.981V61.6065H120.51V57.9053C120.51 57.5997 120.522 57.2659 120.544 56.9037C120.567 56.5302 120.59 56.1849 120.613 55.868C120.647 55.5398 120.67 55.2908 120.682 55.121L116.375 61.6065H113.303V52.3367H115.774V56.0039Z" fill="black"/>
<path d="M129.068 52.1669C129.743 52.1669 130.372 52.2575 130.955 52.4386C131.55 52.6083 132.025 52.8743 132.38 53.2365C132.746 53.5987 132.929 54.0627 132.929 54.6287C132.929 55.1833 132.757 55.6247 132.414 55.9529C132.082 56.2812 131.63 56.5188 131.058 56.666V56.7509C131.459 56.8414 131.819 56.9716 132.139 57.1414C132.46 57.2998 132.711 57.5205 132.894 57.8035C133.089 58.0751 133.186 58.443 133.186 58.907C133.186 59.4163 133.02 59.8917 132.688 60.3331C132.368 60.7632 131.865 61.1141 131.178 61.3857C130.504 61.6461 129.634 61.7762 128.57 61.7762C127.014 61.7762 125.813 61.5838 124.967 61.199V59.1107C125.356 59.2918 125.83 59.456 126.391 59.6031C126.963 59.7502 127.569 59.8238 128.21 59.8238C128.908 59.8238 129.497 59.7446 129.977 59.5861C130.458 59.4277 130.698 59.1504 130.698 58.7542C130.698 58.0185 129.811 57.6507 128.038 57.6507H127.043V55.902H127.987C128.833 55.902 129.485 55.8341 129.943 55.6983C130.412 55.5624 130.647 55.3078 130.647 54.9343C130.647 54.64 130.498 54.4193 130.2 54.2721C129.903 54.1137 129.417 54.0345 128.742 54.0345C128.296 54.0345 127.81 54.0854 127.283 54.1873C126.757 54.2891 126.259 54.4363 125.79 54.6287L125.035 52.863C125.573 52.6593 126.162 52.4952 126.803 52.3707C127.443 52.2348 128.198 52.1669 129.068 52.1669Z" fill="black"/>
<path d="M142.451 56.0039C142.451 56.1963 142.44 56.434 142.417 56.7169C142.406 56.9999 142.388 57.2885 142.366 57.5828C142.354 57.877 142.337 58.1374 142.314 58.3637C142.291 58.5901 142.274 58.7486 142.263 58.8391L146.587 52.3367H149.658V61.6065H147.187V57.9053C147.187 57.5997 147.199 57.2659 147.222 56.9037C147.245 56.5302 147.267 56.1849 147.29 55.868C147.325 55.5398 147.347 55.2908 147.359 55.121L143.052 61.6065H139.98V52.3367H142.451V56.0039Z" fill="black"/>
<path d="M159.696 52.3367V55.902H163.265V52.3367H165.822V61.6065H163.265V57.7865H159.696V61.6065H157.14V52.3367H159.696Z" fill="black"/>
<path d="M172.345 52.1499C173.603 52.1499 174.564 52.4216 175.227 52.9649C175.902 53.4968 176.24 54.3174 176.24 55.4266V61.6065H174.455L173.958 60.3501H173.889C173.489 60.8481 173.065 61.2103 172.619 61.4367C172.173 61.663 171.561 61.7762 170.783 61.7762C169.948 61.7762 169.256 61.5385 168.707 61.0632C168.158 60.5765 167.883 59.8351 167.883 58.8391C167.883 57.8544 168.232 57.13 168.93 56.666C169.628 56.1906 170.674 55.9303 172.07 55.885L173.7 55.8341V55.4266C173.7 54.9399 173.569 54.5834 173.306 54.357C173.054 54.1307 172.699 54.0175 172.242 54.0175C171.784 54.0175 171.338 54.0854 170.903 54.2212C170.469 54.3457 170.034 54.5042 169.599 54.6966L168.758 52.9818C169.262 52.7215 169.816 52.5178 170.423 52.3707C171.04 52.2235 171.681 52.1499 172.345 52.1499ZM172.705 57.3451C171.881 57.3677 171.309 57.5149 170.989 57.7865C170.669 58.0581 170.509 58.4147 170.509 58.8561C170.509 59.2409 170.623 59.5182 170.852 59.688C171.081 59.8464 171.378 59.9257 171.744 59.9257C172.293 59.9257 172.756 59.7672 173.134 59.4503C173.511 59.1221 173.7 58.6637 173.7 58.0751V57.3111L172.705 57.3451Z" fill="black"/>
<path d="M192.172 52.3367L188.723 56.7848L192.498 61.6065H189.77L186.201 56.9037V61.6065H183.816V56.9037L180.247 61.6065H177.518L181.293 56.7848L177.844 52.3367H180.487L183.816 56.8358V52.3367H186.201V56.8358L189.53 52.3367H192.172Z" fill="black"/>
<path d="M196.308 56.0039C196.308 56.1963 196.297 56.434 196.274 56.7169C196.263 56.9999 196.246 57.2885 196.223 57.5828C196.211 57.877 196.194 58.1374 196.171 58.3637C196.148 58.5901 196.131 58.7486 196.12 58.8391L200.444 52.3367H203.515V61.6065H201.044V57.9053C201.044 57.5997 201.056 57.2659 201.079 56.9037C201.102 56.5302 201.125 56.1849 201.147 55.868C201.182 55.5398 201.205 55.2908 201.216 55.121L196.909 61.6065H193.838V52.3367H196.308V56.0039Z" fill="black"/>
<path d="M217.993 52.3367V61.6065H215.608V57.0565C215.608 56.6037 215.614 56.1623 215.625 55.7322C215.648 55.3021 215.677 54.906 215.711 54.5438H215.659L213.068 61.6065H211.147L208.521 54.5268H208.453C208.498 54.9003 208.527 55.3021 208.538 55.7322C208.561 56.151 208.573 56.615 208.573 57.1244V61.6065H206.187V52.3367H209.808L212.142 58.6184L214.51 52.3367H217.993Z" fill="black"/>
<path d="M224.509 52.1499C225.768 52.1499 226.729 52.4216 227.392 52.9649C228.067 53.4968 228.404 54.3174 228.404 55.4266V61.6065H226.62L226.122 60.3501H226.054C225.653 60.8481 225.23 61.2103 224.784 61.4367C224.338 61.663 223.726 61.7762 222.948 61.7762C222.113 61.7762 221.421 61.5385 220.871 61.0632C220.322 60.5765 220.048 59.8351 220.048 58.8391C220.048 57.8544 220.397 57.13 221.095 56.666C221.792 56.1906 222.839 55.9303 224.235 55.885L225.865 55.8341V55.4266C225.865 54.9399 225.733 54.5834 225.47 54.357C225.218 54.1307 224.864 54.0175 224.406 54.0175C223.949 54.0175 223.503 54.0854 223.068 54.2212C222.633 54.3457 222.198 54.5042 221.764 54.6966L220.923 52.9818C221.426 52.7215 221.981 52.5178 222.587 52.3707C223.205 52.2235 223.846 52.1499 224.509 52.1499ZM224.87 57.3451C224.046 57.3677 223.474 57.5149 223.154 57.7865C222.833 58.0581 222.673 58.4147 222.673 58.8561C222.673 59.2409 222.788 59.5182 223.016 59.688C223.245 59.8464 223.543 59.9257 223.909 59.9257C224.458 59.9257 224.921 59.7672 225.299 59.4503C225.676 59.1221 225.865 58.6637 225.865 58.0751V57.3111L224.87 57.3451Z" fill="black"/>
<path d="M239.996 48.347C239.938 48.9355 239.773 49.4562 239.498 49.9089C239.224 50.3503 238.795 50.6955 238.211 50.9445C237.628 51.1935 236.844 51.318 235.86 51.318C234.854 51.318 234.064 51.1992 233.492 50.9615C232.932 50.7125 232.531 50.3673 232.291 49.9259C232.051 49.4845 231.908 48.9582 231.862 48.347H234.144C234.202 48.9695 234.362 49.3826 234.625 49.5863C234.888 49.7901 235.317 49.8919 235.912 49.8919C236.404 49.8919 236.804 49.7844 237.113 49.5693C237.433 49.343 237.622 48.9355 237.679 48.347H239.996ZM233.492 56.0039C233.492 56.1963 233.481 56.434 233.458 56.7169C233.447 56.9999 233.429 57.2885 233.407 57.5828C233.395 57.877 233.378 58.1374 233.355 58.3637C233.332 58.5901 233.315 58.7486 233.304 58.8391L237.628 52.3367H240.699V61.6065H238.228V57.9053C238.228 57.5997 238.24 57.2659 238.263 56.9037C238.285 56.5302 238.308 56.1849 238.331 55.868C238.366 55.5398 238.388 55.2908 238.4 55.121L234.093 61.6065H231.021V52.3367H233.492V56.0039Z" fill="black"/>
<path d="M250.737 52.3367V55.902H254.306V52.3367H256.863V61.6065H254.306V57.7865H250.737V61.6065H248.181V52.3367H250.737Z" fill="black"/>
<path d="M263.386 52.1499C264.644 52.1499 265.605 52.4216 266.268 52.9649C266.943 53.4968 267.281 54.3174 267.281 55.4266V61.6065H265.496L264.999 60.3501H264.93C264.53 60.8481 264.106 61.2103 263.66 61.4367C263.214 61.663 262.602 61.7762 261.824 61.7762C260.989 61.7762 260.297 61.5385 259.748 61.0632C259.199 60.5765 258.924 59.8351 258.924 58.8391C258.924 57.8544 259.273 57.13 259.971 56.666C260.669 56.1906 261.715 55.9303 263.111 55.885L264.741 55.8341V55.4266C264.741 54.9399 264.61 54.5834 264.346 54.357C264.095 54.1307 263.74 54.0175 263.283 54.0175C262.825 54.0175 262.379 54.0854 261.944 54.2212C261.51 54.3457 261.075 54.5042 260.64 54.6966L259.799 52.9818C260.303 52.7215 260.857 52.5178 261.464 52.3707C262.081 52.2235 262.722 52.1499 263.386 52.1499ZM263.746 57.3451C262.922 57.3677 262.35 57.5149 262.03 57.7865C261.71 58.0581 261.55 58.4147 261.55 58.8561C261.55 59.2409 261.664 59.5182 261.893 59.688C262.122 59.8464 262.419 59.9257 262.785 59.9257C263.334 59.9257 263.797 59.7672 264.175 59.4503C264.552 59.1221 264.741 58.6637 264.741 58.0751V57.3111L263.746 57.3451Z" fill="black"/>
<path d="M283.012 54.7645C283.012 55.2625 282.852 55.6869 282.532 56.0378C282.223 56.3887 281.759 56.615 281.142 56.7169V56.7848C281.794 56.864 282.314 57.0848 282.703 57.4469C283.104 57.8091 283.304 58.2732 283.304 58.8391C283.304 59.3711 283.161 59.8464 282.875 60.2652C282.6 60.684 282.16 61.0122 281.554 61.2499C280.947 61.4876 280.152 61.6065 279.168 61.6065H274.707V52.3367H279.168C279.901 52.3367 280.553 52.4159 281.125 52.5744C281.708 52.7215 282.166 52.9705 282.497 53.3214C282.84 53.6723 283.012 54.1533 283.012 54.7645ZM280.421 54.9682C280.421 54.4023 279.969 54.1193 279.065 54.1193H277.264V55.9529H278.774C279.311 55.9529 279.718 55.8794 279.992 55.7322C280.278 55.5738 280.421 55.3191 280.421 54.9682ZM280.661 58.7033C280.661 58.3411 280.518 58.0808 280.232 57.9223C279.946 57.7525 279.517 57.6677 278.945 57.6677H277.264V59.8578H278.997C279.477 59.8578 279.872 59.7729 280.181 59.6031C280.501 59.422 280.661 59.1221 280.661 58.7033Z" fill="black"/>
<path d="M289.308 61.7762C287.912 61.7762 286.831 61.3971 286.065 60.6387C285.31 59.8691 284.932 58.6637 284.932 57.0225C284.932 55.8907 285.127 54.9682 285.516 54.2552C285.905 53.5421 286.442 53.0158 287.129 52.6762C287.826 52.3367 288.627 52.1669 289.531 52.1669C290.172 52.1669 290.726 52.2292 291.195 52.3537C291.676 52.4782 292.093 52.6253 292.448 52.7951L291.693 54.7475C291.293 54.5891 290.915 54.4589 290.561 54.357C290.217 54.2552 289.874 54.2042 289.531 54.2042C288.204 54.2042 287.541 55.138 287.541 57.0055C287.541 57.9336 287.712 58.6184 288.055 59.0598C288.41 59.5012 288.902 59.7219 289.531 59.7219C290.069 59.7219 290.543 59.654 290.955 59.5182C291.367 59.3711 291.767 59.173 292.156 58.924V61.0801C291.767 61.3292 291.356 61.5046 290.921 61.6065C290.498 61.7196 289.96 61.7762 289.308 61.7762Z" fill="black"/>
<path d="M298.174 52.1669C299.466 52.1669 300.49 52.5348 301.245 53.2705C302 53.9948 302.378 55.0305 302.378 56.3774V57.5997H296.338C296.36 58.3128 296.572 58.8731 296.972 59.2805C297.384 59.688 297.951 59.8917 298.671 59.8917C299.278 59.8917 299.827 59.8351 300.318 59.7219C300.81 59.5974 301.319 59.4107 301.846 59.1617V61.1141C301.388 61.3405 300.902 61.5046 300.387 61.6065C299.884 61.7196 299.272 61.7762 298.551 61.7762C297.613 61.7762 296.784 61.6065 296.063 61.2669C295.342 60.916 294.776 60.3897 294.364 59.688C293.952 58.9862 293.747 58.1034 293.747 57.0395C293.747 55.9529 293.93 55.0531 294.296 54.3401C294.673 53.6157 295.194 53.0724 295.857 52.7102C296.521 52.348 297.293 52.1669 298.174 52.1669ZM298.191 53.9665C297.699 53.9665 297.287 54.125 296.955 54.4419C296.635 54.7588 296.446 55.2512 296.389 55.919H299.975C299.964 55.353 299.815 54.889 299.529 54.5268C299.243 54.1533 298.797 53.9665 298.191 53.9665Z" fill="black"/>
<path d="M305.366 59.3102L307 60.1226L304.931 63.6209L303.791 63.082L305.366 59.3102Z" fill="black"/>
<path d="M22.449 76.9542C22.449 77.7578 22.8265 78.1596 23.5815 78.1596C24.0734 78.1596 24.531 78.1087 24.9542 78.0068C25.3775 77.8936 25.8008 77.7465 26.224 77.5654V73.5587H28.7807V82.8284H26.224V79.1443C25.8236 79.3593 25.3661 79.5574 24.8513 79.7385C24.3365 79.9083 23.7531 79.9932 23.1011 79.9932C22.1287 79.9932 21.3508 79.7442 20.7674 79.2462C20.184 78.7481 19.8923 78.0011 19.8923 77.0051V73.5587H22.449V76.9542Z" fill="black"/>
<path d="M39.2178 75.4602H36.1463V82.8284H33.5896V75.4602H30.5181V73.5587H39.2178V75.4602Z" fill="black"/>
<path d="M49.2898 78.1766C49.2898 79.7159 48.8779 80.9043 48.0543 81.7419C47.2421 82.5794 46.1325 82.9982 44.7254 82.9982C43.856 82.9982 43.0781 82.8114 42.3918 82.4379C41.7168 82.0644 41.1849 81.5211 40.7959 80.8081C40.407 80.0837 40.2125 79.2065 40.2125 78.1766C40.2125 76.6373 40.6186 75.4545 41.4308 74.6282C42.243 73.802 43.3584 73.3889 44.7769 73.3889C45.6577 73.3889 46.4356 73.5756 47.1105 73.9491C47.7855 74.3227 48.3174 74.8659 48.7063 75.579C49.0953 76.2807 49.2898 77.1466 49.2898 78.1766ZM42.8207 78.1766C42.8207 79.0934 42.9694 79.7894 43.2669 80.2648C43.5757 80.7289 44.0734 80.9609 44.7597 80.9609C45.4346 80.9609 45.9208 80.7289 46.2183 80.2648C46.5271 79.7894 46.6816 79.0934 46.6816 78.1766C46.6816 77.2598 46.5271 76.575 46.2183 76.1223C45.9208 75.6582 45.4289 75.4262 44.7426 75.4262C44.0676 75.4262 43.5757 75.6582 43.2669 76.1223C42.9694 76.575 42.8207 77.2598 42.8207 78.1766Z" fill="black"/>
<path d="M64.5171 75.9864C64.5171 76.4845 64.3569 76.9089 64.0366 77.2598C63.7278 77.6106 63.2645 77.837 62.6467 77.9389V78.0068C63.2988 78.086 63.8193 78.3067 64.2082 78.6689C64.6086 79.0311 64.8088 79.4952 64.8088 80.0611C64.8088 80.593 64.6658 81.0684 64.3798 81.4872C64.1053 81.906 63.6648 82.2342 63.0585 82.4719C62.4523 82.7096 61.6572 82.8284 60.6734 82.8284H56.212V73.5587H60.6734C61.4055 73.5587 62.0576 73.6379 62.6296 73.7964C63.213 73.9435 63.6706 74.1925 64.0023 74.5434C64.3455 74.8942 64.5171 75.3753 64.5171 75.9864ZM61.926 76.1902C61.926 75.6243 61.4742 75.3413 60.5705 75.3413H58.7687V77.1749H60.2788C60.8164 77.1749 61.2225 77.1013 61.4971 76.9542C61.783 76.7957 61.926 76.5411 61.926 76.1902ZM62.1663 79.9253C62.1663 79.5631 62.0233 79.3027 61.7373 79.1443C61.4513 78.9745 61.0223 78.8896 60.4503 78.8896H58.7687V81.0797H60.5018C60.9823 81.0797 61.3769 80.9948 61.6858 80.8251C62.0061 80.644 62.1663 80.344 62.1663 79.9253Z" fill="black"/>
<path d="M69.4745 77.2258C69.4745 77.4182 69.463 77.6559 69.4402 77.9389C69.4287 78.2218 69.4116 78.5105 69.3887 78.8047C69.3772 79.099 69.3601 79.3593 69.3372 79.5857C69.3143 79.8121 69.2972 79.9705 69.2857 80.0611L73.6098 73.5587H76.6813V82.8284H74.2104V79.1273C74.2104 78.8217 74.2219 78.4878 74.2447 78.1256C74.2676 77.7521 74.2905 77.4069 74.3134 77.09C74.3477 76.7618 74.3706 76.5128 74.382 76.343L70.075 82.8284H67.0036V73.5587H69.4745V77.2258Z" fill="black"/>
<path d="M87.7787 73.5587V80.9779H89.1514V86.156H86.8521V82.8284H80.5546V86.156H78.2553V80.9779H79.0446C79.4564 80.3553 79.8053 79.6479 80.0913 78.8557C80.3773 78.0521 80.6061 77.1975 80.7777 76.292C80.9493 75.3866 81.0751 74.4755 81.1552 73.5587H87.7787ZM83.3001 75.4602C83.1628 76.4901 82.9741 77.4692 82.7339 78.3973C82.4936 79.3141 82.1562 80.1743 81.7215 80.9779H85.2219V75.4602H83.3001Z" fill="black"/>
<path d="M93.2192 77.2258C93.2192 77.4182 93.2078 77.6559 93.1849 77.9389C93.1734 78.2218 93.1563 78.5105 93.1334 78.8047C93.122 79.099 93.1048 79.3593 93.0819 79.5857C93.0591 79.8121 93.0419 79.9705 93.0305 80.0611L97.3546 73.5587H100.426V82.8284H97.9551V79.1273C97.9551 78.8217 97.9666 78.4878 97.9895 78.1256C98.0123 77.7521 98.0352 77.4069 98.0581 77.09C98.0924 76.7618 98.1153 76.5128 98.1267 76.343L93.8198 82.8284H90.7483V73.5587H93.2192V77.2258Z" fill="black"/>
<path d="M117.049 73.5587V82.8284H103.098V73.5587H105.655V80.9269H108.795V73.5587H111.352V80.9269H114.492V73.5587H117.049Z" fill="black"/>
<path d="M124.08 77.1409C125.521 77.1409 126.585 77.3673 127.271 77.82C127.969 78.2728 128.318 78.9575 128.318 79.8743C128.318 80.7685 127.998 81.4872 127.357 82.0305C126.716 82.5624 125.658 82.8284 124.183 82.8284H119.721V73.5587H122.278V77.1409H124.08ZM125.761 79.9083C125.761 79.2292 125.184 78.8896 124.028 78.8896H122.278V81.0797H124.062C124.566 81.0797 124.972 80.9892 125.281 80.8081C125.601 80.627 125.761 80.3271 125.761 79.9083Z" fill="black"/>
<path d="M131.177 80.5321L132.811 81.3445L130.741 84.8428L129.602 84.304L131.177 80.5321Z" fill="black"/>
<path d="M142.128 76.9542C142.128 77.7578 142.505 78.1596 143.26 78.1596C143.752 78.1596 144.21 78.1087 144.633 78.0068C145.056 77.8936 145.48 77.7465 145.903 77.5654V73.5587H148.46V82.8284H145.903V79.1443C145.502 79.3593 145.045 79.5574 144.53 79.7385C144.015 79.9083 143.432 79.9932 142.78 79.9932C141.807 79.9932 141.03 79.7442 140.446 79.2462C139.863 78.7481 139.571 78.0011 139.571 77.0051V73.5587H142.128V76.9542Z" fill="black"/>
<path d="M158.897 75.4602H155.825V82.8284H153.268V75.4602H150.197V73.5587H158.897V75.4602Z" fill="black"/>
<path d="M168.969 78.1766C168.969 79.7159 168.557 80.9043 167.733 81.7419C166.921 82.5794 165.811 82.9982 164.404 82.9982C163.535 82.9982 162.757 82.8114 162.071 82.4379C161.396 82.0644 160.864 81.5211 160.475 80.8081C160.086 80.0837 159.891 79.2065 159.891 78.1766C159.891 76.6373 160.297 75.4545 161.11 74.6282C161.922 73.802 163.037 73.3889 164.456 73.3889C165.336 73.3889 166.114 73.5756 166.789 73.9491C167.464 74.3227 167.996 74.8659 168.385 75.579C168.774 76.2807 168.969 77.1466 168.969 78.1766ZM162.499 78.1766C162.499 79.0934 162.648 79.7894 162.946 80.2648C163.254 80.7289 163.752 80.9609 164.438 80.9609C165.113 80.9609 165.6 80.7289 165.897 80.2648C166.206 79.7894 166.36 79.0934 166.36 78.1766C166.36 77.2598 166.206 76.575 165.897 76.1223C165.6 75.6582 165.108 75.4262 164.421 75.4262C163.746 75.4262 163.254 75.6582 162.946 76.1223C162.648 76.575 162.499 77.2598 162.499 78.1766Z" fill="black"/>
<path d="M170.515 77.2768C170.515 75.2281 170.904 73.6379 171.682 72.506C172.471 71.3742 173.77 70.6498 175.577 70.3329C176.184 70.2311 176.796 70.1462 177.413 70.0783C178.042 69.999 178.689 69.9198 179.352 69.8406L179.644 72.0477C179.255 72.0929 178.826 72.1439 178.357 72.2005C177.899 72.257 177.442 72.3136 176.984 72.3702C176.538 72.4155 176.138 72.4664 175.783 72.523C175.211 72.6136 174.736 72.7551 174.359 72.9475C173.981 73.1286 173.69 73.4228 173.484 73.8303C173.289 74.2378 173.169 74.8263 173.123 75.596H173.244C173.381 75.3809 173.57 75.1659 173.81 74.9508C174.061 74.7358 174.37 74.5547 174.736 74.4075C175.102 74.2604 175.52 74.1868 175.989 74.1868C177.11 74.1868 177.997 74.5264 178.649 75.2055C179.312 75.8846 179.644 76.8976 179.644 78.2445C179.644 79.2971 179.449 80.1743 179.061 80.876C178.672 81.5777 178.134 82.1097 177.448 82.4719C176.761 82.8228 175.966 82.9982 175.062 82.9982C173.678 82.9982 172.574 82.5058 171.751 81.5211C170.927 80.5364 170.515 79.1216 170.515 77.2768ZM175.217 80.9439C175.755 80.9439 176.189 80.7628 176.521 80.4006C176.864 80.0384 177.036 79.3933 177.036 78.4652C177.036 77.7295 176.91 77.1466 176.658 76.7165C176.418 76.2751 175.995 76.0544 175.388 76.0544C175.022 76.0544 174.679 76.1449 174.359 76.326C174.05 76.4958 173.787 76.6939 173.57 76.9202C173.352 77.1353 173.204 77.322 173.123 77.4805C173.123 78.0577 173.186 78.6123 173.312 79.1443C173.438 79.6762 173.65 80.112 173.947 80.4516C174.256 80.7798 174.679 80.9439 175.217 80.9439Z" fill="black"/>
<path d="M181.756 82.8284V73.5587H184.312V77.1409H185.548C186.978 77.1409 188.036 77.3673 188.722 77.82C189.409 78.2728 189.752 78.9575 189.752 79.8743C189.752 80.7685 189.432 81.4872 188.791 82.0305C188.15 82.5624 187.098 82.8284 185.634 82.8284H181.756ZM191.108 82.8284V73.5587H193.664V82.8284H191.108ZM185.496 81.0797C186 81.0797 186.406 80.9892 186.715 80.8081C187.035 80.627 187.195 80.3271 187.195 79.9083C187.195 79.2292 186.618 78.8896 185.462 78.8896H184.312V81.0797H185.496Z" fill="black"/>
<path d="M209.449 75.9864C209.449 76.4845 209.289 76.9089 208.968 77.2598C208.659 77.6106 208.196 77.837 207.578 77.9389V78.0068C208.23 78.086 208.751 78.3067 209.14 78.6689C209.54 79.0311 209.74 79.4952 209.74 80.0611C209.74 80.593 209.597 81.0684 209.311 81.4872C209.037 81.906 208.596 82.2342 207.99 82.4719C207.384 82.7096 206.589 82.8284 205.605 82.8284H201.144V73.5587H205.605C206.337 73.5587 206.989 73.6379 207.561 73.7964C208.145 73.9435 208.602 74.1925 208.934 74.5434C209.277 74.8942 209.449 75.3753 209.449 75.9864ZM206.858 76.1902C206.858 75.6243 206.406 75.3413 205.502 75.3413H203.7V77.1749H205.21C205.748 77.1749 206.154 77.1013 206.429 76.9542C206.715 76.7957 206.858 76.5411 206.858 76.1902ZM207.098 79.9253C207.098 79.5631 206.955 79.3027 206.669 79.1443C206.383 78.9745 205.954 78.8896 205.382 78.8896H203.7V81.0797H205.433C205.914 81.0797 206.309 80.9948 206.617 80.8251C206.938 80.644 207.098 80.344 207.098 79.9253Z" fill="black"/>
<path d="M211.935 82.8284V73.5587H214.492V77.1409H215.727C217.157 77.1409 218.215 77.3673 218.902 77.82C219.588 78.2728 219.931 78.9575 219.931 79.8743C219.931 80.7685 219.611 81.4872 218.97 82.0305C218.33 82.5624 217.277 82.8284 215.813 82.8284H211.935ZM221.287 82.8284V73.5587H223.844V82.8284H221.287ZM215.676 81.0797C216.179 81.0797 216.585 80.9892 216.894 80.8081C217.214 80.627 217.375 80.3271 217.375 79.9083C217.375 79.2292 216.797 78.8896 215.642 78.8896H214.492V81.0797H215.676Z" fill="black"/>
<path d="M225.948 77.2768C225.948 75.2281 226.336 73.6379 227.114 72.506C227.904 71.3742 229.202 70.6498 231.01 70.3329C231.616 70.2311 232.228 70.1462 232.846 70.0783C233.475 69.999 234.121 69.9198 234.785 69.8406L235.076 72.0477C234.687 72.0929 234.258 72.1439 233.789 72.2005C233.332 72.257 232.874 72.3136 232.417 72.3702C231.97 72.4155 231.57 72.4664 231.215 72.523C230.643 72.6136 230.169 72.7551 229.791 72.9475C229.414 73.1286 229.122 73.4228 228.916 73.8303C228.722 74.2378 228.601 74.8263 228.556 75.596H228.676C228.813 75.3809 229.002 75.1659 229.242 74.9508C229.494 74.7358 229.803 74.5547 230.169 74.4075C230.535 74.2604 230.952 74.1868 231.421 74.1868C232.542 74.1868 233.429 74.5264 234.081 75.2055C234.744 75.8846 235.076 76.8976 235.076 78.2445C235.076 79.2971 234.882 80.1743 234.493 80.876C234.104 81.5777 233.566 82.1097 232.88 82.4719C232.193 82.8228 231.398 82.9982 230.495 82.9982C229.111 82.9982 228.007 82.5058 227.183 81.5211C226.359 80.5364 225.948 79.1216 225.948 77.2768ZM230.649 80.9439C231.187 80.9439 231.622 80.7628 231.953 80.4006C232.296 80.0384 232.468 79.3933 232.468 78.4652C232.468 77.7295 232.342 77.1466 232.091 76.7165C231.85 76.2751 231.427 76.0544 230.821 76.0544C230.455 76.0544 230.111 76.1449 229.791 76.326C229.482 76.4958 229.219 76.6939 229.002 76.9202C228.785 77.1353 228.636 77.322 228.556 77.4805C228.556 78.0577 228.619 78.6123 228.744 79.1443C228.87 79.6762 229.082 80.112 229.379 80.4516C229.688 80.7798 230.112 80.9439 230.649 80.9439Z" fill="black"/>
<path d="M242.404 73.3889C243.457 73.3889 244.309 73.7963 244.961 74.6113C245.613 75.4149 245.939 76.6033 245.939 78.1766C245.939 79.7498 245.602 80.9496 244.927 81.7758C244.252 82.5907 243.388 82.9982 242.336 82.9982C241.661 82.9982 241.123 82.8793 240.723 82.6417C240.322 82.3927 239.996 82.1154 239.745 81.8098H239.607C239.699 82.2851 239.745 82.7379 239.745 83.168V86.903H237.188V73.5587H239.264L239.625 74.7641H239.745C239.996 74.3906 240.334 74.068 240.757 73.7964C241.18 73.5247 241.729 73.3889 242.404 73.3889ZM241.581 75.4092C240.917 75.4092 240.448 75.613 240.174 76.0204C239.911 76.4279 239.768 77.0504 239.745 77.8879V78.1596C239.745 79.0537 239.876 79.7442 240.139 80.2308C240.414 80.7062 240.906 80.9439 241.615 80.9439C242.199 80.9439 242.627 80.7062 242.902 80.2308C243.188 79.7442 243.331 79.0481 243.331 78.1426C243.331 76.3204 242.748 75.4092 241.581 75.4092Z" fill="black"/>
<path d="M251.89 73.3719C253.149 73.3719 254.11 73.6435 254.773 74.1868C255.448 74.7188 255.785 75.5394 255.785 76.6486V82.8284H254.001L253.503 81.5721H253.435C253.034 82.0701 252.611 82.4323 252.165 82.6586C251.719 82.885 251.107 82.9982 250.329 82.9982C249.494 82.9982 248.802 82.7605 248.252 82.2851C247.703 81.7984 247.429 81.0571 247.429 80.0611C247.429 79.0764 247.778 78.352 248.476 77.8879C249.173 77.4126 250.22 77.1523 251.616 77.107L253.246 77.056V76.6486C253.246 76.1619 253.114 75.8054 252.851 75.579C252.599 75.3526 252.245 75.2394 251.787 75.2394C251.33 75.2394 250.884 75.3074 250.449 75.4432C250.014 75.5677 249.579 75.7261 249.145 75.9185L248.304 74.2038C248.807 73.9435 249.362 73.7398 249.968 73.5926C250.586 73.4455 251.227 73.3719 251.89 73.3719ZM252.251 78.567C251.427 78.5897 250.855 78.7368 250.535 79.0085C250.214 79.2801 250.054 79.6366 250.054 80.0781C250.054 80.4629 250.169 80.7402 250.397 80.91C250.626 81.0684 250.924 81.1476 251.29 81.1476C251.839 81.1476 252.302 80.9892 252.68 80.6723C253.057 80.344 253.246 79.8856 253.246 79.2971V78.5331L252.251 78.567Z" fill="black"/>
<path d="M266.158 75.4602H263.087V82.8284H260.53V75.4602H257.459V73.5587H266.158V75.4602Z" fill="black"/>
<path d="M272.245 77.1409C273.687 77.1409 274.751 77.3673 275.437 77.82C276.135 78.2728 276.484 78.9575 276.484 79.8743C276.484 80.7685 276.163 81.4872 275.523 82.0305C274.882 82.5624 273.824 82.8284 272.348 82.8284H267.887V73.5587H270.444V77.1409H272.245ZM273.927 79.9083C273.927 79.2292 273.349 78.8896 272.194 78.8896H270.444V81.0797H272.228C272.732 81.0797 273.138 80.9892 273.447 80.8081C273.767 80.627 273.927 80.3271 273.927 79.9083Z" fill="black"/>
<path d="M279.343 80.5321L280.976 81.3445L278.907 84.8428L277.767 84.304L279.343 80.5321Z" fill="black"/>
<path d="M26.3441 94.7806H29.1583L25.4519 99.2288L29.4843 104.05H26.5844L22.7579 99.3476V104.05H20.2011V94.7806H22.7579V99.2797L26.3441 94.7806Z" fill="black"/>
<path d="M34.6688 94.5939C35.9271 94.5939 36.888 94.8655 37.5515 95.4088C38.2264 95.9408 38.5639 96.7613 38.5639 97.8706V104.05H36.7794L36.2817 102.794H36.2131C35.8127 103.292 35.3895 103.654 34.9433 103.881C34.4972 104.107 33.8852 104.22 33.1073 104.22C32.2722 104.22 31.5801 103.982 31.031 103.507C30.4819 103.02 30.2074 102.279 30.2074 101.283C30.2074 100.298 30.5563 99.574 31.2541 99.1099C31.9519 98.6345 32.9986 98.3742 34.3942 98.3289L36.0243 98.278V97.8706C36.0243 97.3839 35.8928 97.0273 35.6297 96.801C35.378 96.5746 35.0234 96.4614 34.5658 96.4614C34.1082 96.4614 33.6621 96.5293 33.2274 96.6651C32.7927 96.7896 32.358 96.9481 31.9233 97.1405L31.0825 95.4258C31.5858 95.1655 32.1406 94.9617 32.7469 94.8146C33.3647 94.6674 34.0053 94.5939 34.6688 94.5939ZM35.0291 99.789C34.2055 99.8116 33.6335 99.9588 33.3132 100.23C32.9929 100.502 32.8327 100.859 32.8327 101.3C32.8327 101.685 32.9471 101.962 33.1759 102.132C33.4047 102.29 33.7021 102.37 34.0682 102.37C34.6173 102.37 35.0806 102.211 35.4581 101.894C35.8356 101.566 36.0243 101.108 36.0243 100.519V99.7551L35.0291 99.789Z" fill="black"/>
<path d="M47.324 94.7806H50.1381L46.4317 99.2288L50.4641 104.05H47.5642L43.7377 99.3476V104.05H41.181V94.7806H43.7377V99.2797L47.324 94.7806Z" fill="black"/>
<path d="M58.0384 104.05H55.2758L57.7982 100.383C57.3177 100.191 56.8887 99.8796 56.5112 99.4495C56.1452 99.008 55.9621 98.4082 55.9621 97.6498C55.9621 96.7217 56.3168 96.0143 57.026 95.5276C57.7353 95.0296 58.6447 94.7806 59.7543 94.7806H64.1128V104.05H61.556V100.604H60.149L58.0384 104.05ZM58.4674 97.6668C58.4674 98.0516 58.6218 98.3572 58.9307 98.5836C59.2396 98.7987 59.6399 98.9062 60.1318 98.9062H61.556V96.5633H59.8058C59.3482 96.5633 59.0108 96.6765 58.7934 96.9028C58.5761 97.1179 58.4674 97.3725 58.4674 97.6668Z" fill="black"/>
<path d="M71.0287 98.4987C71.0287 96.4501 71.4177 94.8599 72.1956 93.728C72.9849 92.5962 74.2833 91.8718 76.0907 91.5549C76.697 91.453 77.309 91.3681 77.9267 91.3002C78.5559 91.221 79.2022 91.1418 79.8657 91.0625L80.1574 93.2696C79.7685 93.3149 79.3395 93.3658 78.8705 93.4224C78.4129 93.479 77.9553 93.5356 77.4977 93.5922C77.0516 93.6375 76.6512 93.6884 76.2966 93.745C75.7246 93.8355 75.2499 93.977 74.8724 94.1694C74.4949 94.3505 74.2032 94.6448 73.9973 95.0523C73.8028 95.4597 73.6827 96.0483 73.6369 96.8179H73.757C73.8943 96.6029 74.0831 96.3878 74.3233 96.1728C74.575 95.9577 74.8838 95.7766 75.2499 95.6295C75.616 95.4824 76.0335 95.4088 76.5025 95.4088C77.6236 95.4088 78.5101 95.7484 79.1622 96.4275C79.8257 97.1066 80.1574 98.1196 80.1574 99.4664C80.1574 100.519 79.963 101.396 79.574 102.098C79.1851 102.8 78.6474 103.332 77.961 103.694C77.2747 104.045 76.4796 104.22 75.5759 104.22C74.1917 104.22 73.0878 103.728 72.2642 102.743C71.4405 101.758 71.0287 100.344 71.0287 98.4987ZM75.7304 102.166C76.268 102.166 76.7027 101.985 77.0345 101.623C77.3776 101.26 77.5492 100.615 77.5492 99.6871C77.5492 98.9515 77.4234 98.3686 77.1717 97.9385C76.9315 97.497 76.5082 97.2763 75.9019 97.2763C75.5359 97.2763 75.1927 97.3669 74.8724 97.548C74.5635 97.7178 74.3004 97.9158 74.0831 98.1422C73.8657 98.3572 73.717 98.544 73.6369 98.7025C73.6369 99.2797 73.6998 99.8343 73.8257 100.366C73.9515 100.898 74.1631 101.334 74.4606 101.674C74.7694 102.002 75.1927 102.166 75.7304 102.166Z" fill="black"/>
<path d="M80.9308 94.7806H83.7278L85.4951 99.9927C85.5867 100.242 85.6553 100.502 85.7011 100.774C85.7468 101.034 85.7811 101.311 85.804 101.606H85.8555C85.8898 101.311 85.9356 101.034 85.9928 100.774C86.0614 100.502 86.1358 100.242 86.2158 99.9927L87.9489 94.7806H90.6944L86.7306 105.239C86.376 106.201 85.8555 106.92 85.1691 107.395C84.4942 107.882 83.7106 108.125 82.8183 108.125C82.5323 108.125 82.2807 108.108 82.0633 108.074C81.8574 108.051 81.6744 108.023 81.5142 107.989V105.986C81.64 106.008 81.7888 106.031 81.9603 106.054C82.1434 106.076 82.3321 106.088 82.5266 106.088C83.0643 106.088 83.4875 105.924 83.7964 105.595C84.1167 105.278 84.3512 104.894 84.4999 104.441L84.6543 103.982L80.9308 94.7806Z" fill="black"/>
<path d="M100.129 94.7806V102.2H101.501V107.378H99.202V104.05H92.9046V107.378H90.6052V102.2H91.3946C91.8064 101.577 92.1553 100.87 92.4413 100.078C92.7273 99.274 92.9561 98.4195 93.1276 97.514C93.2992 96.6085 93.4251 95.6974 93.5051 94.7806H100.129ZM95.65 96.6821C95.5128 97.7121 95.324 98.6911 95.0838 99.6192C94.8436 100.536 94.5061 101.396 94.0714 102.2H97.5719V96.6821H95.65Z" fill="black"/>
<path d="M101.76 94.7806H104.557L106.324 99.9927C106.416 100.242 106.484 100.502 106.53 100.774C106.576 101.034 106.61 101.311 106.633 101.606H106.684C106.719 101.311 106.765 101.034 106.822 100.774C106.89 100.502 106.965 100.242 107.045 99.9927L108.778 94.7806H111.523L107.56 105.239C107.205 106.201 106.684 106.92 105.998 107.395C105.323 107.882 104.54 108.125 103.647 108.125C103.361 108.125 103.11 108.108 102.892 108.074C102.686 108.051 102.503 108.023 102.343 107.989V105.986C102.469 106.008 102.618 106.031 102.789 106.054C102.972 106.076 103.161 106.088 103.356 106.088C103.893 106.088 104.317 105.924 104.625 105.595C104.946 105.278 105.18 104.894 105.329 104.441L105.483 103.982L101.76 94.7806Z" fill="black"/>
<path d="M125.982 97.2084C125.982 97.7064 125.822 98.1309 125.501 98.4817C125.193 98.8326 124.729 99.059 124.112 99.1608V99.2288C124.764 99.308 125.284 99.5287 125.673 99.8909C126.073 100.253 126.274 100.717 126.274 101.283C126.274 101.815 126.131 102.29 125.845 102.709C125.57 103.128 125.13 103.456 124.523 103.694C123.917 103.932 123.122 104.05 122.138 104.05H117.677V94.7806H122.138C122.87 94.7806 123.522 94.8599 124.094 95.0183C124.678 95.1655 125.135 95.4145 125.467 95.7653C125.81 96.1162 125.982 96.5972 125.982 97.2084ZM123.391 97.4122C123.391 96.8462 122.939 96.5633 122.035 96.5633H120.234V98.3969H121.744C122.281 98.3969 122.687 98.3233 122.962 98.1761C123.248 98.0177 123.391 97.763 123.391 97.4122ZM123.631 101.147C123.631 100.785 123.488 100.525 123.202 100.366C122.916 100.196 122.487 100.112 121.915 100.112H120.234V102.302H121.967C122.447 102.302 122.842 102.217 123.151 102.047C123.471 101.866 123.631 101.566 123.631 101.147Z" fill="black"/>
<path d="M128.468 104.05V94.7806H131.025V98.3629H132.261C133.69 98.3629 134.749 98.5893 135.435 99.042C136.121 99.4947 136.465 100.18 136.465 101.096C136.465 101.99 136.144 102.709 135.504 103.252C134.863 103.784 133.811 104.05 132.346 104.05H128.468ZM137.82 104.05V94.7806H140.377V104.05H137.82ZM132.209 102.302C132.712 102.302 133.119 102.211 133.427 102.03C133.748 101.849 133.908 101.549 133.908 101.13C133.908 100.451 133.33 100.112 132.175 100.112H131.025V102.302H132.209Z" fill="black"/>
<path d="M149.516 94.7806V96.6821H145.604V104.05H143.047V94.7806H149.516Z" fill="black"/>
<path d="M159.113 104.05H156.556V96.6821H154.205C154.056 98.4931 153.856 99.9531 153.604 101.062C153.364 102.16 153.027 102.964 152.592 103.473C152.157 103.971 151.574 104.22 150.842 104.22C150.247 104.22 149.761 104.13 149.383 103.949V101.928C149.646 102.041 149.921 102.098 150.207 102.098C150.413 102.098 150.602 101.996 150.773 101.792C150.945 101.589 151.105 101.221 151.254 100.689C151.414 100.157 151.557 99.4155 151.683 98.4648C151.808 97.5027 151.923 96.2747 152.026 94.7806H159.113V104.05Z" fill="black"/>
<path d="M163.206 104.05H160.443L162.965 100.383C162.485 100.191 162.056 99.8796 161.678 99.4495C161.312 99.008 161.129 98.4082 161.129 97.6498C161.129 96.7217 161.484 96.0143 162.193 95.5276C162.902 95.0296 163.812 94.7806 164.921 94.7806H169.28V104.05H166.723V100.604H165.316L163.206 104.05ZM163.635 97.6668C163.635 98.0516 163.789 98.3572 164.098 98.5836C164.407 98.7987 164.807 98.9062 165.299 98.9062H166.723V96.5633H164.973C164.515 96.5633 164.178 96.6765 163.961 96.9028C163.743 97.1179 163.635 97.3725 163.635 97.6668Z" fill="black"/>
<path d="M180.378 94.7806V102.2H181.751V107.378H179.451V104.05H173.154V107.378H170.855V102.2H171.644C172.056 101.577 172.405 100.87 172.691 100.078C172.977 99.274 173.205 98.4195 173.377 97.514C173.549 96.6085 173.675 95.6974 173.755 94.7806H180.378ZM175.899 96.6821C175.762 97.7121 175.573 98.6911 175.333 99.6192C175.093 100.536 174.756 101.396 174.321 102.2H177.821V96.6821H175.899Z" fill="black"/>
<path d="M187.208 94.6109C188.501 94.6109 189.525 94.9787 190.28 95.7144C191.035 96.4388 191.412 97.4744 191.412 98.8213V100.044H185.372C185.395 100.757 185.607 101.317 186.007 101.724C186.419 102.132 186.985 102.336 187.706 102.336C188.312 102.336 188.861 102.279 189.353 102.166C189.845 102.041 190.354 101.855 190.881 101.606V103.558C190.423 103.784 189.937 103.949 189.422 104.05C188.919 104.164 188.307 104.22 187.586 104.22C186.648 104.22 185.819 104.05 185.098 103.711C184.377 103.36 183.811 102.834 183.399 102.132C182.987 101.43 182.781 100.547 182.781 99.4834C182.781 98.3969 182.964 97.497 183.33 96.784C183.708 96.0596 184.229 95.5163 184.892 95.1541C185.555 94.7919 186.328 94.6109 187.208 94.6109ZM187.226 96.4105C186.734 96.4105 186.322 96.5689 185.99 96.8858C185.67 97.2028 185.481 97.6951 185.424 98.3629H189.01C188.999 97.797 188.85 97.3329 188.564 96.9707C188.278 96.5972 187.832 96.4105 187.226 96.4105Z" fill="black"/>
<path d="M201.242 96.6821H198.17V104.05H195.613V96.6821H192.542V94.7806H201.242V96.6821Z" fill="black"/>
<path d="M207.329 98.3629C208.77 98.3629 209.834 98.5893 210.52 99.042C211.218 99.4947 211.567 100.18 211.567 101.096C211.567 101.99 211.247 102.709 210.606 103.252C209.965 103.784 208.907 104.05 207.432 104.05H202.97V94.7806H205.527V98.3629H207.329ZM209.01 101.13C209.01 100.451 208.433 100.112 207.277 100.112H205.527V102.302H207.311C207.815 102.302 208.221 102.211 208.53 102.03C208.85 101.849 209.01 101.549 209.01 101.13Z" fill="black"/>
<path d="M213.412 91.5493H215.724V100.461H213.412V91.5493ZM214.568 101.447C214.965 101.447 215.303 101.586 215.582 101.862C215.867 102.138 216.009 102.473 216.009 102.865C216.009 103.252 215.867 103.586 215.582 103.868C215.303 104.144 214.965 104.282 214.568 104.282C214.172 104.282 213.834 104.144 213.554 103.868C213.275 103.592 213.135 103.257 213.135 102.865C213.135 102.473 213.275 102.138 213.554 101.862C213.834 101.586 214.172 101.447 214.568 101.447Z" fill="black"/>
</svg>
