<svg width="391" height="135" viewBox="0 0 391 135" fill="none" xmlns="http://www.w3.org/2000/svg">
<path fill-rule="evenodd" clip-rule="evenodd" d="M321.91 0H0V135H321.023H321.91H390.642L321.91 98.1518V0Z" fill="white"/>
<path d="M19.4502 26.8525H28.7578V39.7812H26.2705V29.1553H21.9463V39.7812H19.4502V26.8525Z" fill="black"/>
<path d="M33.8291 30.2188V31.2734C34.2627 30.8398 34.7314 30.5146 35.2354 30.2979C35.7393 30.0811 36.2783 29.9727 36.8525 29.9727C38.1006 29.9727 39.1611 30.4443 40.0342 31.3877C40.9072 32.3311 41.3438 33.541 41.3438 35.0176C41.3438 36.4414 40.8926 37.6338 39.9902 38.5947C39.0879 39.5498 38.0186 40.0273 36.7822 40.0273C36.2314 40.0273 35.7188 39.9307 35.2441 39.7373C34.7695 39.5381 34.2979 39.2158 33.8291 38.7705V43.2793H31.4473V30.2188H33.8291ZM36.3516 32.1875C35.5957 32.1875 34.9688 32.4453 34.4707 32.9609C33.9727 33.4766 33.7236 34.1504 33.7236 34.9824C33.7236 35.832 33.9727 36.5205 34.4707 37.0479C34.9688 37.5693 35.5957 37.8301 36.3516 37.8301C37.084 37.8301 37.6992 37.5635 38.1973 37.0303C38.7012 36.4971 38.9531 35.8174 38.9531 34.9912C38.9531 34.1709 38.707 33.5 38.2148 32.9785C37.7227 32.4512 37.1016 32.1875 36.3516 32.1875Z" fill="black"/>
<path d="M44.5957 39.7812H43.3213V30.2188H45.6592V35.835L50.5547 30.2188H51.7061V39.7812H49.3682V34.2793L44.5957 39.7812Z" fill="black"/>
<path d="M54.1406 39.7812V30.2188H57.9814C59.2412 30.2188 60.0967 30.4678 60.5479 30.9658C60.999 31.458 61.2246 32.0176 61.2246 32.6445C61.2246 33.5762 60.7617 34.2471 59.8359 34.6572C61.1016 35.0908 61.7344 35.9082 61.7344 37.1094C61.7344 37.7598 61.5674 38.2988 61.2334 38.7266C60.8994 39.1484 60.4746 39.4297 59.959 39.5703C59.4492 39.7109 58.7344 39.7812 57.8145 39.7812H54.1406ZM56.5488 33.9805H57.4717C57.8643 33.9805 58.166 33.8838 58.377 33.6904C58.5938 33.4912 58.7021 33.2715 58.7021 33.0312C58.7021 32.6738 58.5996 32.3955 58.3945 32.1963C58.1895 31.9971 57.9463 31.8975 57.665 31.8975L57.3574 31.9062H56.5488V33.9805ZM56.5488 37.9355H57.7529C58.2217 37.9355 58.5498 37.8271 58.7373 37.6104C58.9307 37.3877 59.0273 37.1709 59.0273 36.96C59.0273 36.6494 58.9189 36.3652 58.7021 36.1074C58.4912 35.8496 58.1074 35.7207 57.5508 35.7207H56.5488V37.9355Z" fill="black"/>
<path d="M73.3535 35.6943H65.6455C65.7568 36.374 66.0527 36.916 66.5332 37.3203C67.0195 37.7188 67.6377 37.918 68.3877 37.918C69.2842 37.918 70.0547 37.6045 70.6992 36.9775L72.7207 37.9268C72.2168 38.6416 71.6133 39.1719 70.9102 39.5176C70.207 39.8574 69.3721 40.0273 68.4053 40.0273C66.9053 40.0273 65.6836 39.5557 64.7402 38.6123C63.7969 37.6631 63.3252 36.4766 63.3252 35.0527C63.3252 33.5938 63.7939 32.3838 64.7314 31.4229C65.6748 30.4561 66.8555 29.9727 68.2734 29.9727C69.7793 29.9727 71.0039 30.4561 71.9473 31.4229C72.8906 32.3838 73.3623 33.6553 73.3623 35.2373L73.3535 35.6943ZM70.9453 33.8047C70.7871 33.2715 70.4736 32.8379 70.0049 32.5039C69.542 32.1699 69.0029 32.0029 68.3877 32.0029C67.7197 32.0029 67.1338 32.1904 66.6299 32.5654C66.3135 32.7998 66.0205 33.2129 65.751 33.8047H70.9453Z" fill="black"/>
<path d="M74.4521 30.2188H83.3643V32.5039H80.1914V39.7812H77.7832V32.5039H74.4521V30.2188Z" fill="black"/>
<path d="M85.0254 26.5273H87.4512V35.9756H85.0254V26.5273ZM86.2383 37.0215C86.6543 37.0215 87.0088 37.168 87.3018 37.4609C87.6006 37.7539 87.75 38.1084 87.75 38.5244C87.75 38.9346 87.6006 39.2891 87.3018 39.5879C87.0088 39.8809 86.6543 40.0273 86.2383 40.0273C85.8223 40.0273 85.4678 39.8809 85.1748 39.5879C84.8818 39.2949 84.7354 38.9404 84.7354 38.5244C84.7354 38.1084 84.8818 37.7539 85.1748 37.4609C85.4678 37.168 85.8223 37.0215 86.2383 37.0215Z" fill="black"/>
<path d="M102.911 26.8525V39.7812H100.45V34.5781H99.835L97.2334 39.7812H94.5439L97.4707 34.1738C95.7715 33.6875 94.9219 32.5566 94.9219 30.7812C94.9219 30.1484 95.0098 29.5977 95.1855 29.1289C95.3672 28.6602 95.6221 28.2646 95.9502 27.9424C96.2842 27.6143 96.668 27.374 97.1016 27.2217C97.541 27.0635 97.8896 26.9727 98.1475 26.9492C98.4053 26.9258 99.123 26.8936 100.301 26.8525H102.911ZM100.45 32.1787V29.2607H99.7734C99.1582 29.2607 98.7158 29.2988 98.4463 29.375C98.1768 29.4453 97.957 29.6035 97.7871 29.8496C97.6172 30.0898 97.5322 30.3887 97.5322 30.7461C97.5322 31.2793 97.7021 31.6514 98.042 31.8623C98.3818 32.0732 98.9268 32.1787 99.6768 32.1787H100.45Z" fill="black"/>
<path d="M109.784 30.2188H118.696V32.5039H115.523V39.7812H113.115V32.5039H109.784V30.2188Z" fill="black"/>
<path d="M120.27 39.7812V30.2188H124.11C125.37 30.2188 126.226 30.4678 126.677 30.9658C127.128 31.458 127.354 32.0176 127.354 32.6445C127.354 33.5762 126.891 34.2471 125.965 34.6572C127.23 35.0908 127.863 35.9082 127.863 37.1094C127.863 37.7598 127.696 38.2988 127.362 38.7266C127.028 39.1484 126.604 39.4297 126.088 39.5703C125.578 39.7109 124.863 39.7812 123.943 39.7812H120.27ZM122.678 33.9805H123.601C123.993 33.9805 124.295 33.8838 124.506 33.6904C124.723 33.4912 124.831 33.2715 124.831 33.0312C124.831 32.6738 124.729 32.3955 124.523 32.1963C124.318 31.9971 124.075 31.8975 123.794 31.8975L123.486 31.9062H122.678V33.9805ZM122.678 37.9355H123.882C124.351 37.9355 124.679 37.8271 124.866 37.6104C125.06 37.3877 125.156 37.1709 125.156 36.96C125.156 36.6494 125.048 36.3652 124.831 36.1074C124.62 35.8496 124.236 35.7207 123.68 35.7207H122.678V37.9355Z" fill="black"/>
<path d="M134.394 29.9727C135.296 29.9727 136.143 30.1982 136.934 30.6494C137.73 31.1006 138.352 31.7129 138.797 32.4863C139.242 33.2598 139.465 34.0947 139.465 34.9912C139.465 35.8936 139.239 36.7373 138.788 37.5225C138.343 38.3076 137.733 38.9229 136.96 39.3682C136.187 39.8076 135.334 40.0273 134.402 40.0273C133.031 40.0273 131.859 39.541 130.887 38.5684C129.92 37.5898 129.437 36.4033 129.437 35.0088C129.437 33.5146 129.984 32.2695 131.08 31.2734C132.041 30.4062 133.146 29.9727 134.394 29.9727ZM134.429 32.2314C133.685 32.2314 133.063 32.4922 132.565 33.0137C132.073 33.5293 131.827 34.1914 131.827 35C131.827 35.832 132.07 36.5059 132.557 37.0215C133.049 37.5371 133.67 37.7949 134.42 37.7949C135.17 37.7949 135.794 37.5342 136.292 37.0127C136.79 36.4912 137.039 35.8203 137.039 35C137.039 34.1797 136.793 33.5146 136.301 33.0049C135.814 32.4893 135.19 32.2314 134.429 32.2314Z" fill="black"/>
<path d="M142.699 39.7812H141.425V30.2188H143.763V35.835L148.658 30.2188H149.81V39.7812H147.472V34.2793L142.699 39.7812ZM142.128 26H144.07C144.223 26.2402 144.434 26.4219 144.703 26.5449C144.979 26.6621 145.312 26.7207 145.705 26.7207C146.104 26.7207 146.464 26.6504 146.786 26.5098C146.997 26.416 147.182 26.2461 147.34 26H149.282C149.171 26.7441 148.813 27.3418 148.21 27.793C147.612 28.2441 146.774 28.4697 145.696 28.4697C144.97 28.4697 144.36 28.3701 143.868 28.1709C143.382 27.9658 142.989 27.6758 142.69 27.3008C142.392 26.9258 142.204 26.4922 142.128 26Z" fill="black"/>
<path d="M159.688 33.6641H163.257V30.2188H165.665V39.7812H163.257V35.8174H159.688V39.7812H157.28V30.2188H159.688V33.6641Z" fill="black"/>
<path d="M172.591 29.9727C173.493 29.9727 174.34 30.1982 175.131 30.6494C175.928 31.1006 176.549 31.7129 176.994 32.4863C177.439 33.2598 177.662 34.0947 177.662 34.9912C177.662 35.8936 177.437 36.7373 176.985 37.5225C176.54 38.3076 175.931 38.9229 175.157 39.3682C174.384 39.8076 173.531 40.0273 172.6 40.0273C171.229 40.0273 170.057 39.541 169.084 38.5684C168.117 37.5898 167.634 36.4033 167.634 35.0088C167.634 33.5146 168.182 32.2695 169.277 31.2734C170.238 30.4062 171.343 29.9727 172.591 29.9727ZM172.626 32.2314C171.882 32.2314 171.261 32.4922 170.763 33.0137C170.271 33.5293 170.024 34.1914 170.024 35C170.024 35.832 170.268 36.5059 170.754 37.0215C171.246 37.5371 171.867 37.7949 172.617 37.7949C173.367 37.7949 173.991 37.5342 174.489 37.0127C174.987 36.4912 175.236 35.8203 175.236 35C175.236 34.1797 174.99 33.5146 174.498 33.0049C174.012 32.4893 173.388 32.2314 172.626 32.2314Z" fill="black"/>
<path d="M179.631 39.7812V30.2188H183.472C184.731 30.2188 185.587 30.4678 186.038 30.9658C186.489 31.458 186.715 32.0176 186.715 32.6445C186.715 33.5762 186.252 34.2471 185.326 34.6572C186.592 35.0908 187.225 35.9082 187.225 37.1094C187.225 37.7598 187.058 38.2988 186.724 38.7266C186.39 39.1484 185.965 39.4297 185.449 39.5703C184.939 39.7109 184.225 39.7812 183.305 39.7812H179.631ZM182.039 33.9805H182.962C183.354 33.9805 183.656 33.8838 183.867 33.6904C184.084 33.4912 184.192 33.2715 184.192 33.0312C184.192 32.6738 184.09 32.3955 183.885 32.1963C183.68 31.9971 183.437 31.8975 183.155 31.8975L182.848 31.9062H182.039V33.9805ZM182.039 37.9355H183.243C183.712 37.9355 184.04 37.8271 184.228 37.6104C184.421 37.3877 184.518 37.1709 184.518 36.96C184.518 36.6494 184.409 36.3652 184.192 36.1074C183.981 35.8496 183.598 35.7207 183.041 35.7207H182.039V37.9355Z" fill="black"/>
<path d="M191.663 33.6641H192.375C193.377 33.6641 194.145 33.7432 194.678 33.9014C195.217 34.0537 195.671 34.376 196.04 34.8682C196.409 35.3604 196.594 35.9785 196.594 36.7227C196.594 37.4609 196.427 38.0762 196.093 38.5684C195.759 39.0547 195.331 39.3799 194.81 39.5439C194.294 39.7021 193.567 39.7812 192.63 39.7812H189.255V30.2188H191.663V33.6641ZM191.663 37.9355H192.393C192.826 37.9355 193.14 37.9062 193.333 37.8477C193.526 37.7832 193.696 37.6631 193.843 37.4873C193.989 37.3115 194.062 37.0977 194.062 36.8457C194.062 36.0254 193.594 35.6152 192.656 35.6152H191.663V37.9355ZM198.264 30.2188H200.663V39.7812H198.264V30.2188Z" fill="black"/>
<path d="M204.363 39.7812H203.089V30.2188H205.427V35.835L210.322 30.2188H211.474V39.7812H209.136V34.2793L204.363 39.7812ZM203.792 26H205.734C205.887 26.2402 206.098 26.4219 206.367 26.5449C206.643 26.6621 206.977 26.7207 207.369 26.7207C207.768 26.7207 208.128 26.6504 208.45 26.5098C208.661 26.416 208.846 26.2461 209.004 26H210.946C210.835 26.7441 210.478 27.3418 209.874 27.793C209.276 28.2441 208.438 28.4697 207.36 28.4697C206.634 28.4697 206.024 28.3701 205.532 28.1709C205.046 27.9658 204.653 27.6758 204.354 27.3008C204.056 26.9258 203.868 26.4922 203.792 26Z" fill="black"/>
<path d="M220.192 39.7812V41.4424H218.057V37.751H219.498L222.794 30.2188H224.341L227.681 37.751H229.148V41.4424H226.863V39.7812H220.192ZM225.132 37.751L223.567 33.7256L221.95 37.751H225.132Z" fill="black"/>
<path d="M233.06 30.2188V31.2734C233.493 30.8398 233.962 30.5146 234.466 30.2979C234.97 30.0811 235.509 29.9727 236.083 29.9727C237.331 29.9727 238.392 30.4443 239.265 31.3877C240.138 32.3311 240.574 33.541 240.574 35.0176C240.574 36.4414 240.123 37.6338 239.221 38.5947C238.318 39.5498 237.249 40.0273 236.013 40.0273C235.462 40.0273 234.949 39.9307 234.475 39.7373C234 39.5381 233.528 39.2158 233.06 38.7705V43.2793H230.678V30.2188H233.06ZM235.582 32.1875C234.826 32.1875 234.199 32.4453 233.701 32.9609C233.203 33.4766 232.954 34.1504 232.954 34.9824C232.954 35.832 233.203 36.5205 233.701 37.0479C234.199 37.5693 234.826 37.8301 235.582 37.8301C236.314 37.8301 236.93 37.5635 237.428 37.0303C237.932 36.4971 238.184 35.8174 238.184 34.9912C238.184 34.1709 237.938 33.5 237.445 32.9785C236.953 32.4512 236.332 32.1875 235.582 32.1875Z" fill="black"/>
<path d="M241.497 30.2188H243.949L246.437 36.2217L249.179 30.2188H251.64L245.646 43.2793H243.167L245.136 39.0693L241.497 30.2188Z" fill="black"/>
<path d="M252.993 30.2188H258.574V32.5039H255.401V39.7812H252.993V30.2188Z" fill="black"/>
<path d="M260.297 26.5273H262.723V35.9756H260.297V26.5273ZM261.51 37.0215C261.926 37.0215 262.28 37.168 262.573 37.4609C262.872 37.7539 263.021 38.1084 263.021 38.5244C263.021 38.9346 262.872 39.2891 262.573 39.5879C262.28 39.8809 261.926 40.0273 261.51 40.0273C261.094 40.0273 260.739 39.8809 260.446 39.5879C260.153 39.2949 260.007 38.9404 260.007 38.5244C260.007 38.1084 260.153 37.7539 260.446 37.4609C260.739 37.168 261.094 37.0215 261.51 37.0215Z" fill="black"/>
<path d="M27.8262 61.7812L24.249 52.2803L20.6104 61.7812H18L22.9834 48.8525H25.4795L30.4541 61.7812H27.8262Z" fill="black"/>
<path d="M32.959 61.7812H31.6846V52.2188H34.0225V57.835L38.918 52.2188H40.0693V61.7812H37.7314V56.2793L32.959 61.7812Z" fill="black"/>
<path d="M51.8643 54.1523L49.8691 55.251C49.4941 54.8584 49.1221 54.5859 48.7529 54.4336C48.3896 54.2812 47.9619 54.2051 47.4697 54.2051C46.5732 54.2051 45.8467 54.4746 45.29 55.0137C44.7393 55.5469 44.4639 56.2324 44.4639 57.0703C44.4639 57.8848 44.7305 58.5498 45.2637 59.0654C45.7969 59.5811 46.4971 59.8389 47.3643 59.8389C48.4365 59.8389 49.2715 59.4727 49.8691 58.7402L51.7588 60.0322C50.7334 61.3623 49.2861 62.0273 47.417 62.0273C45.7354 62.0273 44.417 61.5293 43.4619 60.5332C42.5127 59.5371 42.0381 58.3711 42.0381 57.0352C42.0381 56.1094 42.2695 55.2568 42.7324 54.4775C43.1953 53.6982 43.8398 53.0859 44.666 52.6406C45.498 52.1953 46.4268 51.9727 47.4521 51.9727C48.4014 51.9727 49.2539 52.1631 50.0098 52.5439C50.7656 52.9189 51.3838 53.4551 51.8643 54.1523Z" fill="black"/>
<path d="M53.1826 52.2188H62.0947V54.5039H58.9219V61.7812H56.5137V54.5039H53.1826V52.2188Z" fill="black"/>
<path d="M70.7344 52.2188H73.125V61.7812H70.7344V60.7705C70.2656 61.2158 69.7939 61.5381 69.3193 61.7373C68.8506 61.9307 68.3408 62.0273 67.79 62.0273C66.5537 62.0273 65.4844 61.5498 64.582 60.5947C63.6797 59.6338 63.2285 58.4414 63.2285 57.0176C63.2285 55.541 63.665 54.3311 64.5381 53.3877C65.4111 52.4443 66.4717 51.9727 67.7197 51.9727C68.2939 51.9727 68.833 52.0811 69.3369 52.2979C69.8408 52.5146 70.3066 52.8398 70.7344 53.2734V52.2188ZM68.2119 54.1875C67.4678 54.1875 66.8496 54.4512 66.3574 54.9785C65.8652 55.5 65.6191 56.1709 65.6191 56.9912C65.6191 57.8174 65.8682 58.4971 66.3662 59.0303C66.8701 59.5635 67.4883 59.8301 68.2207 59.8301C68.9766 59.8301 69.6035 59.5693 70.1016 59.0479C70.5996 58.5205 70.8486 57.832 70.8486 56.9824C70.8486 56.1504 70.5996 55.4766 70.1016 54.9609C69.6035 54.4453 68.9736 54.1875 68.2119 54.1875Z" fill="black"/>
<path d="M76.8164 61.7812H75.542V52.2188H77.8799V57.835L82.7754 52.2188H83.9268V61.7812H81.5889V56.2793L76.8164 61.7812ZM76.2451 48H78.1875C78.3398 48.2402 78.5508 48.4219 78.8203 48.5449C79.0957 48.6621 79.4297 48.7207 79.8223 48.7207C80.2207 48.7207 80.5811 48.6504 80.9033 48.5098C81.1143 48.416 81.2988 48.2461 81.457 48H83.3994C83.2881 48.7441 82.9307 49.3418 82.3271 49.793C81.7295 50.2441 80.8916 50.4697 79.8135 50.4697C79.0869 50.4697 78.4775 50.3701 77.9854 50.1709C77.499 49.9658 77.1064 49.6758 76.8076 49.3008C76.5088 48.9258 76.3213 48.4922 76.2451 48Z" fill="black"/>
<path d="M91.4062 61.7812V52.2188H95.2471C96.5068 52.2188 97.3623 52.4678 97.8135 52.9658C98.2646 53.458 98.4902 54.0176 98.4902 54.6445C98.4902 55.5762 98.0273 56.2471 97.1016 56.6572C98.3672 57.0908 99 57.9082 99 59.1094C99 59.7598 98.833 60.2988 98.499 60.7266C98.165 61.1484 97.7402 61.4297 97.2246 61.5703C96.7148 61.7109 96 61.7812 95.0801 61.7812H91.4062ZM93.8145 55.9805H94.7373C95.1299 55.9805 95.4316 55.8838 95.6426 55.6904C95.8594 55.4912 95.9678 55.2715 95.9678 55.0312C95.9678 54.6738 95.8652 54.3955 95.6602 54.1963C95.4551 53.9971 95.2119 53.8975 94.9307 53.8975L94.623 53.9062H93.8145V55.9805ZM93.8145 59.9355H95.0186C95.4873 59.9355 95.8154 59.8271 96.0029 59.6104C96.1963 59.3877 96.293 59.1709 96.293 58.96C96.293 58.6494 96.1846 58.3652 95.9678 58.1074C95.7568 57.8496 95.373 57.7207 94.8164 57.7207H93.8145V59.9355Z" fill="black"/>
<path d="M103.438 55.6641H107.007V52.2188H109.415V61.7812H107.007V57.8174H103.438V61.7812H101.03V52.2188H103.438V55.6641Z" fill="black"/>
<path d="M113.115 61.7812H111.841V52.2188H114.179V57.835L119.074 52.2188H120.226V61.7812H117.888V56.2793L113.115 61.7812Z" fill="black"/>
<path d="M124.26 57.7295V56.0156H124.734C125.057 56.0156 125.338 55.9395 125.578 55.7871C125.818 55.6348 125.938 55.3887 125.938 55.0488C125.938 54.7559 125.83 54.5156 125.613 54.3281C125.402 54.1348 125.142 54.0381 124.831 54.0381C124.438 54.0381 123.946 54.2285 123.354 54.6094L122.405 52.957C123.231 52.3008 124.151 51.9727 125.165 51.9727C126.097 51.9727 126.867 52.2158 127.477 52.7021C128.092 53.1826 128.399 53.833 128.399 54.6533C128.399 55.4854 127.954 56.1592 127.063 56.6748C128.253 57.1143 128.848 57.9082 128.848 59.0566C128.848 59.9121 128.514 60.6211 127.846 61.1836C127.178 61.7461 126.255 62.0273 125.077 62.0273C123.782 62.0273 122.713 61.6641 121.869 60.9375L123.196 59.2676C123.765 59.6895 124.304 59.9004 124.813 59.9004C125.224 59.9004 125.549 59.8037 125.789 59.6104C126.029 59.4111 126.149 59.1562 126.149 58.8457C126.149 58.5469 126.035 58.2861 125.807 58.0635C125.584 57.8408 125.276 57.7295 124.884 57.7295H124.26Z" fill="black"/>
<path d="M137.074 61.7812H135.8V52.2188H138.138V57.835L143.033 52.2188H144.185V61.7812H141.847V56.2793L137.074 61.7812Z" fill="black"/>
<path d="M154.063 55.6641H157.632V52.2188H160.04V61.7812H157.632V57.8174H154.063V61.7812H151.655V52.2188H154.063V55.6641Z" fill="black"/>
<path d="M169.541 52.2188H171.932V61.7812H169.541V60.7705C169.072 61.2158 168.601 61.5381 168.126 61.7373C167.657 61.9307 167.147 62.0273 166.597 62.0273C165.36 62.0273 164.291 61.5498 163.389 60.5947C162.486 59.6338 162.035 58.4414 162.035 57.0176C162.035 55.541 162.472 54.3311 163.345 53.3877C164.218 52.4443 165.278 51.9727 166.526 51.9727C167.101 51.9727 167.64 52.0811 168.144 52.2979C168.647 52.5146 169.113 52.8398 169.541 53.2734V52.2188ZM167.019 54.1875C166.274 54.1875 165.656 54.4512 165.164 54.9785C164.672 55.5 164.426 56.1709 164.426 56.9912C164.426 57.8174 164.675 58.4971 165.173 59.0303C165.677 59.5635 166.295 59.8301 167.027 59.8301C167.783 59.8301 168.41 59.5693 168.908 59.0479C169.406 58.5205 169.655 57.832 169.655 56.9824C169.655 56.1504 169.406 55.4766 168.908 54.9609C168.41 54.4453 167.78 54.1875 167.019 54.1875Z" fill="black"/>
<path d="M179.2 58.7051L178.945 58.4062L176.098 61.7812H172.916L177.231 56.877L172.969 52.2188H175.896L179.2 55.7959V52.2188H181.6V55.7959L184.896 52.2188H187.831L183.568 56.877L187.884 61.7812H184.702L181.854 58.4062L181.6 58.7051V61.7812H179.2V58.7051Z" fill="black"/>
<path d="M190.143 61.7812H188.868V52.2188H191.206V57.835L196.102 52.2188H197.253V61.7812H194.915V56.2793L190.143 61.7812Z" fill="black"/>
<path d="M205.541 58.248L208.477 52.2188H210.059L212.449 61.7812H210.103L208.828 56.1738L205.98 61.7812H204.996L202.21 56.1738L200.927 61.7812H198.589L200.979 52.2188H202.562L205.541 58.248Z" fill="black"/>
<path d="M220.852 52.2188H223.242V61.7812H220.852V60.7705C220.383 61.2158 219.911 61.5381 219.437 61.7373C218.968 61.9307 218.458 62.0273 217.907 62.0273C216.671 62.0273 215.602 61.5498 214.699 60.5947C213.797 59.6338 213.346 58.4414 213.346 57.0176C213.346 55.541 213.782 54.3311 214.655 53.3877C215.528 52.4443 216.589 51.9727 217.837 51.9727C218.411 51.9727 218.95 52.0811 219.454 52.2979C219.958 52.5146 220.424 52.8398 220.852 53.2734V52.2188ZM218.329 54.1875C217.585 54.1875 216.967 54.4512 216.475 54.9785C215.982 55.5 215.736 56.1709 215.736 56.9912C215.736 57.8174 215.985 58.4971 216.483 59.0303C216.987 59.5635 217.605 59.8301 218.338 59.8301C219.094 59.8301 219.721 59.5693 220.219 59.0479C220.717 58.5205 220.966 57.832 220.966 56.9824C220.966 56.1504 220.717 55.4766 220.219 54.9609C219.721 54.4453 219.091 54.1875 218.329 54.1875Z" fill="black"/>
<path d="M226.934 61.7812H225.659V52.2188H227.997V57.835L232.893 52.2188H234.044V61.7812H231.706V56.2793L226.934 61.7812ZM226.362 48H228.305C228.457 48.2402 228.668 48.4219 228.938 48.5449C229.213 48.6621 229.547 48.7207 229.939 48.7207C230.338 48.7207 230.698 48.6504 231.021 48.5098C231.231 48.416 231.416 48.2461 231.574 48H233.517C233.405 48.7441 233.048 49.3418 232.444 49.793C231.847 50.2441 231.009 50.4697 229.931 50.4697C229.204 50.4697 228.595 50.3701 228.103 50.1709C227.616 49.9658 227.224 49.6758 226.925 49.3008C226.626 48.9258 226.438 48.4922 226.362 48Z" fill="black"/>
<path d="M243.923 55.6641H247.491V52.2188H249.899V61.7812H247.491V57.8174H243.923V61.7812H241.515V52.2188H243.923V55.6641Z" fill="black"/>
<path d="M259.4 52.2188H261.791V61.7812H259.4V60.7705C258.932 61.2158 258.46 61.5381 257.985 61.7373C257.517 61.9307 257.007 62.0273 256.456 62.0273C255.22 62.0273 254.15 61.5498 253.248 60.5947C252.346 59.6338 251.895 58.4414 251.895 57.0176C251.895 55.541 252.331 54.3311 253.204 53.3877C254.077 52.4443 255.138 51.9727 256.386 51.9727C256.96 51.9727 257.499 52.0811 258.003 52.2979C258.507 52.5146 258.973 52.8398 259.4 53.2734V52.2188ZM256.878 54.1875C256.134 54.1875 255.516 54.4512 255.023 54.9785C254.531 55.5 254.285 56.1709 254.285 56.9912C254.285 57.8174 254.534 58.4971 255.032 59.0303C255.536 59.5635 256.154 59.8301 256.887 59.8301C257.643 59.8301 258.27 59.5693 258.768 59.0479C259.266 58.5205 259.515 57.832 259.515 56.9824C259.515 56.1504 259.266 55.4766 258.768 54.9609C258.27 54.4453 257.64 54.1875 256.878 54.1875Z" fill="black"/>
<path d="M269.262 61.7812V52.2188H273.103C274.362 52.2188 275.218 52.4678 275.669 52.9658C276.12 53.458 276.346 54.0176 276.346 54.6445C276.346 55.5762 275.883 56.2471 274.957 56.6572C276.223 57.0908 276.855 57.9082 276.855 59.1094C276.855 59.7598 276.688 60.2988 276.354 60.7266C276.021 61.1484 275.596 61.4297 275.08 61.5703C274.57 61.7109 273.855 61.7812 272.936 61.7812H269.262ZM271.67 55.9805H272.593C272.985 55.9805 273.287 55.8838 273.498 55.6904C273.715 55.4912 273.823 55.2715 273.823 55.0312C273.823 54.6738 273.721 54.3955 273.516 54.1963C273.311 53.9971 273.067 53.8975 272.786 53.8975L272.479 53.9062H271.67V55.9805ZM271.67 59.9355H272.874C273.343 59.9355 273.671 59.8271 273.858 59.6104C274.052 59.3877 274.148 59.1709 274.148 58.96C274.148 58.6494 274.04 58.3652 273.823 58.1074C273.612 57.8496 273.229 57.7207 272.672 57.7207H271.67V59.9355Z" fill="black"/>
<path d="M288.255 54.1523L286.26 55.251C285.885 54.8584 285.513 54.5859 285.144 54.4336C284.78 54.2812 284.353 54.2051 283.86 54.2051C282.964 54.2051 282.237 54.4746 281.681 55.0137C281.13 55.5469 280.854 56.2324 280.854 57.0703C280.854 57.8848 281.121 58.5498 281.654 59.0654C282.188 59.5811 282.888 59.8389 283.755 59.8389C284.827 59.8389 285.662 59.4727 286.26 58.7402L288.149 60.0322C287.124 61.3623 285.677 62.0273 283.808 62.0273C282.126 62.0273 280.808 61.5293 279.853 60.5332C278.903 59.5371 278.429 58.3711 278.429 57.0352C278.429 56.1094 278.66 55.2568 279.123 54.4775C279.586 53.6982 280.23 53.0859 281.057 52.6406C281.889 52.1953 282.817 51.9727 283.843 51.9727C284.792 51.9727 285.645 52.1631 286.4 52.5439C287.156 52.9189 287.774 53.4551 288.255 54.1523Z" fill="black"/>
<path d="M300.006 57.6943H292.298C292.409 58.374 292.705 58.916 293.186 59.3203C293.672 59.7188 294.29 59.918 295.04 59.918C295.937 59.918 296.707 59.6045 297.352 58.9775L299.373 59.9268C298.869 60.6416 298.266 61.1719 297.562 61.5176C296.859 61.8574 296.024 62.0273 295.058 62.0273C293.558 62.0273 292.336 61.5557 291.393 60.6123C290.449 59.6631 289.978 58.4766 289.978 57.0527C289.978 55.5938 290.446 54.3838 291.384 53.4229C292.327 52.4561 293.508 51.9727 294.926 51.9727C296.432 51.9727 297.656 52.4561 298.6 53.4229C299.543 54.3838 300.015 55.6553 300.015 57.2373L300.006 57.6943ZM297.598 55.8047C297.439 55.2715 297.126 54.8379 296.657 54.5039C296.194 54.1699 295.655 54.0029 295.04 54.0029C294.372 54.0029 293.786 54.1904 293.282 54.5654C292.966 54.7998 292.673 55.2129 292.403 55.8047H297.598Z" fill="black"/>
<path d="M303.108 59.3467L304.822 60.208L302.651 63.917L301.456 63.3457L303.108 59.3467Z" fill="black"/>
<path d="M24.3809 79.9844H22.4561C21.1553 79.9844 20.1533 79.7354 19.4502 79.2373C18.7529 78.7334 18.4043 77.9072 18.4043 76.7588V74.2188H20.8125V76.5742C20.8125 77.4121 21.3721 77.8311 22.4912 77.8311L23.4229 77.8223H24.3809V74.2188H26.7891V83.7812H24.3809V79.9844Z" fill="black"/>
<path d="M28.3623 74.2188H37.2744V76.5039H34.1016V83.7812H31.6934V76.5039H28.3623V74.2188Z" fill="black"/>
<path d="M43.3389 73.9727C44.2412 73.9727 45.0879 74.1982 45.8789 74.6494C46.6758 75.1006 47.2969 75.7129 47.7422 76.4863C48.1875 77.2598 48.4102 78.0947 48.4102 78.9912C48.4102 79.8936 48.1846 80.7373 47.7334 81.5225C47.2881 82.3076 46.6787 82.9229 45.9053 83.3682C45.1318 83.8076 44.2793 84.0273 43.3477 84.0273C41.9766 84.0273 40.8047 83.541 39.832 82.5684C38.8652 81.5898 38.3818 80.4033 38.3818 79.0088C38.3818 77.5146 38.9297 76.2695 40.0254 75.2734C40.9863 74.4062 42.0908 73.9727 43.3389 73.9727ZM43.374 76.2314C42.6299 76.2314 42.0088 76.4922 41.5107 77.0137C41.0186 77.5293 40.7725 78.1914 40.7725 79C40.7725 79.832 41.0156 80.5059 41.502 81.0215C41.9941 81.5371 42.6152 81.7949 43.3652 81.7949C44.1152 81.7949 44.7393 81.5342 45.2373 81.0127C45.7354 80.4912 45.9844 79.8203 45.9844 79C45.9844 78.1797 45.7383 77.5146 45.2461 77.0049C44.7598 76.4893 44.1357 76.2314 43.374 76.2314Z" fill="black"/>
<path d="M55.4238 83.7812V74.2188H59.2646C60.5244 74.2188 61.3799 74.4678 61.8311 74.9658C62.2822 75.458 62.5078 76.0176 62.5078 76.6445C62.5078 77.5762 62.0449 78.2471 61.1191 78.6572C62.3848 79.0908 63.0176 79.9082 63.0176 81.1094C63.0176 81.7598 62.8506 82.2988 62.5166 82.7266C62.1826 83.1484 61.7578 83.4297 61.2422 83.5703C60.7324 83.7109 60.0176 83.7812 59.0977 83.7812H55.4238ZM57.832 77.9805H58.7549C59.1475 77.9805 59.4492 77.8838 59.6602 77.6904C59.877 77.4912 59.9854 77.2715 59.9854 77.0312C59.9854 76.6738 59.8828 76.3955 59.6777 76.1963C59.4727 75.9971 59.2295 75.8975 58.9482 75.8975L58.6406 75.9062H57.832V77.9805ZM57.832 81.9355H59.0361C59.5049 81.9355 59.833 81.8271 60.0205 81.6104C60.2139 81.3877 60.3105 81.1709 60.3105 80.96C60.3105 80.6494 60.2021 80.3652 59.9854 80.1074C59.7744 79.8496 59.3906 79.7207 58.834 79.7207H57.832V81.9355Z" fill="black"/>
<path d="M66.3223 83.7812H65.0479V74.2188H67.3857V79.835L72.2812 74.2188H73.4326V83.7812H71.0947V78.2793L66.3223 83.7812Z" fill="black"/>
<path d="M77.1064 83.7812V85.4424H74.9707V81.751H76.4121L79.708 74.2188H81.2549L84.5947 81.751H86.0625V85.4424H83.7773V83.7812H77.1064ZM82.0459 81.751L80.4814 77.7256L78.8643 81.751H82.0459Z" fill="black"/>
<path d="M88.8574 83.7812H87.583V74.2188H89.9209V79.835L94.8164 74.2188H95.9678V83.7812H93.6299V78.2793L88.8574 83.7812Z" fill="black"/>
<path d="M112.192 83.7812H98.3936V74.2188H100.802V81.4785H104.089V74.2188H106.497V81.4785H109.793V74.2188H112.192V83.7812Z" fill="black"/>
<path d="M117.026 77.6641H117.738C118.74 77.6641 119.508 77.7432 120.041 77.9014C120.58 78.0537 121.034 78.376 121.403 78.8682C121.772 79.3604 121.957 79.9785 121.957 80.7227C121.957 81.4609 121.79 82.0762 121.456 82.5684C121.122 83.0547 120.694 83.3799 120.173 83.5439C119.657 83.7021 118.931 83.7812 117.993 83.7812H114.618V74.2188H117.026V77.6641ZM117.026 81.9355H117.756C118.189 81.9355 118.503 81.9062 118.696 81.8477C118.89 81.7832 119.06 81.6631 119.206 81.4873C119.353 81.3115 119.426 81.0977 119.426 80.8457C119.426 80.0254 118.957 79.6152 118.02 79.6152H117.026V81.9355Z" fill="black"/>
<path d="M124.954 81.3467L126.668 82.208L124.497 85.917L123.302 85.3457L124.954 81.3467Z" fill="black"/>
<path d="M139.078 79.9844H137.153C135.853 79.9844 134.851 79.7354 134.147 79.2373C133.45 78.7334 133.102 77.9072 133.102 76.7588V74.2188H135.51V76.5742C135.51 77.4121 136.069 77.8311 137.188 77.8311L138.12 77.8223H139.078V74.2188H141.486V83.7812H139.078V79.9844Z" fill="black"/>
<path d="M143.06 74.2188H151.972V76.5039H148.799V83.7812H146.391V76.5039H143.06V74.2188Z" fill="black"/>
<path d="M158.036 73.9727C158.938 73.9727 159.785 74.1982 160.576 74.6494C161.373 75.1006 161.994 75.7129 162.439 76.4863C162.885 77.2598 163.107 78.0947 163.107 78.9912C163.107 79.8936 162.882 80.7373 162.431 81.5225C161.985 82.3076 161.376 82.9229 160.603 83.3682C159.829 83.8076 158.977 84.0273 158.045 84.0273C156.674 84.0273 155.502 83.541 154.529 82.5684C153.562 81.5898 153.079 80.4033 153.079 79.0088C153.079 77.5146 153.627 76.2695 154.723 75.2734C155.684 74.4062 156.788 73.9727 158.036 73.9727ZM158.071 76.2314C157.327 76.2314 156.706 76.4922 156.208 77.0137C155.716 77.5293 155.47 78.1914 155.47 79C155.47 79.832 155.713 80.5059 156.199 81.0215C156.691 81.5371 157.312 81.7949 158.062 81.7949C158.812 81.7949 159.437 81.5342 159.935 81.0127C160.433 80.4912 160.682 79.8203 160.682 79C160.682 78.1797 160.436 77.5146 159.943 77.0049C159.457 76.4893 158.833 76.2314 158.071 76.2314Z" fill="black"/>
<path d="M174.217 70.3252V72.5928C173.531 72.6689 172.866 72.71 172.222 72.7158C171.05 72.7275 170.168 72.7803 169.576 72.874C168.984 72.9619 168.463 73.1729 168.012 73.5068C167.561 73.835 167.241 74.2158 167.054 74.6494C166.866 75.0771 166.752 75.6953 166.711 76.5039C167.402 74.8457 168.589 74.0166 170.271 74.0166C171.507 74.0166 172.576 74.4707 173.479 75.3789C174.387 76.2812 174.841 77.4473 174.841 78.877C174.841 80.3535 174.354 81.5811 173.382 82.5596C172.409 83.5381 171.208 84.0273 169.778 84.0273C168.612 84.0273 167.584 83.6699 166.693 82.9551C165.809 82.2402 165.24 81.3906 164.988 80.4062C164.736 79.416 164.61 78.3613 164.61 77.2422C164.61 75.8066 164.789 74.6406 165.146 73.7441C165.504 72.8418 165.973 72.165 166.553 71.7139C167.139 71.2627 167.815 70.9609 168.583 70.8086C169.351 70.6562 170.479 70.5479 171.967 70.4834C172.975 70.4365 173.725 70.3838 174.217 70.3252ZM172.415 79C172.415 78.2031 172.175 77.5439 171.694 77.0225C171.22 76.4951 170.59 76.2314 169.805 76.2314C169.055 76.2314 168.434 76.4951 167.941 77.0225C167.449 77.5498 167.203 78.209 167.203 79C167.203 79.832 167.446 80.5059 167.933 81.0215C168.425 81.5312 169.046 81.7861 169.796 81.7861C170.534 81.7861 171.155 81.5312 171.659 81.0215C172.163 80.5059 172.415 79.832 172.415 79Z" fill="black"/>
<path d="M179.218 77.6641H179.93C180.932 77.6641 181.699 77.7432 182.232 77.9014C182.771 78.0537 183.226 78.376 183.595 78.8682C183.964 79.3604 184.148 79.9785 184.148 80.7227C184.148 81.4609 183.981 82.0762 183.647 82.5684C183.313 83.0547 182.886 83.3799 182.364 83.5439C181.849 83.7021 181.122 83.7812 180.185 83.7812H176.81V74.2188H179.218V77.6641ZM179.218 81.9355H179.947C180.381 81.9355 180.694 81.9062 180.888 81.8477C181.081 81.7832 181.251 81.6631 181.397 81.4873C181.544 81.3115 181.617 81.0977 181.617 80.8457C181.617 80.0254 181.148 79.6152 180.211 79.6152H179.218V81.9355ZM185.818 74.2188H188.218V83.7812H185.818V74.2188Z" fill="black"/>
<path d="M195.697 83.7812V74.2188H199.538C200.798 74.2188 201.653 74.4678 202.104 74.9658C202.556 75.458 202.781 76.0176 202.781 76.6445C202.781 77.5762 202.318 78.2471 201.393 78.6572C202.658 79.0908 203.291 79.9082 203.291 81.1094C203.291 81.7598 203.124 82.2988 202.79 82.7266C202.456 83.1484 202.031 83.4297 201.516 83.5703C201.006 83.7109 200.291 83.7812 199.371 83.7812H195.697ZM198.105 77.9805H199.028C199.421 77.9805 199.723 77.8838 199.934 77.6904C200.15 77.4912 200.259 77.2715 200.259 77.0312C200.259 76.6738 200.156 76.3955 199.951 76.1963C199.746 75.9971 199.503 75.8975 199.222 75.8975L198.914 75.9062H198.105V77.9805ZM198.105 81.9355H199.31C199.778 81.9355 200.106 81.8271 200.294 81.6104C200.487 81.3877 200.584 81.1709 200.584 80.96C200.584 80.6494 200.476 80.3652 200.259 80.1074C200.048 79.8496 199.664 79.7207 199.107 79.7207H198.105V81.9355Z" fill="black"/>
<path d="M207.729 77.6641H208.441C209.443 77.6641 210.211 77.7432 210.744 77.9014C211.283 78.0537 211.737 78.376 212.106 78.8682C212.476 79.3604 212.66 79.9785 212.66 80.7227C212.66 81.4609 212.493 82.0762 212.159 82.5684C211.825 83.0547 211.397 83.3799 210.876 83.5439C210.36 83.7021 209.634 83.7812 208.696 83.7812H205.321V74.2188H207.729V77.6641ZM207.729 81.9355H208.459C208.893 81.9355 209.206 81.9062 209.399 81.8477C209.593 81.7832 209.763 81.6631 209.909 81.4873C210.056 81.3115 210.129 81.0977 210.129 80.8457C210.129 80.0254 209.66 79.6152 208.723 79.6152H207.729V81.9355ZM214.33 74.2188H216.729V83.7812H214.33V74.2188Z" fill="black"/>
<path d="M228.305 70.3252V72.5928C227.619 72.6689 226.954 72.71 226.31 72.7158C225.138 72.7275 224.256 72.7803 223.664 72.874C223.072 72.9619 222.551 73.1729 222.1 73.5068C221.648 73.835 221.329 74.2158 221.142 74.6494C220.954 75.0771 220.84 75.6953 220.799 76.5039C221.49 74.8457 222.677 74.0166 224.358 74.0166C225.595 74.0166 226.664 74.4707 227.566 75.3789C228.475 76.2812 228.929 77.4473 228.929 78.877C228.929 80.3535 228.442 81.5811 227.47 82.5596C226.497 83.5381 225.296 84.0273 223.866 84.0273C222.7 84.0273 221.672 83.6699 220.781 82.9551C219.896 82.2402 219.328 81.3906 219.076 80.4062C218.824 79.416 218.698 78.3613 218.698 77.2422C218.698 75.8066 218.877 74.6406 219.234 73.7441C219.592 72.8418 220.061 72.165 220.641 71.7139C221.227 71.2627 221.903 70.9609 222.671 70.8086C223.438 70.6562 224.566 70.5479 226.055 70.4834C227.062 70.4365 227.812 70.3838 228.305 70.3252ZM226.503 79C226.503 78.2031 226.263 77.5439 225.782 77.0225C225.308 76.4951 224.678 76.2314 223.893 76.2314C223.143 76.2314 222.521 76.4951 222.029 77.0225C221.537 77.5498 221.291 78.209 221.291 79C221.291 79.832 221.534 80.5059 222.021 81.0215C222.513 81.5312 223.134 81.7861 223.884 81.7861C224.622 81.7861 225.243 81.5312 225.747 81.0215C226.251 80.5059 226.503 79.832 226.503 79Z" fill="black"/>
<path d="M233.288 74.2188V75.2734C233.722 74.8398 234.19 74.5146 234.694 74.2979C235.198 74.0811 235.737 73.9727 236.312 73.9727C237.56 73.9727 238.62 74.4443 239.493 75.3877C240.366 76.3311 240.803 77.541 240.803 79.0176C240.803 80.4414 240.352 81.6338 239.449 82.5947C238.547 83.5498 237.478 84.0273 236.241 84.0273C235.69 84.0273 235.178 83.9307 234.703 83.7373C234.229 83.5381 233.757 83.2158 233.288 82.7705V87.2793H230.906V74.2188H233.288ZM235.811 76.1875C235.055 76.1875 234.428 76.4453 233.93 76.9609C233.432 77.4766 233.183 78.1504 233.183 78.9824C233.183 79.832 233.432 80.5205 233.93 81.0479C234.428 81.5693 235.055 81.8301 235.811 81.8301C236.543 81.8301 237.158 81.5635 237.656 81.0303C238.16 80.4971 238.412 79.8174 238.412 78.9912C238.412 78.1709 238.166 77.5 237.674 76.9785C237.182 76.4512 236.561 76.1875 235.811 76.1875Z" fill="black"/>
<path d="M249.855 74.2188H252.246V83.7812H249.855V82.7705C249.387 83.2158 248.915 83.5381 248.44 83.7373C247.972 83.9307 247.462 84.0273 246.911 84.0273C245.675 84.0273 244.605 83.5498 243.703 82.5947C242.801 81.6338 242.35 80.4414 242.35 79.0176C242.35 77.541 242.786 76.3311 243.659 75.3877C244.532 74.4443 245.593 73.9727 246.841 73.9727C247.415 73.9727 247.954 74.0811 248.458 74.2979C248.962 74.5146 249.428 74.8398 249.855 75.2734V74.2188ZM247.333 76.1875C246.589 76.1875 245.971 76.4512 245.479 76.9785C244.986 77.5 244.74 78.1709 244.74 78.9912C244.74 79.8174 244.989 80.4971 245.487 81.0303C245.991 81.5635 246.609 81.8301 247.342 81.8301C248.098 81.8301 248.725 81.5693 249.223 81.0479C249.721 80.5205 249.97 79.832 249.97 78.9824C249.97 78.1504 249.721 77.4766 249.223 76.9609C248.725 76.4453 248.095 76.1875 247.333 76.1875Z" fill="black"/>
<path d="M253.819 74.2188H262.731V76.5039H259.559V83.7812H257.15V76.5039H253.819V74.2188Z" fill="black"/>
<path d="M266.704 77.6641H267.416C268.418 77.6641 269.186 77.7432 269.719 77.9014C270.258 78.0537 270.712 78.376 271.081 78.8682C271.45 79.3604 271.635 79.9785 271.635 80.7227C271.635 81.4609 271.468 82.0762 271.134 82.5684C270.8 83.0547 270.372 83.3799 269.851 83.5439C269.335 83.7021 268.608 83.7812 267.671 83.7812H264.296V74.2188H266.704V77.6641ZM266.704 81.9355H267.434C267.867 81.9355 268.181 81.9062 268.374 81.8477C268.567 81.7832 268.737 81.6631 268.884 81.4873C269.03 81.3115 269.104 81.0977 269.104 80.8457C269.104 80.0254 268.635 79.6152 267.697 79.6152H266.704V81.9355Z" fill="black"/>
<path d="M274.632 81.3467L276.346 82.208L274.175 85.917L272.979 85.3457L274.632 81.3467Z" fill="black"/>
<path d="M19.1953 96.2188H21.5947V99.7959L24.8994 96.2188H27.8262L23.5635 100.877L27.8789 105.781H24.6973L21.8496 102.406L21.5947 102.705V105.781H19.1953V96.2188Z" fill="black"/>
<path d="M35.9297 96.2188H38.3203V105.781H35.9297V104.771C35.4609 105.216 34.9893 105.538 34.5146 105.737C34.0459 105.931 33.5361 106.027 32.9854 106.027C31.749 106.027 30.6797 105.55 29.7773 104.595C28.875 103.634 28.4238 102.441 28.4238 101.018C28.4238 99.541 28.8604 98.3311 29.7334 97.3877C30.6064 96.4443 31.667 95.9727 32.915 95.9727C33.4893 95.9727 34.0283 96.0811 34.5322 96.2979C35.0361 96.5146 35.502 96.8398 35.9297 97.2734V96.2188ZM33.4072 98.1875C32.6631 98.1875 32.0449 98.4512 31.5527 98.9785C31.0605 99.5 30.8145 100.171 30.8145 100.991C30.8145 101.817 31.0635 102.497 31.5615 103.03C32.0654 103.563 32.6836 103.83 33.416 103.83C34.1719 103.83 34.7988 103.569 35.2969 103.048C35.7949 102.521 36.0439 101.832 36.0439 100.982C36.0439 100.15 35.7949 99.4766 35.2969 98.9609C34.7988 98.4453 34.1689 98.1875 33.4072 98.1875Z" fill="black"/>
<path d="M40.7461 96.2188H43.1455V99.7959L46.4502 96.2188H49.377L45.1143 100.877L49.4297 105.781H46.248L43.4004 102.406L43.1455 102.705V105.781H40.7461V96.2188Z" fill="black"/>
<path d="M57.085 101.861C56.5693 101.691 56.1445 101.372 55.8105 100.903C55.4824 100.429 55.3184 99.8955 55.3184 99.3037C55.3184 98.5947 55.5205 97.9736 55.9248 97.4404C56.3291 96.9072 56.8096 96.5703 57.3662 96.4297C57.9287 96.2891 58.8047 96.2188 59.9941 96.2188H62.4199V105.781H60.0117V102.318H59.5459L57.2695 105.781H54.4307L57.085 101.861ZM60.0117 100.517V98.2227H59.1768C58.2686 98.2227 57.8145 98.6035 57.8145 99.3652C57.8145 100.133 58.3213 100.517 59.335 100.517H60.0117Z" fill="black"/>
<path d="M79.0312 92.3252V94.5928C78.3457 94.6689 77.6807 94.71 77.0361 94.7158C75.8643 94.7275 74.9824 94.7803 74.3906 94.874C73.7988 94.9619 73.2773 95.1729 72.8262 95.5068C72.375 95.835 72.0557 96.2158 71.8682 96.6494C71.6807 97.0771 71.5664 97.6953 71.5254 98.5039C72.2168 96.8457 73.4033 96.0166 75.085 96.0166C76.3213 96.0166 77.3906 96.4707 78.293 97.3789C79.2012 98.2812 79.6553 99.4473 79.6553 100.877C79.6553 102.354 79.1689 103.581 78.1963 104.56C77.2236 105.538 76.0225 106.027 74.5928 106.027C73.4268 106.027 72.3984 105.67 71.5078 104.955C70.623 104.24 70.0547 103.391 69.8027 102.406C69.5508 101.416 69.4248 100.361 69.4248 99.2422C69.4248 97.8066 69.6035 96.6406 69.9609 95.7441C70.3184 94.8418 70.7871 94.165 71.3672 93.7139C71.9531 93.2627 72.6299 92.9609 73.3975 92.8086C74.165 92.6562 75.293 92.5479 76.7812 92.4834C77.7891 92.4365 78.5391 92.3838 79.0312 92.3252ZM77.2295 101C77.2295 100.203 76.9893 99.5439 76.5088 99.0225C76.0342 98.4951 75.4043 98.2314 74.6191 98.2314C73.8691 98.2314 73.248 98.4951 72.7559 99.0225C72.2637 99.5498 72.0176 100.209 72.0176 101C72.0176 101.832 72.2607 102.506 72.7471 103.021C73.2393 103.531 73.8604 103.786 74.6104 103.786C75.3486 103.786 75.9697 103.531 76.4736 103.021C76.9775 102.506 77.2295 101.832 77.2295 101Z" fill="black"/>
<path d="M80.5693 96.2188H83.0215L85.5088 102.222L88.251 96.2188H90.7119L84.7178 109.279H82.2393L84.208 105.069L80.5693 96.2188Z" fill="black"/>
<path d="M93.3135 105.781V107.442H91.1777V103.751H92.6191L95.915 96.2188H97.4619L100.802 103.751H102.27V107.442H99.9844V105.781H93.3135ZM98.2529 103.751L96.6885 99.7256L95.0713 103.751H98.2529Z" fill="black"/>
<path d="M102.735 96.2188H105.188L107.675 102.222L110.417 96.2188H112.878L106.884 109.279H104.405L106.374 105.069L102.735 96.2188Z" fill="black"/>
<path d="M119.285 105.781V96.2188H123.126C124.386 96.2188 125.241 96.4678 125.692 96.9658C126.144 97.458 126.369 98.0176 126.369 98.6445C126.369 99.5762 125.906 100.247 124.98 100.657C126.246 101.091 126.879 101.908 126.879 103.109C126.879 103.76 126.712 104.299 126.378 104.727C126.044 105.148 125.619 105.43 125.104 105.57C124.594 105.711 123.879 105.781 122.959 105.781H119.285ZM121.693 99.9805H122.616C123.009 99.9805 123.311 99.8838 123.521 99.6904C123.738 99.4912 123.847 99.2715 123.847 99.0312C123.847 98.6738 123.744 98.3955 123.539 98.1963C123.334 97.9971 123.091 97.8975 122.81 97.8975L122.502 97.9062H121.693V99.9805ZM121.693 103.936H122.897C123.366 103.936 123.694 103.827 123.882 103.61C124.075 103.388 124.172 103.171 124.172 102.96C124.172 102.649 124.063 102.365 123.847 102.107C123.636 101.85 123.252 101.721 122.695 101.721H121.693V103.936Z" fill="black"/>
<path d="M131.317 99.6641H132.029C133.031 99.6641 133.799 99.7432 134.332 99.9014C134.871 100.054 135.325 100.376 135.694 100.868C136.063 101.36 136.248 101.979 136.248 102.723C136.248 103.461 136.081 104.076 135.747 104.568C135.413 105.055 134.985 105.38 134.464 105.544C133.948 105.702 133.222 105.781 132.284 105.781H128.909V96.2188H131.317V99.6641ZM131.317 103.936H132.047C132.48 103.936 132.794 103.906 132.987 103.848C133.181 103.783 133.351 103.663 133.497 103.487C133.644 103.312 133.717 103.098 133.717 102.846C133.717 102.025 133.248 101.615 132.311 101.615H131.317V103.936ZM137.918 96.2188H140.317V105.781H137.918V96.2188Z" fill="black"/>
<path d="M142.743 96.2188H148.324V98.5039H145.151V105.781H142.743V96.2188Z" fill="black"/>
<path d="M158.502 105.781H156.059L153.668 99.7432L151.233 105.781H148.799L152.877 96.2188H154.424L158.502 105.781Z" fill="black"/>
<path d="M161.394 101.861C160.878 101.691 160.453 101.372 160.119 100.903C159.791 100.429 159.627 99.8955 159.627 99.3037C159.627 98.5947 159.829 97.9736 160.233 97.4404C160.638 96.9072 161.118 96.5703 161.675 96.4297C162.237 96.2891 163.113 96.2188 164.303 96.2188H166.729V105.781H164.32V102.318H163.854L161.578 105.781H158.739L161.394 101.861ZM164.32 100.517V98.2227H163.485C162.577 98.2227 162.123 98.6035 162.123 99.3652C162.123 100.133 162.63 100.517 163.644 100.517H164.32Z" fill="black"/>
<path d="M170.394 105.781V107.442H168.258V103.751H169.699L172.995 96.2188H174.542L177.882 103.751H179.35V107.442H177.064V105.781H170.394ZM175.333 103.751L173.769 99.7256L172.151 103.751H175.333Z" fill="black"/>
<path d="M190.459 101.694H182.751C182.862 102.374 183.158 102.916 183.639 103.32C184.125 103.719 184.743 103.918 185.493 103.918C186.39 103.918 187.16 103.604 187.805 102.978L189.826 103.927C189.322 104.642 188.719 105.172 188.016 105.518C187.312 105.857 186.478 106.027 185.511 106.027C184.011 106.027 182.789 105.556 181.846 104.612C180.902 103.663 180.431 102.477 180.431 101.053C180.431 99.5938 180.899 98.3838 181.837 97.4229C182.78 96.4561 183.961 95.9727 185.379 95.9727C186.885 95.9727 188.109 96.4561 189.053 97.4229C189.996 98.3838 190.468 99.6553 190.468 101.237L190.459 101.694ZM188.051 99.8047C187.893 99.2715 187.579 98.8379 187.11 98.5039C186.647 98.1699 186.108 98.0029 185.493 98.0029C184.825 98.0029 184.239 98.1904 183.735 98.5654C183.419 98.7998 183.126 99.2129 182.856 99.8047H188.051Z" fill="black"/>
<path d="M191.558 96.2188H200.47V98.5039H197.297V105.781H194.889V98.5039H191.558V96.2188Z" fill="black"/>
<path d="M204.442 99.6641H205.154C206.156 99.6641 206.924 99.7432 207.457 99.9014C207.996 100.054 208.45 100.376 208.819 100.868C209.188 101.36 209.373 101.979 209.373 102.723C209.373 103.461 209.206 104.076 208.872 104.568C208.538 105.055 208.11 105.38 207.589 105.544C207.073 105.702 206.347 105.781 205.409 105.781H202.034V96.2188H204.442V99.6641ZM204.442 103.936H205.172C205.605 103.936 205.919 103.906 206.112 103.848C206.306 103.783 206.476 103.663 206.622 103.487C206.769 103.312 206.842 103.098 206.842 102.846C206.842 102.025 206.373 101.615 205.436 101.615H204.442V103.936Z" fill="black"/>
<path d="M211.307 92.5273H213.732V101.976H211.307V92.5273ZM212.52 103.021C212.936 103.021 213.29 103.168 213.583 103.461C213.882 103.754 214.031 104.108 214.031 104.524C214.031 104.935 213.882 105.289 213.583 105.588C213.29 105.881 212.936 106.027 212.52 106.027C212.104 106.027 211.749 105.881 211.456 105.588C211.163 105.295 211.017 104.94 211.017 104.524C211.017 104.108 211.163 103.754 211.456 103.461C211.749 103.168 212.104 103.021 212.52 103.021Z" fill="black"/>
</svg>
