<svg width="367" height="123" viewBox="0 0 367 123" fill="none" xmlns="http://www.w3.org/2000/svg">
<path fill-rule="evenodd" clip-rule="evenodd" d="M302.428 0H0V123H301.595H302.428H367L302.428 89.4272V0Z" fill="white"/>
<path d="M25.3047 25.5078H33.5781V37H31.3672V27.5547H27.5234V37H25.3047V25.5078ZM38.0859 28.5V29.4375C38.4714 29.0521 38.888 28.763 39.3359 28.5703C39.7839 28.3776 40.263 28.2812 40.7734 28.2812C41.8828 28.2812 42.8255 28.7005 43.6016 29.5391C44.3776 30.3776 44.7656 31.4531 44.7656 32.7656C44.7656 34.0312 44.3646 35.0911 43.5625 35.9453C42.7604 36.7943 41.8099 37.2188 40.7109 37.2188C40.2214 37.2188 39.7656 37.1328 39.3438 36.9609C38.9219 36.7839 38.5026 36.4974 38.0859 36.1016V40.1094H35.9688V28.5H38.0859ZM40.3281 30.25C39.6562 30.25 39.099 30.4792 38.6562 30.9375C38.2135 31.3958 37.9922 31.9948 37.9922 32.7344C37.9922 33.4896 38.2135 34.1016 38.6562 34.5703C39.099 35.0339 39.6562 35.2656 40.3281 35.2656C40.9792 35.2656 41.526 35.0286 41.9688 34.5547C42.4167 34.0807 42.6406 33.4766 42.6406 32.7422C42.6406 32.013 42.4219 31.4167 41.9844 30.9531C41.5469 30.4844 40.9948 30.25 40.3281 30.25ZM47.6562 37H46.5234V28.5H48.6016V33.4922L52.9531 28.5H53.9766V37H51.8984V32.1094L47.6562 37ZM56.1406 37V28.5H59.5547C60.6745 28.5 61.4349 28.7214 61.8359 29.1641C62.237 29.6016 62.4375 30.099 62.4375 30.6562C62.4375 31.4844 62.026 32.0807 61.2031 32.4453C62.3281 32.8307 62.8906 33.5573 62.8906 34.625C62.8906 35.2031 62.7422 35.6823 62.4453 36.0625C62.1484 36.4375 61.7708 36.6875 61.3125 36.8125C60.8594 36.9375 60.224 37 59.4062 37H56.1406ZM58.2812 31.8438H59.1016C59.4505 31.8438 59.7188 31.7578 59.9062 31.5859C60.099 31.4089 60.1953 31.2135 60.1953 31C60.1953 30.6823 60.1042 30.4349 59.9219 30.2578C59.7396 30.0807 59.5234 29.9922 59.2734 29.9922L59 30H58.2812V31.8438ZM58.2812 35.3594H59.3516C59.7682 35.3594 60.0599 35.263 60.2266 35.0703C60.3984 34.8724 60.4844 34.6797 60.4844 34.4922C60.4844 34.2161 60.388 33.9635 60.1953 33.7344C60.0078 33.5052 59.6667 33.3906 59.1719 33.3906H58.2812V35.3594ZM73.2188 33.3672H66.3672C66.4661 33.9714 66.7292 34.4531 67.1562 34.8125C67.5885 35.1667 68.138 35.3438 68.8047 35.3438C69.6016 35.3438 70.2865 35.0651 70.8594 34.5078L72.6562 35.3516C72.2083 35.987 71.6719 36.4583 71.0469 36.7656C70.4219 37.0677 69.6797 37.2188 68.8203 37.2188C67.487 37.2188 66.401 36.7995 65.5625 35.9609C64.724 35.1172 64.3047 34.0625 64.3047 32.7969C64.3047 31.5 64.7214 30.4245 65.5547 29.5703C66.3932 28.7109 67.4427 28.2812 68.7031 28.2812C70.0417 28.2812 71.1302 28.7109 71.9688 29.5703C72.8073 30.4245 73.2266 31.5547 73.2266 32.9609L73.2188 33.3672ZM71.0781 31.6875C70.9375 31.2135 70.6589 30.8281 70.2422 30.5312C69.8307 30.2344 69.3516 30.0859 68.8047 30.0859C68.2109 30.0859 67.6901 30.2526 67.2422 30.5859C66.9609 30.7943 66.7005 31.1615 66.4609 31.6875H71.0781ZM74.1953 28.5H82.1172V30.5312H79.2969V37H77.1562V30.5312H74.1953V28.5ZM83.5938 25.2188H85.75V33.6172H83.5938V25.2188ZM84.6719 34.5469C85.0417 34.5469 85.3568 34.6771 85.6172 34.9375C85.8828 35.1979 86.0156 35.513 86.0156 35.8828C86.0156 36.2474 85.8828 36.5625 85.6172 36.8281C85.3568 37.0885 85.0417 37.2188 84.6719 37.2188C84.3021 37.2188 83.987 37.0885 83.7266 36.8281C83.4661 36.5677 83.3359 36.2526 83.3359 35.8828C83.3359 35.513 83.4661 35.1979 83.7266 34.9375C83.987 34.6771 84.3021 34.5469 84.6719 34.5469ZM99.4922 25.5078V37H97.3047V32.375H96.7578L94.4453 37H92.0547L94.6562 32.0156C93.1458 31.5833 92.3906 30.5781 92.3906 29C92.3906 28.4375 92.4688 27.9479 92.625 27.5312C92.7865 27.1146 93.013 26.763 93.3047 26.4766C93.6016 26.1849 93.9427 25.9714 94.3281 25.8359C94.7188 25.6953 95.0286 25.6146 95.2578 25.5938C95.487 25.5729 96.125 25.5443 97.1719 25.5078H99.4922ZM97.3047 30.2422V27.6484H96.7031C96.1562 27.6484 95.763 27.6823 95.5234 27.75C95.2839 27.8125 95.0885 27.9531 94.9375 28.1719C94.7865 28.3854 94.7109 28.651 94.7109 28.9688C94.7109 29.4427 94.862 29.7734 95.1641 29.9609C95.4661 30.1484 95.9505 30.2422 96.6172 30.2422H97.3047ZM105.602 28.5H113.523V30.5312H110.703V37H108.562V30.5312H105.602V28.5ZM114.922 37V28.5H118.336C119.456 28.5 120.216 28.7214 120.617 29.1641C121.018 29.6016 121.219 30.099 121.219 30.6562C121.219 31.4844 120.807 32.0807 119.984 32.4453C121.109 32.8307 121.672 33.5573 121.672 34.625C121.672 35.2031 121.523 35.6823 121.227 36.0625C120.93 36.4375 120.552 36.6875 120.094 36.8125C119.641 36.9375 119.005 37 118.188 37H114.922ZM117.062 31.8438H117.883C118.232 31.8438 118.5 31.7578 118.688 31.5859C118.88 31.4089 118.977 31.2135 118.977 31C118.977 30.6823 118.885 30.4349 118.703 30.2578C118.521 30.0807 118.305 29.9922 118.055 29.9922L117.781 30H117.062V31.8438ZM117.062 35.3594H118.133C118.549 35.3594 118.841 35.263 119.008 35.0703C119.18 34.8724 119.266 34.6797 119.266 34.4922C119.266 34.2161 119.169 33.9635 118.977 33.7344C118.789 33.5052 118.448 33.3906 117.953 33.3906H117.062V35.3594ZM127.477 28.2812C128.279 28.2812 129.031 28.4818 129.734 28.8828C130.443 29.2839 130.995 29.8281 131.391 30.5156C131.786 31.2031 131.984 31.9453 131.984 32.7422C131.984 33.5443 131.784 34.2943 131.383 34.9922C130.987 35.6901 130.445 36.237 129.758 36.6328C129.07 37.0234 128.312 37.2188 127.484 37.2188C126.266 37.2188 125.224 36.7865 124.359 35.9219C123.5 35.0521 123.07 33.9974 123.07 32.7578C123.07 31.4297 123.557 30.3229 124.531 29.4375C125.385 28.6667 126.367 28.2812 127.477 28.2812ZM127.508 30.2891C126.846 30.2891 126.294 30.5208 125.852 30.9844C125.414 31.4427 125.195 32.0312 125.195 32.75C125.195 33.4896 125.411 34.0885 125.844 34.5469C126.281 35.0052 126.833 35.2344 127.5 35.2344C128.167 35.2344 128.721 35.0026 129.164 34.5391C129.607 34.0755 129.828 33.4792 129.828 32.75C129.828 32.0208 129.609 31.4297 129.172 30.9766C128.74 30.5182 128.185 30.2891 127.508 30.2891ZM134.859 37H133.727V28.5H135.805V33.4922L140.156 28.5H141.18V37H139.102V32.1094L134.859 37ZM134.352 24.75H136.078C136.214 24.9635 136.401 25.125 136.641 25.2344C136.885 25.3385 137.182 25.3906 137.531 25.3906C137.885 25.3906 138.206 25.3281 138.492 25.2031C138.68 25.1198 138.844 24.9688 138.984 24.75H140.711C140.612 25.4115 140.294 25.9427 139.758 26.3438C139.227 26.7448 138.482 26.9453 137.523 26.9453C136.878 26.9453 136.336 26.8568 135.898 26.6797C135.466 26.4974 135.117 26.2396 134.852 25.9062C134.586 25.5729 134.419 25.1875 134.352 24.75ZM149.961 31.5625H153.133V28.5H155.273V37H153.133V33.4766H149.961V37H147.82V28.5H149.961V31.5625ZM161.43 28.2812C162.232 28.2812 162.984 28.4818 163.688 28.8828C164.396 29.2839 164.948 29.8281 165.344 30.5156C165.74 31.2031 165.938 31.9453 165.938 32.7422C165.938 33.5443 165.737 34.2943 165.336 34.9922C164.94 35.6901 164.398 36.237 163.711 36.6328C163.023 37.0234 162.266 37.2188 161.438 37.2188C160.219 37.2188 159.177 36.7865 158.312 35.9219C157.453 35.0521 157.023 33.9974 157.023 32.7578C157.023 31.4297 157.51 30.3229 158.484 29.4375C159.339 28.6667 160.32 28.2812 161.43 28.2812ZM161.461 30.2891C160.799 30.2891 160.247 30.5208 159.805 30.9844C159.367 31.4427 159.148 32.0312 159.148 32.75C159.148 33.4896 159.365 34.0885 159.797 34.5469C160.234 35.0052 160.786 35.2344 161.453 35.2344C162.12 35.2344 162.674 35.0026 163.117 34.5391C163.56 34.0755 163.781 33.4792 163.781 32.75C163.781 32.0208 163.562 31.4297 163.125 30.9766C162.693 30.5182 162.138 30.2891 161.461 30.2891ZM167.688 37V28.5H171.102C172.221 28.5 172.982 28.7214 173.383 29.1641C173.784 29.6016 173.984 30.099 173.984 30.6562C173.984 31.4844 173.573 32.0807 172.75 32.4453C173.875 32.8307 174.438 33.5573 174.438 34.625C174.438 35.2031 174.289 35.6823 173.992 36.0625C173.695 36.4375 173.318 36.6875 172.859 36.8125C172.406 36.9375 171.771 37 170.953 37H167.688ZM169.828 31.8438H170.648C170.997 31.8438 171.266 31.7578 171.453 31.5859C171.646 31.4089 171.742 31.2135 171.742 31C171.742 30.6823 171.651 30.4349 171.469 30.2578C171.286 30.0807 171.07 29.9922 170.82 29.9922L170.547 30H169.828V31.8438ZM169.828 35.3594H170.898C171.315 35.3594 171.607 35.263 171.773 35.0703C171.945 34.8724 172.031 34.6797 172.031 34.4922C172.031 34.2161 171.935 33.9635 171.742 33.7344C171.555 33.5052 171.214 33.3906 170.719 33.3906H169.828V35.3594ZM178.383 31.5625H179.016C179.906 31.5625 180.589 31.6328 181.062 31.7734C181.542 31.9089 181.945 32.1953 182.273 32.6328C182.602 33.0703 182.766 33.6198 182.766 34.2812C182.766 34.9375 182.617 35.4844 182.32 35.9219C182.023 36.3542 181.643 36.6432 181.18 36.7891C180.721 36.9297 180.076 37 179.242 37H176.242V28.5H178.383V31.5625ZM178.383 35.3594H179.031C179.417 35.3594 179.695 35.3333 179.867 35.2812C180.039 35.224 180.19 35.1172 180.32 34.9609C180.451 34.8047 180.516 34.6146 180.516 34.3906C180.516 33.6615 180.099 33.2969 179.266 33.2969H178.383V35.3594ZM184.25 28.5H186.383V37H184.25V28.5ZM189.672 37H188.539V28.5H190.617V33.4922L194.969 28.5H195.992V37H193.914V32.1094L189.672 37ZM189.164 24.75H190.891C191.026 24.9635 191.214 25.125 191.453 25.2344C191.698 25.3385 191.995 25.3906 192.344 25.3906C192.698 25.3906 193.018 25.3281 193.305 25.2031C193.492 25.1198 193.656 24.9688 193.797 24.75H195.523C195.424 25.4115 195.107 25.9427 194.57 26.3438C194.039 26.7448 193.294 26.9453 192.336 26.9453C191.69 26.9453 191.148 26.8568 190.711 26.6797C190.279 26.4974 189.93 26.2396 189.664 25.9062C189.398 25.5729 189.232 25.1875 189.164 24.75ZM203.742 37V38.4766H201.844V35.1953H203.125L206.055 28.5H207.43L210.398 35.1953H211.703V38.4766H209.672V37H203.742ZM208.133 35.1953L206.742 31.6172L205.305 35.1953H208.133ZM215.18 28.5V29.4375C215.565 29.0521 215.982 28.763 216.43 28.5703C216.878 28.3776 217.357 28.2812 217.867 28.2812C218.977 28.2812 219.919 28.7005 220.695 29.5391C221.471 30.3776 221.859 31.4531 221.859 32.7656C221.859 34.0312 221.458 35.0911 220.656 35.9453C219.854 36.7943 218.904 37.2188 217.805 37.2188C217.315 37.2188 216.859 37.1328 216.438 36.9609C216.016 36.7839 215.596 36.4974 215.18 36.1016V40.1094H213.062V28.5H215.18ZM217.422 30.25C216.75 30.25 216.193 30.4792 215.75 30.9375C215.307 31.3958 215.086 31.9948 215.086 32.7344C215.086 33.4896 215.307 34.1016 215.75 34.5703C216.193 35.0339 216.75 35.2656 217.422 35.2656C218.073 35.2656 218.62 35.0286 219.062 34.5547C219.51 34.0807 219.734 33.4766 219.734 32.7422C219.734 32.013 219.516 31.4167 219.078 30.9531C218.641 30.4844 218.089 30.25 217.422 30.25ZM222.68 28.5H224.859L227.07 33.8359L229.508 28.5H231.695L226.367 40.1094H224.164L225.914 36.3672L222.68 28.5ZM232.898 28.5H237.859V30.5312H235.039V37H232.898V28.5ZM240.477 34.7734C240.815 34.7734 241.104 34.8932 241.344 35.1328C241.583 35.3672 241.703 35.6536 241.703 35.9922C241.703 36.3307 241.583 36.6198 241.344 36.8594C241.104 37.099 240.815 37.2188 240.477 37.2188C240.138 37.2188 239.849 37.099 239.609 36.8594C239.37 36.6198 239.25 36.3307 239.25 35.9922C239.25 35.6536 239.37 35.3672 239.609 35.1328C239.849 34.8932 240.138 34.7734 240.477 34.7734ZM32.75 57L29.5703 48.5547L26.3359 57H24.0156L28.4453 45.5078H30.6641L35.0859 57H32.75ZM37.3125 57H36.1797V48.5H38.2578V53.4922L42.6094 48.5H43.6328V57H41.5547V52.1094L37.3125 57ZM54.1172 50.2188L52.3438 51.1953C52.0104 50.8464 51.6797 50.6042 51.3516 50.4688C51.0286 50.3333 50.6484 50.2656 50.2109 50.2656C49.4141 50.2656 48.7682 50.5052 48.2734 50.9844C47.7839 51.4583 47.5391 52.0677 47.5391 52.8125C47.5391 53.5365 47.776 54.1276 48.25 54.5859C48.724 55.0443 49.3464 55.2734 50.1172 55.2734C51.0703 55.2734 51.8125 54.9479 52.3438 54.2969L54.0234 55.4453C53.112 56.6276 51.8255 57.2188 50.1641 57.2188C48.6693 57.2188 47.4974 56.776 46.6484 55.8906C45.8047 55.0052 45.3828 53.9688 45.3828 52.7812C45.3828 51.9583 45.5885 51.2005 46 50.5078C46.4115 49.8151 46.9844 49.2708 47.7188 48.875C48.4583 48.4792 49.2839 48.2812 50.1953 48.2812C51.0391 48.2812 51.7969 48.4505 52.4688 48.7891C53.1406 49.1224 53.6901 49.599 54.1172 50.2188ZM55.2891 48.5H63.2109V50.5312H60.3906V57H58.25V50.5312H55.2891V48.5ZM70.8906 48.5H73.0156V57H70.8906V56.1016C70.474 56.4974 70.0547 56.7839 69.6328 56.9609C69.2161 57.1328 68.763 57.2188 68.2734 57.2188C67.1745 57.2188 66.224 56.7943 65.4219 55.9453C64.6198 55.0911 64.2188 54.0312 64.2188 52.7656C64.2188 51.4531 64.6068 50.3776 65.3828 49.5391C66.1589 48.7005 67.1016 48.2812 68.2109 48.2812C68.7214 48.2812 69.2005 48.3776 69.6484 48.5703C70.0964 48.763 70.5104 49.0521 70.8906 49.4375V48.5ZM68.6484 50.25C67.987 50.25 67.4375 50.4844 67 50.9531C66.5625 51.4167 66.3438 52.013 66.3438 52.7422C66.3438 53.4766 66.5651 54.0807 67.0078 54.5547C67.4557 55.0286 68.0052 55.2656 68.6562 55.2656C69.3281 55.2656 69.8854 55.0339 70.3281 54.5703C70.7708 54.1016 70.9922 53.4896 70.9922 52.7344C70.9922 51.9948 70.7708 51.3958 70.3281 50.9375C69.8854 50.4792 69.3255 50.25 68.6484 50.25ZM76.2969 57H75.1641V48.5H77.2422V53.4922L81.5938 48.5H82.6172V57H80.5391V52.1094L76.2969 57ZM75.7891 44.75H77.5156C77.651 44.9635 77.8385 45.125 78.0781 45.2344C78.3229 45.3385 78.6198 45.3906 78.9688 45.3906C79.3229 45.3906 79.6432 45.3281 79.9297 45.2031C80.1172 45.1198 80.2812 44.9688 80.4219 44.75H82.1484C82.0495 45.4115 81.7318 45.9427 81.1953 46.3438C80.6641 46.7448 79.9193 46.9453 78.9609 46.9453C78.3151 46.9453 77.7734 46.8568 77.3359 46.6797C76.9036 46.4974 76.5547 46.2396 76.2891 45.9062C76.0234 45.5729 75.8568 45.1875 75.7891 44.75ZM89.2656 57V48.5H92.6797C93.7995 48.5 94.5599 48.7214 94.9609 49.1641C95.362 49.6016 95.5625 50.099 95.5625 50.6562C95.5625 51.4844 95.151 52.0807 94.3281 52.4453C95.4531 52.8307 96.0156 53.5573 96.0156 54.625C96.0156 55.2031 95.8672 55.6823 95.5703 56.0625C95.2734 56.4375 94.8958 56.6875 94.4375 56.8125C93.9844 56.9375 93.349 57 92.5312 57H89.2656ZM91.4062 51.8438H92.2266C92.5755 51.8438 92.8438 51.7578 93.0312 51.5859C93.224 51.4089 93.3203 51.2135 93.3203 51C93.3203 50.6823 93.2292 50.4349 93.0469 50.2578C92.8646 50.0807 92.6484 49.9922 92.3984 49.9922L92.125 50H91.4062V51.8438ZM91.4062 55.3594H92.4766C92.8932 55.3594 93.1849 55.263 93.3516 55.0703C93.5234 54.8724 93.6094 54.6797 93.6094 54.4922C93.6094 54.2161 93.513 53.9635 93.3203 53.7344C93.1328 53.5052 92.7917 53.3906 92.2969 53.3906H91.4062V55.3594ZM99.9609 51.5625H103.133V48.5H105.273V57H103.133V53.4766H99.9609V57H97.8203V48.5H99.9609V51.5625ZM108.562 57H107.43V48.5H109.508V53.4922L113.859 48.5H114.883V57H112.805V52.1094L108.562 57ZM118.469 53.3984V51.875H118.891C119.177 51.875 119.427 51.8073 119.641 51.6719C119.854 51.5365 119.961 51.3177 119.961 51.0156C119.961 50.7552 119.865 50.5417 119.672 50.375C119.484 50.2031 119.253 50.1172 118.977 50.1172C118.628 50.1172 118.19 50.2865 117.664 50.625L116.82 49.1562C117.555 48.5729 118.372 48.2812 119.273 48.2812C120.102 48.2812 120.786 48.4974 121.328 48.9297C121.875 49.3568 122.148 49.9349 122.148 50.6641C122.148 51.4036 121.753 52.0026 120.961 52.4609C122.018 52.8516 122.547 53.5573 122.547 54.5781C122.547 55.3385 122.25 55.9688 121.656 56.4688C121.062 56.9688 120.242 57.2188 119.195 57.2188C118.044 57.2188 117.094 56.8958 116.344 56.25L117.523 54.7656C118.029 55.1406 118.508 55.3281 118.961 55.3281C119.326 55.3281 119.615 55.2422 119.828 55.0703C120.042 54.8932 120.148 54.6667 120.148 54.3906C120.148 54.125 120.047 53.8932 119.844 53.6953C119.646 53.4974 119.372 53.3984 119.023 53.3984H118.469ZM129.859 57H128.727V48.5H130.805V53.4922L135.156 48.5H136.18V57H134.102V52.1094L129.859 57ZM144.961 51.5625H148.133V48.5H150.273V57H148.133V53.4766H144.961V57H142.82V48.5H144.961V51.5625ZM158.719 48.5H160.844V57H158.719V56.1016C158.302 56.4974 157.883 56.7839 157.461 56.9609C157.044 57.1328 156.591 57.2188 156.102 57.2188C155.003 57.2188 154.052 56.7943 153.25 55.9453C152.448 55.0911 152.047 54.0312 152.047 52.7656C152.047 51.4531 152.435 50.3776 153.211 49.5391C153.987 48.7005 154.93 48.2812 156.039 48.2812C156.549 48.2812 157.029 48.3776 157.477 48.5703C157.924 48.763 158.339 49.0521 158.719 49.4375V48.5ZM156.477 50.25C155.815 50.25 155.266 50.4844 154.828 50.9531C154.391 51.4167 154.172 52.013 154.172 52.7422C154.172 53.4766 154.393 54.0807 154.836 54.5547C155.284 55.0286 155.833 55.2656 156.484 55.2656C157.156 55.2656 157.714 55.0339 158.156 54.5703C158.599 54.1016 158.82 53.4896 158.82 52.7344C158.82 51.9948 158.599 51.3958 158.156 50.9375C157.714 50.4792 157.154 50.25 156.477 50.25ZM167.305 54.2656L167.078 54L164.547 57H161.719L165.555 52.6406L161.766 48.5H164.367L167.305 51.6797V48.5H169.438V51.6797L172.367 48.5H174.977L171.188 52.6406L175.023 57H172.195L169.664 54L169.438 54.2656V57H167.305V54.2656ZM177.031 57H175.898V48.5H177.977V53.4922L182.328 48.5H183.352V57H181.273V52.1094L177.031 57ZM190.719 53.8594L193.328 48.5H194.734L196.859 57H194.773L193.641 52.0156L191.109 57H190.234L187.758 52.0156L186.617 57H184.539L186.664 48.5H188.07L190.719 53.8594ZM204.328 48.5H206.453V57H204.328V56.1016C203.911 56.4974 203.492 56.7839 203.07 56.9609C202.654 57.1328 202.201 57.2188 201.711 57.2188C200.612 57.2188 199.661 56.7943 198.859 55.9453C198.057 55.0911 197.656 54.0312 197.656 52.7656C197.656 51.4531 198.044 50.3776 198.82 49.5391C199.596 48.7005 200.539 48.2812 201.648 48.2812C202.159 48.2812 202.638 48.3776 203.086 48.5703C203.534 48.763 203.948 49.0521 204.328 49.4375V48.5ZM202.086 50.25C201.424 50.25 200.875 50.4844 200.438 50.9531C200 51.4167 199.781 52.013 199.781 52.7422C199.781 53.4766 200.003 54.0807 200.445 54.5547C200.893 55.0286 201.443 55.2656 202.094 55.2656C202.766 55.2656 203.323 55.0339 203.766 54.5703C204.208 54.1016 204.43 53.4896 204.43 52.7344C204.43 51.9948 204.208 51.3958 203.766 50.9375C203.323 50.4792 202.763 50.25 202.086 50.25ZM209.734 57H208.602V48.5H210.68V53.4922L215.031 48.5H216.055V57H213.977V52.1094L209.734 57ZM209.227 44.75H210.953C211.089 44.9635 211.276 45.125 211.516 45.2344C211.76 45.3385 212.057 45.3906 212.406 45.3906C212.76 45.3906 213.081 45.3281 213.367 45.2031C213.555 45.1198 213.719 44.9688 213.859 44.75H215.586C215.487 45.4115 215.169 45.9427 214.633 46.3438C214.102 46.7448 213.357 46.9453 212.398 46.9453C211.753 46.9453 211.211 46.8568 210.773 46.6797C210.341 46.4974 209.992 46.2396 209.727 45.9062C209.461 45.5729 209.294 45.1875 209.227 44.75ZM224.836 51.5625H228.008V48.5H230.148V57H228.008V53.4766H224.836V57H222.695V48.5H224.836V51.5625ZM238.594 48.5H240.719V57H238.594V56.1016C238.177 56.4974 237.758 56.7839 237.336 56.9609C236.919 57.1328 236.466 57.2188 235.977 57.2188C234.878 57.2188 233.927 56.7943 233.125 55.9453C232.323 55.0911 231.922 54.0312 231.922 52.7656C231.922 51.4531 232.31 50.3776 233.086 49.5391C233.862 48.7005 234.805 48.2812 235.914 48.2812C236.424 48.2812 236.904 48.3776 237.352 48.5703C237.799 48.763 238.214 49.0521 238.594 49.4375V48.5ZM236.352 50.25C235.69 50.25 235.141 50.4844 234.703 50.9531C234.266 51.4167 234.047 52.013 234.047 52.7422C234.047 53.4766 234.268 54.0807 234.711 54.5547C235.159 55.0286 235.708 55.2656 236.359 55.2656C237.031 55.2656 237.589 55.0339 238.031 54.5703C238.474 54.1016 238.695 53.4896 238.695 52.7344C238.695 51.9948 238.474 51.3958 238.031 50.9375C237.589 50.4792 237.029 50.25 236.352 50.25ZM247.359 57V48.5H250.773C251.893 48.5 252.654 48.7214 253.055 49.1641C253.456 49.6016 253.656 50.099 253.656 50.6562C253.656 51.4844 253.245 52.0807 252.422 52.4453C253.547 52.8307 254.109 53.5573 254.109 54.625C254.109 55.2031 253.961 55.6823 253.664 56.0625C253.367 56.4375 252.99 56.6875 252.531 56.8125C252.078 56.9375 251.443 57 250.625 57H247.359ZM249.5 51.8438H250.32C250.669 51.8438 250.938 51.7578 251.125 51.5859C251.318 51.4089 251.414 51.2135 251.414 51C251.414 50.6823 251.323 50.4349 251.141 50.2578C250.958 50.0807 250.742 49.9922 250.492 49.9922L250.219 50H249.5V51.8438ZM249.5 55.3594H250.57C250.987 55.3594 251.279 55.263 251.445 55.0703C251.617 54.8724 251.703 54.6797 251.703 54.4922C251.703 54.2161 251.607 53.9635 251.414 53.7344C251.227 53.5052 250.885 53.3906 250.391 53.3906H249.5V55.3594ZM264.242 50.2188L262.469 51.1953C262.135 50.8464 261.805 50.6042 261.477 50.4688C261.154 50.3333 260.773 50.2656 260.336 50.2656C259.539 50.2656 258.893 50.5052 258.398 50.9844C257.909 51.4583 257.664 52.0677 257.664 52.8125C257.664 53.5365 257.901 54.1276 258.375 54.5859C258.849 55.0443 259.471 55.2734 260.242 55.2734C261.195 55.2734 261.938 54.9479 262.469 54.2969L264.148 55.4453C263.237 56.6276 261.951 57.2188 260.289 57.2188C258.794 57.2188 257.622 56.776 256.773 55.8906C255.93 55.0052 255.508 53.9688 255.508 52.7812C255.508 51.9583 255.714 51.2005 256.125 50.5078C256.536 49.8151 257.109 49.2708 257.844 48.875C258.583 48.4792 259.409 48.2812 260.32 48.2812C261.164 48.2812 261.922 48.4505 262.594 48.7891C263.266 49.1224 263.815 49.599 264.242 50.2188ZM274.688 53.3672H267.836C267.935 53.9714 268.198 54.4531 268.625 54.8125C269.057 55.1667 269.607 55.3438 270.273 55.3438C271.07 55.3438 271.755 55.0651 272.328 54.5078L274.125 55.3516C273.677 55.987 273.141 56.4583 272.516 56.7656C271.891 57.0677 271.148 57.2188 270.289 57.2188C268.956 57.2188 267.87 56.7995 267.031 55.9609C266.193 55.1172 265.773 54.0625 265.773 52.7969C265.773 51.5 266.19 50.4245 267.023 49.5703C267.862 48.7109 268.911 48.2812 270.172 48.2812C271.51 48.2812 272.599 48.7109 273.438 49.5703C274.276 50.4245 274.695 51.5547 274.695 52.9609L274.688 53.3672ZM272.547 51.6875C272.406 51.2135 272.128 50.8281 271.711 50.5312C271.299 50.2344 270.82 50.0859 270.273 50.0859C269.68 50.0859 269.159 50.2526 268.711 50.5859C268.43 50.7943 268.169 51.1615 267.93 51.6875H272.547ZM277.445 54.8359L278.969 55.6016L277.039 58.8984L275.977 58.3906L277.445 54.8359ZM29.6875 73.625H27.9766C26.8203 73.625 25.9297 73.4036 25.3047 72.9609C24.6849 72.513 24.375 71.7786 24.375 70.7578V68.5H26.5156V70.5938C26.5156 71.3385 27.013 71.7109 28.0078 71.7109L28.8359 71.7031H29.6875V68.5H31.8281V77H29.6875V73.625ZM33.2266 68.5H41.1484V70.5312H38.3281V77H36.1875V70.5312H33.2266V68.5ZM46.5391 68.2812C47.3411 68.2812 48.0938 68.4818 48.7969 68.8828C49.5052 69.2839 50.0573 69.8281 50.4531 70.5156C50.849 71.2031 51.0469 71.9453 51.0469 72.7422C51.0469 73.5443 50.8464 74.2943 50.4453 74.9922C50.0495 75.6901 49.5078 76.237 48.8203 76.6328C48.1328 77.0234 47.375 77.2188 46.5469 77.2188C45.3281 77.2188 44.2865 76.7865 43.4219 75.9219C42.5625 75.0521 42.1328 73.9974 42.1328 72.7578C42.1328 71.4297 42.6198 70.3229 43.5938 69.4375C44.4479 68.6667 45.4297 68.2812 46.5391 68.2812ZM46.5703 70.2891C45.9089 70.2891 45.3568 70.5208 44.9141 70.9844C44.4766 71.4427 44.2578 72.0312 44.2578 72.75C44.2578 73.4896 44.474 74.0885 44.9062 74.5469C45.3438 75.0052 45.8958 75.2344 46.5625 75.2344C47.2292 75.2344 47.7839 75.0026 48.2266 74.5391C48.6693 74.0755 48.8906 73.4792 48.8906 72.75C48.8906 72.0208 48.6719 71.4297 48.2344 70.9766C47.8021 70.5182 47.2474 70.2891 46.5703 70.2891ZM57.2812 77V68.5H60.6953C61.8151 68.5 62.5755 68.7214 62.9766 69.1641C63.3776 69.6016 63.5781 70.099 63.5781 70.6562C63.5781 71.4844 63.1667 72.0807 62.3438 72.4453C63.4688 72.8307 64.0312 73.5573 64.0312 74.625C64.0312 75.2031 63.8828 75.6823 63.5859 76.0625C63.2891 76.4375 62.9115 76.6875 62.4531 76.8125C62 76.9375 61.3646 77 60.5469 77H57.2812ZM59.4219 71.8438H60.2422C60.5911 71.8438 60.8594 71.7578 61.0469 71.5859C61.2396 71.4089 61.3359 71.2135 61.3359 71C61.3359 70.6823 61.2448 70.4349 61.0625 70.2578C60.8802 70.0807 60.6641 69.9922 60.4141 69.9922L60.1406 70H59.4219V71.8438ZM59.4219 75.3594H60.4922C60.9089 75.3594 61.2005 75.263 61.3672 75.0703C61.5391 74.8724 61.625 74.6797 61.625 74.4922C61.625 74.2161 61.5286 73.9635 61.3359 73.7344C61.1484 73.5052 60.8073 73.3906 60.3125 73.3906H59.4219V75.3594ZM66.9688 77H65.8359V68.5H67.9141V73.4922L72.2656 68.5H73.2891V77H71.2109V72.1094L66.9688 77ZM76.5547 77V78.4766H74.6562V75.1953H75.9375L78.8672 68.5H80.2422L83.2109 75.1953H84.5156V78.4766H82.4844V77H76.5547ZM80.9453 75.1953L79.5547 71.6172L78.1172 75.1953H80.9453ZM87 77H85.8672V68.5H87.9453V73.4922L92.2969 68.5H93.3203V77H91.2422V72.1094L87 77ZM107.742 77H95.4766V68.5H97.6172V74.9531H100.539V68.5H102.68V74.9531H105.609V68.5H107.742V77ZM112.039 71.5625H112.672C113.562 71.5625 114.245 71.6328 114.719 71.7734C115.198 71.9089 115.602 72.1953 115.93 72.6328C116.258 73.0703 116.422 73.6198 116.422 74.2812C116.422 74.9375 116.273 75.4844 115.977 75.9219C115.68 76.3542 115.299 76.6432 114.836 76.7891C114.378 76.9297 113.732 77 112.898 77H109.898V68.5H112.039V71.5625ZM112.039 75.3594H112.688C113.073 75.3594 113.352 75.3333 113.523 75.2812C113.695 75.224 113.846 75.1172 113.977 74.9609C114.107 74.8047 114.172 74.6146 114.172 74.3906C114.172 73.6615 113.755 73.2969 112.922 73.2969H112.039V75.3594ZM119.086 74.8359L120.609 75.6016L118.68 78.8984L117.617 78.3906L119.086 74.8359ZM131.641 73.625H129.93C128.773 73.625 127.883 73.4036 127.258 72.9609C126.638 72.513 126.328 71.7786 126.328 70.7578V68.5H128.469V70.5938C128.469 71.3385 128.966 71.7109 129.961 71.7109L130.789 71.7031H131.641V68.5H133.781V77H131.641V73.625ZM135.18 68.5H143.102V70.5312H140.281V77H138.141V70.5312H135.18V68.5ZM148.492 68.2812C149.294 68.2812 150.047 68.4818 150.75 68.8828C151.458 69.2839 152.01 69.8281 152.406 70.5156C152.802 71.2031 153 71.9453 153 72.7422C153 73.5443 152.799 74.2943 152.398 74.9922C152.003 75.6901 151.461 76.237 150.773 76.6328C150.086 77.0234 149.328 77.2188 148.5 77.2188C147.281 77.2188 146.24 76.7865 145.375 75.9219C144.516 75.0521 144.086 73.9974 144.086 72.7578C144.086 71.4297 144.573 70.3229 145.547 69.4375C146.401 68.6667 147.383 68.2812 148.492 68.2812ZM148.523 70.2891C147.862 70.2891 147.31 70.5208 146.867 70.9844C146.43 71.4427 146.211 72.0312 146.211 72.75C146.211 73.4896 146.427 74.0885 146.859 74.5469C147.297 75.0052 147.849 75.2344 148.516 75.2344C149.182 75.2344 149.737 75.0026 150.18 74.5391C150.622 74.0755 150.844 73.4792 150.844 72.75C150.844 72.0208 150.625 71.4297 150.188 70.9766C149.755 70.5182 149.201 70.2891 148.523 70.2891ZM162.875 65.0391V67.0547C162.266 67.1224 161.674 67.1589 161.102 67.1641C160.06 67.1745 159.276 67.2214 158.75 67.3047C158.224 67.3828 157.76 67.5703 157.359 67.8672C156.958 68.1589 156.674 68.4974 156.508 68.8828C156.341 69.263 156.24 69.8125 156.203 70.5312C156.818 69.0573 157.872 68.3203 159.367 68.3203C160.466 68.3203 161.417 68.724 162.219 69.5312C163.026 70.3333 163.43 71.3698 163.43 72.6406C163.43 73.9531 162.997 75.0443 162.133 75.9141C161.268 76.7839 160.201 77.2188 158.93 77.2188C157.893 77.2188 156.979 76.901 156.188 76.2656C155.401 75.6302 154.896 74.875 154.672 74C154.448 73.1198 154.336 72.1823 154.336 71.1875C154.336 69.9115 154.495 68.875 154.812 68.0781C155.13 67.276 155.547 66.6745 156.062 66.2734C156.583 65.8724 157.185 65.6042 157.867 65.4688C158.549 65.3333 159.552 65.237 160.875 65.1797C161.771 65.138 162.438 65.0911 162.875 65.0391ZM161.273 72.75C161.273 72.0417 161.06 71.4557 160.633 70.9922C160.211 70.5234 159.651 70.2891 158.953 70.2891C158.286 70.2891 157.734 70.5234 157.297 70.9922C156.859 71.4609 156.641 72.0469 156.641 72.75C156.641 73.4896 156.857 74.0885 157.289 74.5469C157.727 75 158.279 75.2266 158.945 75.2266C159.602 75.2266 160.154 75 160.602 74.5469C161.049 74.0885 161.273 73.4896 161.273 72.75ZM167.32 71.5625H167.953C168.844 71.5625 169.526 71.6328 170 71.7734C170.479 71.9089 170.883 72.1953 171.211 72.6328C171.539 73.0703 171.703 73.6198 171.703 74.2812C171.703 74.9375 171.555 75.4844 171.258 75.9219C170.961 76.3542 170.581 76.6432 170.117 76.7891C169.659 76.9297 169.013 77 168.18 77H165.18V68.5H167.32V71.5625ZM167.32 75.3594H167.969C168.354 75.3594 168.633 75.3333 168.805 75.2812C168.977 75.224 169.128 75.1172 169.258 74.9609C169.388 74.8047 169.453 74.6146 169.453 74.3906C169.453 73.6615 169.036 73.2969 168.203 73.2969H167.32V75.3594ZM173.188 68.5H175.32V77H173.188V68.5ZM181.969 77V68.5H185.383C186.503 68.5 187.263 68.7214 187.664 69.1641C188.065 69.6016 188.266 70.099 188.266 70.6562C188.266 71.4844 187.854 72.0807 187.031 72.4453C188.156 72.8307 188.719 73.5573 188.719 74.625C188.719 75.2031 188.57 75.6823 188.273 76.0625C187.977 76.4375 187.599 76.6875 187.141 76.8125C186.688 76.9375 186.052 77 185.234 77H181.969ZM184.109 71.8438H184.93C185.279 71.8438 185.547 71.7578 185.734 71.5859C185.927 71.4089 186.023 71.2135 186.023 71C186.023 70.6823 185.932 70.4349 185.75 70.2578C185.568 70.0807 185.352 69.9922 185.102 69.9922L184.828 70H184.109V71.8438ZM184.109 75.3594H185.18C185.596 75.3594 185.888 75.263 186.055 75.0703C186.227 74.8724 186.312 74.6797 186.312 74.4922C186.312 74.2161 186.216 73.9635 186.023 73.7344C185.836 73.5052 185.495 73.3906 185 73.3906H184.109V75.3594ZM192.664 71.5625H193.297C194.188 71.5625 194.87 71.6328 195.344 71.7734C195.823 71.9089 196.227 72.1953 196.555 72.6328C196.883 73.0703 197.047 73.6198 197.047 74.2812C197.047 74.9375 196.898 75.4844 196.602 75.9219C196.305 76.3542 195.924 76.6432 195.461 76.7891C195.003 76.9297 194.357 77 193.523 77H190.523V68.5H192.664V71.5625ZM192.664 75.3594H193.312C193.698 75.3594 193.977 75.3333 194.148 75.2812C194.32 75.224 194.471 75.1172 194.602 74.9609C194.732 74.8047 194.797 74.6146 194.797 74.3906C194.797 73.6615 194.38 73.2969 193.547 73.2969H192.664V75.3594ZM198.531 68.5H200.664V77H198.531V68.5ZM210.953 65.0391V67.0547C210.344 67.1224 209.753 67.1589 209.18 67.1641C208.138 67.1745 207.354 67.2214 206.828 67.3047C206.302 67.3828 205.839 67.5703 205.438 67.8672C205.036 68.1589 204.753 68.4974 204.586 68.8828C204.419 69.263 204.318 69.8125 204.281 70.5312C204.896 69.0573 205.951 68.3203 207.445 68.3203C208.544 68.3203 209.495 68.724 210.297 69.5312C211.104 70.3333 211.508 71.3698 211.508 72.6406C211.508 73.9531 211.076 75.0443 210.211 75.9141C209.346 76.7839 208.279 77.2188 207.008 77.2188C205.971 77.2188 205.057 76.901 204.266 76.2656C203.479 75.6302 202.974 74.875 202.75 74C202.526 73.1198 202.414 72.1823 202.414 71.1875C202.414 69.9115 202.573 68.875 202.891 68.0781C203.208 67.276 203.625 66.6745 204.141 66.2734C204.661 65.8724 205.263 65.6042 205.945 65.4688C206.628 65.3333 207.63 65.237 208.953 65.1797C209.849 65.138 210.516 65.0911 210.953 65.0391ZM209.352 72.75C209.352 72.0417 209.138 71.4557 208.711 70.9922C208.289 70.5234 207.729 70.2891 207.031 70.2891C206.365 70.2891 205.812 70.5234 205.375 70.9922C204.938 71.4609 204.719 72.0469 204.719 72.75C204.719 73.4896 204.935 74.0885 205.367 74.5469C205.805 75 206.357 75.2266 207.023 75.2266C207.68 75.2266 208.232 75 208.68 74.5469C209.128 74.0885 209.352 73.4896 209.352 72.75ZM215.383 68.5V69.4375C215.768 69.0521 216.185 68.763 216.633 68.5703C217.081 68.3776 217.56 68.2812 218.07 68.2812C219.18 68.2812 220.122 68.7005 220.898 69.5391C221.674 70.3776 222.062 71.4531 222.062 72.7656C222.062 74.0312 221.661 75.0911 220.859 75.9453C220.057 76.7943 219.107 77.2188 218.008 77.2188C217.518 77.2188 217.062 77.1328 216.641 76.9609C216.219 76.7839 215.799 76.4974 215.383 76.1016V80.1094H213.266V68.5H215.383ZM217.625 70.25C216.953 70.25 216.396 70.4792 215.953 70.9375C215.51 71.3958 215.289 71.9948 215.289 72.7344C215.289 73.4896 215.51 74.1016 215.953 74.5703C216.396 75.0339 216.953 75.2656 217.625 75.2656C218.276 75.2656 218.823 75.0286 219.266 74.5547C219.714 74.0807 219.938 73.4766 219.938 72.7422C219.938 72.013 219.719 71.4167 219.281 70.9531C218.844 70.4844 218.292 70.25 217.625 70.25ZM230.109 68.5H232.234V77H230.109V76.1016C229.693 76.4974 229.273 76.7839 228.852 76.9609C228.435 77.1328 227.982 77.2188 227.492 77.2188C226.393 77.2188 225.443 76.7943 224.641 75.9453C223.839 75.0911 223.438 74.0312 223.438 72.7656C223.438 71.4531 223.826 70.3776 224.602 69.5391C225.378 68.7005 226.32 68.2812 227.43 68.2812C227.94 68.2812 228.419 68.3776 228.867 68.5703C229.315 68.763 229.729 69.0521 230.109 69.4375V68.5ZM227.867 70.25C227.206 70.25 226.656 70.4844 226.219 70.9531C225.781 71.4167 225.562 72.013 225.562 72.7422C225.562 73.4766 225.784 74.0807 226.227 74.5547C226.674 75.0286 227.224 75.2656 227.875 75.2656C228.547 75.2656 229.104 75.0339 229.547 74.5703C229.99 74.1016 230.211 73.4896 230.211 72.7344C230.211 71.9948 229.99 71.3958 229.547 70.9375C229.104 70.4792 228.544 70.25 227.867 70.25ZM233.633 68.5H241.555V70.5312H238.734V77H236.594V70.5312H233.633V68.5ZM245.086 71.5625H245.719C246.609 71.5625 247.292 71.6328 247.766 71.7734C248.245 71.9089 248.648 72.1953 248.977 72.6328C249.305 73.0703 249.469 73.6198 249.469 74.2812C249.469 74.9375 249.32 75.4844 249.023 75.9219C248.727 76.3542 248.346 76.6432 247.883 76.7891C247.424 76.9297 246.779 77 245.945 77H242.945V68.5H245.086V71.5625ZM245.086 75.3594H245.734C246.12 75.3594 246.398 75.3333 246.57 75.2812C246.742 75.224 246.893 75.1172 247.023 74.9609C247.154 74.8047 247.219 74.6146 247.219 74.3906C247.219 73.6615 246.802 73.2969 245.969 73.2969H245.086V75.3594ZM252.133 74.8359L253.656 75.6016L251.727 78.8984L250.664 78.3906L252.133 74.8359ZM25.0781 88.5H27.2109V91.6797L30.1484 88.5H32.75L28.9609 92.6406L32.7969 97H29.9688L27.4375 94L27.2109 94.2656V97H25.0781V88.5ZM39.9531 88.5H42.0781V97H39.9531V96.1016C39.5365 96.4974 39.1172 96.7839 38.6953 96.9609C38.2786 97.1328 37.8255 97.2188 37.3359 97.2188C36.237 97.2188 35.2865 96.7943 34.4844 95.9453C33.6823 95.0911 33.2812 94.0312 33.2812 92.7656C33.2812 91.4531 33.6693 90.3776 34.4453 89.5391C35.2214 88.7005 36.1641 88.2812 37.2734 88.2812C37.7839 88.2812 38.263 88.3776 38.7109 88.5703C39.1589 88.763 39.5729 89.0521 39.9531 89.4375V88.5ZM37.7109 90.25C37.0495 90.25 36.5 90.4844 36.0625 90.9531C35.625 91.4167 35.4062 92.013 35.4062 92.7422C35.4062 93.4766 35.6276 94.0807 36.0703 94.5547C36.5182 95.0286 37.0677 95.2656 37.7188 95.2656C38.3906 95.2656 38.9479 95.0339 39.3906 94.5703C39.8333 94.1016 40.0547 93.4896 40.0547 92.7344C40.0547 91.9948 39.8333 91.3958 39.3906 90.9375C38.9479 90.4792 38.388 90.25 37.7109 90.25ZM44.2344 88.5H46.3672V91.6797L49.3047 88.5H51.9062L48.1172 92.6406L51.9531 97H49.125L46.5938 94L46.3672 94.2656V97H44.2344V88.5ZM58.7578 93.5156C58.2995 93.3646 57.9219 93.0807 57.625 92.6641C57.3333 92.2422 57.1875 91.7682 57.1875 91.2422C57.1875 90.612 57.3672 90.0599 57.7266 89.5859C58.0859 89.112 58.513 88.8125 59.0078 88.6875C59.5078 88.5625 60.2865 88.5 61.3438 88.5H63.5V97H61.3594V93.9219H60.9453L58.9219 97H56.3984L58.7578 93.5156ZM61.3594 92.3203V90.2812H60.6172C59.8099 90.2812 59.4062 90.6198 59.4062 91.2969C59.4062 91.9792 59.8568 92.3203 60.7578 92.3203H61.3594ZM78.2656 85.0391V87.0547C77.6562 87.1224 77.0651 87.1589 76.4922 87.1641C75.4505 87.1745 74.6667 87.2214 74.1406 87.3047C73.6146 87.3828 73.151 87.5703 72.75 87.8672C72.349 88.1589 72.0651 88.4974 71.8984 88.8828C71.7318 89.263 71.6302 89.8125 71.5938 90.5312C72.2083 89.0573 73.263 88.3203 74.7578 88.3203C75.8568 88.3203 76.8073 88.724 77.6094 89.5312C78.4167 90.3333 78.8203 91.3698 78.8203 92.6406C78.8203 93.9531 78.388 95.0443 77.5234 95.9141C76.6589 96.7839 75.5911 97.2188 74.3203 97.2188C73.2839 97.2188 72.3698 96.901 71.5781 96.2656C70.7917 95.6302 70.2865 94.875 70.0625 94C69.8385 93.1198 69.7266 92.1823 69.7266 91.1875C69.7266 89.9115 69.8854 88.875 70.2031 88.0781C70.5208 87.276 70.9375 86.6745 71.4531 86.2734C71.974 85.8724 72.5755 85.6042 73.2578 85.4688C73.9401 85.3333 74.9427 85.237 76.2656 85.1797C77.1615 85.138 77.8281 85.0911 78.2656 85.0391ZM76.6641 92.75C76.6641 92.0417 76.4505 91.4557 76.0234 90.9922C75.6016 90.5234 75.0417 90.2891 74.3438 90.2891C73.6771 90.2891 73.125 90.5234 72.6875 90.9922C72.25 91.4609 72.0312 92.0469 72.0312 92.75C72.0312 93.4896 72.2474 94.0885 72.6797 94.5469C73.1172 95 73.6693 95.2266 74.3359 95.2266C74.9922 95.2266 75.5443 95 75.9922 94.5469C76.4401 94.0885 76.6641 93.4896 76.6641 92.75ZM79.6328 88.5H81.8125L84.0234 93.8359L86.4609 88.5H88.6484L83.3203 100.109H81.1172L82.8672 96.3672L79.6328 88.5ZM90.9609 97V98.4766H89.0625V95.1953H90.3438L93.2734 88.5H94.6484L97.6172 95.1953H98.9219V98.4766H96.8906V97H90.9609ZM95.3516 95.1953L93.9609 91.6172L92.5234 95.1953H95.3516ZM99.3359 88.5H101.516L103.727 93.8359L106.164 88.5H108.352L103.023 100.109H100.82L102.57 96.3672L99.3359 88.5ZM114.047 97V88.5H117.461C118.581 88.5 119.341 88.7214 119.742 89.1641C120.143 89.6016 120.344 90.099 120.344 90.6562C120.344 91.4844 119.932 92.0807 119.109 92.4453C120.234 92.8307 120.797 93.5573 120.797 94.625C120.797 95.2031 120.648 95.6823 120.352 96.0625C120.055 96.4375 119.677 96.6875 119.219 96.8125C118.766 96.9375 118.13 97 117.312 97H114.047ZM116.188 91.8438H117.008C117.357 91.8438 117.625 91.7578 117.812 91.5859C118.005 91.4089 118.102 91.2135 118.102 91C118.102 90.6823 118.01 90.4349 117.828 90.2578C117.646 90.0807 117.43 89.9922 117.18 89.9922L116.906 90H116.188V91.8438ZM116.188 95.3594H117.258C117.674 95.3594 117.966 95.263 118.133 95.0703C118.305 94.8724 118.391 94.6797 118.391 94.4922C118.391 94.2161 118.294 93.9635 118.102 93.7344C117.914 93.5052 117.573 93.3906 117.078 93.3906H116.188V95.3594ZM124.742 91.5625H125.375C126.266 91.5625 126.948 91.6328 127.422 91.7734C127.901 91.9089 128.305 92.1953 128.633 92.6328C128.961 93.0703 129.125 93.6198 129.125 94.2812C129.125 94.9375 128.977 95.4844 128.68 95.9219C128.383 96.3542 128.003 96.6432 127.539 96.7891C127.081 96.9297 126.435 97 125.602 97H122.602V88.5H124.742V91.5625ZM124.742 95.3594H125.391C125.776 95.3594 126.055 95.3333 126.227 95.2812C126.398 95.224 126.549 95.1172 126.68 94.9609C126.81 94.8047 126.875 94.6146 126.875 94.3906C126.875 93.6615 126.458 93.2969 125.625 93.2969H124.742V95.3594ZM130.609 88.5H132.742V97H130.609V88.5ZM134.898 88.5H139.859V90.5312H137.039V97H134.898V88.5ZM148.906 97H146.734L144.609 91.6328L142.445 97H140.281L143.906 88.5H145.281L148.906 97ZM151.477 93.5156C151.018 93.3646 150.641 93.0807 150.344 92.6641C150.052 92.2422 149.906 91.7682 149.906 91.2422C149.906 90.612 150.086 90.0599 150.445 89.5859C150.805 89.112 151.232 88.8125 151.727 88.6875C152.227 88.5625 153.005 88.5 154.062 88.5H156.219V97H154.078V93.9219H153.664L151.641 97H149.117L151.477 93.5156ZM154.078 92.3203V90.2812H153.336C152.529 90.2812 152.125 90.6198 152.125 91.2969C152.125 91.9792 152.576 92.3203 153.477 92.3203H154.078ZM159.477 97V98.4766H157.578V95.1953H158.859L161.789 88.5H163.164L166.133 95.1953H167.438V98.4766H165.406V97H159.477ZM163.867 95.1953L162.477 91.6172L161.039 95.1953H163.867ZM177.312 93.3672H170.461C170.56 93.9714 170.823 94.4531 171.25 94.8125C171.682 95.1667 172.232 95.3438 172.898 95.3438C173.695 95.3438 174.38 95.0651 174.953 94.5078L176.75 95.3516C176.302 95.987 175.766 96.4583 175.141 96.7656C174.516 97.0677 173.773 97.2188 172.914 97.2188C171.581 97.2188 170.495 96.7995 169.656 95.9609C168.818 95.1172 168.398 94.0625 168.398 92.7969C168.398 91.5 168.815 90.4245 169.648 89.5703C170.487 88.7109 171.536 88.2812 172.797 88.2812C174.135 88.2812 175.224 88.7109 176.062 89.5703C176.901 90.4245 177.32 91.5547 177.32 92.9609L177.312 93.3672ZM175.172 91.6875C175.031 91.2135 174.753 90.8281 174.336 90.5312C173.924 90.2344 173.445 90.0859 172.898 90.0859C172.305 90.0859 171.784 90.2526 171.336 90.5859C171.055 90.7943 170.794 91.1615 170.555 91.6875H175.172ZM178.289 88.5H186.211V90.5312H183.391V97H181.25V90.5312H178.289V88.5ZM189.742 91.5625H190.375C191.266 91.5625 191.948 91.6328 192.422 91.7734C192.901 91.9089 193.305 92.1953 193.633 92.6328C193.961 93.0703 194.125 93.6198 194.125 94.2812C194.125 94.9375 193.977 95.4844 193.68 95.9219C193.383 96.3542 193.003 96.6432 192.539 96.7891C192.081 96.9297 191.435 97 190.602 97H187.602V88.5H189.742V91.5625ZM189.742 95.3594H190.391C190.776 95.3594 191.055 95.3333 191.227 95.2812C191.398 95.224 191.549 95.1172 191.68 94.9609C191.81 94.8047 191.875 94.6146 191.875 94.3906C191.875 93.6615 191.458 93.2969 190.625 93.2969H189.742V95.3594ZM195.844 85.2188H198V93.6172H195.844V85.2188ZM196.922 94.5469C197.292 94.5469 197.607 94.6771 197.867 94.9375C198.133 95.1979 198.266 95.513 198.266 95.8828C198.266 96.2474 198.133 96.5625 197.867 96.8281C197.607 97.0885 197.292 97.2188 196.922 97.2188C196.552 97.2188 196.237 97.0885 195.977 96.8281C195.716 96.5677 195.586 96.2526 195.586 95.8828C195.586 95.513 195.716 95.1979 195.977 94.9375C196.237 94.6771 196.552 94.5469 196.922 94.5469Z" fill="black"/>
</svg>
