<svg width="152" height="123" viewBox="0 0 152 123" fill="none" xmlns="http://www.w3.org/2000/svg">
<path d="M76.41 122.918C34.6651 122.918 0.824219 89.3933 0.824219 48.0385H151.996C151.996 89.3933 118.155 122.918 76.41 122.918Z" fill="white"/>
<path d="M38.4223 0.000732422C17.6574 0.000732422 0.824219 16.834 0.824219 37.5988H76.0203C76.0203 16.834 59.1871 0.000732422 38.4223 0.000732422Z" fill="black"/>
<path d="M113.621 0.000732422C92.8567 0.000732422 76.0234 16.834 76.0234 37.5988H151.22C151.22 16.834 134.386 0.000732422 113.621 0.000732422Z" fill="black"/>
<path d="M75.1527 85.6304C54.3879 85.6304 37.5547 68.7971 37.5547 48.0323H112.751C112.751 68.7971 95.9176 85.6304 75.1527 85.6304Z" fill="black"/>
</svg>
