<svg width="182" height="149" viewBox="0 0 182 149" fill="none" xmlns="http://www.w3.org/2000/svg">
<path d="M91.1769 148.411C41.0284 148.411 0.375 108.137 0.375 58.4573H181.979C181.979 108.137 141.325 148.411 91.1769 148.411Z" fill="white"/>
<path fill-rule="evenodd" clip-rule="evenodd" d="M0.375 45.9176C0.375 20.9726 20.5969 0.750732 45.5419 0.750732C70.4868 0.750732 90.7087 20.9726 90.7087 45.9176H0.375ZM90.709 45.9184C90.709 20.9734 110.931 0.751511 135.876 0.751511C160.821 0.751511 181.043 20.9734 181.043 45.9184H90.709Z" fill="black"/>
<path d="M89.6669 103.62C64.7219 103.62 44.5 83.3982 44.5 58.4533H134.834C134.834 83.3982 114.612 103.62 89.6669 103.62Z" fill="black"/>
</svg>
