<svg width="1440" height="44" viewBox="0 0 1440 44" fill="none" xmlns="http://www.w3.org/2000/svg">
<rect width="1440" height="45" fill="#8000D4"/>
<path d="M125.492 15.9443H127.646L129.751 19.1641L131.877 15.9443H134.03L130.831 20.8115L134.229 26H132.075L129.751 22.4658L127.447 26H125.28L128.678 20.8115L125.492 15.9443ZM140.969 18.5625H142.828V26H140.969V25.2139C140.604 25.5602 140.237 25.8109 139.868 25.9658C139.504 26.1162 139.107 26.1914 138.679 26.1914C137.717 26.1914 136.885 25.82 136.184 25.0771C135.482 24.3298 135.131 23.4023 135.131 22.2949C135.131 21.1465 135.47 20.2054 136.149 19.4717C136.828 18.738 137.653 18.3711 138.624 18.3711C139.071 18.3711 139.49 18.4554 139.882 18.624C140.274 18.7926 140.636 19.0456 140.969 19.3828V18.5625ZM139.007 20.0938C138.428 20.0938 137.947 20.2988 137.564 20.709C137.182 21.1146 136.99 21.6364 136.99 22.2744C136.99 22.917 137.184 23.4456 137.571 23.8604C137.963 24.2751 138.444 24.4824 139.014 24.4824C139.602 24.4824 140.089 24.2796 140.477 23.874C140.864 23.4639 141.058 22.9284 141.058 22.2676C141.058 21.6204 140.864 21.0964 140.477 20.6953C140.089 20.2943 139.599 20.0938 139.007 20.0938ZM146.581 21.2422H149.356V18.5625H151.229V26H149.356V22.917H146.581V26H144.708V18.5625H146.581V21.2422ZM160.574 22.8213H154.579C154.666 23.3499 154.896 23.7715 155.27 24.0859C155.648 24.3958 156.129 24.5508 156.712 24.5508C157.409 24.5508 158.008 24.307 158.51 23.8193L160.082 24.5576C159.69 25.1136 159.221 25.526 158.674 25.7949C158.127 26.0592 157.478 26.1914 156.726 26.1914C155.559 26.1914 154.609 25.8245 153.875 25.0908C153.141 24.3525 152.774 23.4297 152.774 22.3223C152.774 21.1875 153.139 20.2464 153.868 19.499C154.602 18.7471 155.52 18.3711 156.623 18.3711C157.794 18.3711 158.747 18.7471 159.48 19.499C160.214 20.2464 160.581 21.2354 160.581 22.4658L160.574 22.8213ZM158.701 21.3516C158.578 20.9368 158.334 20.5996 157.97 20.3398C157.61 20.0801 157.19 19.9502 156.712 19.9502C156.192 19.9502 155.737 20.096 155.345 20.3877C155.099 20.57 154.871 20.8913 154.661 21.3516H158.701ZM169.543 22.8213H163.548C163.634 23.3499 163.865 23.7715 164.238 24.0859C164.617 24.3958 165.097 24.5508 165.681 24.5508C166.378 24.5508 166.977 24.307 167.479 23.8193L169.051 24.5576C168.659 25.1136 168.189 25.526 167.643 25.7949C167.096 26.0592 166.446 26.1914 165.694 26.1914C164.528 26.1914 163.577 25.8245 162.844 25.0908C162.11 24.3525 161.743 23.4297 161.743 22.3223C161.743 21.1875 162.108 20.2464 162.837 19.499C163.571 18.7471 164.489 18.3711 165.592 18.3711C166.763 18.3711 167.715 18.7471 168.449 19.499C169.183 20.2464 169.55 21.2354 169.55 22.4658L169.543 22.8213ZM167.67 21.3516C167.547 20.9368 167.303 20.5996 166.938 20.3398C166.578 20.0801 166.159 19.9502 165.681 19.9502C165.161 19.9502 164.705 20.096 164.313 20.3877C164.067 20.57 163.84 20.8913 163.63 21.3516H167.67ZM171.061 26V18.5625H174.048C175.028 18.5625 175.693 18.7562 176.044 19.1436C176.395 19.5264 176.57 19.9616 176.57 20.4492C176.57 21.1738 176.21 21.6956 175.49 22.0146C176.475 22.3519 176.967 22.9876 176.967 23.9219C176.967 24.4277 176.837 24.847 176.577 25.1797C176.317 25.5078 175.987 25.7266 175.586 25.8359C175.189 25.9453 174.633 26 173.918 26H171.061ZM172.934 21.4883H173.651C173.957 21.4883 174.191 21.4131 174.355 21.2627C174.524 21.1077 174.608 20.9368 174.608 20.75C174.608 20.472 174.529 20.2555 174.369 20.1006C174.21 19.9456 174.021 19.8682 173.802 19.8682L173.562 19.875H172.934V21.4883ZM172.934 24.5645H173.87C174.235 24.5645 174.49 24.4801 174.636 24.3115C174.786 24.1383 174.861 23.9697 174.861 23.8057C174.861 23.5641 174.777 23.3431 174.608 23.1426C174.444 22.9421 174.146 22.8418 173.713 22.8418H172.934V24.5645ZM184.049 18.5625H185.908V26H184.049V25.2139C183.684 25.5602 183.317 25.8109 182.948 25.9658C182.584 26.1162 182.187 26.1914 181.759 26.1914C180.797 26.1914 179.965 25.82 179.264 25.0771C178.562 24.3298 178.211 23.4023 178.211 22.2949C178.211 21.1465 178.55 20.2054 179.229 19.4717C179.909 18.738 180.733 18.3711 181.704 18.3711C182.151 18.3711 182.57 18.4554 182.962 18.624C183.354 18.7926 183.716 19.0456 184.049 19.3828V18.5625ZM182.087 20.0938C181.508 20.0938 181.027 20.2988 180.645 20.709C180.262 21.1146 180.07 21.6364 180.07 22.2744C180.07 22.917 180.264 23.4456 180.651 23.8604C181.043 24.2751 181.524 24.4824 182.094 24.4824C182.682 24.4824 183.169 24.2796 183.557 23.874C183.944 23.4639 184.138 22.9284 184.138 22.2676C184.138 21.6204 183.944 21.0964 183.557 20.6953C183.169 20.2943 182.679 20.0938 182.087 20.0938ZM198.432 26L195.649 18.6104L192.819 26H190.789L194.665 15.9443H196.606L200.476 26H198.432ZM202.424 26H201.433V18.5625H203.251V22.9307L207.059 18.5625H207.954V26H206.136V21.7207L202.424 26ZM211.112 22.9512C210.711 22.819 210.381 22.5706 210.121 22.2061C209.866 21.8369 209.738 21.4222 209.738 20.9619C209.738 20.4105 209.896 19.9274 210.21 19.5127C210.524 19.098 210.898 18.8359 211.331 18.7266C211.769 18.6172 212.45 18.5625 213.375 18.5625H215.262V26H213.389V23.3066H213.026L211.256 26H209.048L211.112 22.9512ZM213.389 21.9053V20.1211H212.739C212.033 20.1211 211.68 20.4173 211.68 21.0098C211.68 21.6068 212.074 21.9053 212.862 21.9053H213.389Z" fill="white"/>
<path d="M1255.14 15.9443H1257.08V19.7383H1260.45V15.9443H1262.38V26H1260.45V21.5908H1257.08V26H1255.14V15.9443ZM1269.95 17.3115L1268.53 18.5625C1268.04 17.8698 1267.53 17.5234 1267.02 17.5234C1266.76 17.5234 1266.56 17.5918 1266.4 17.7285C1266.24 17.8607 1266.16 18.0111 1266.16 18.1797C1266.16 18.3483 1266.22 18.5078 1266.33 18.6582C1266.49 18.8587 1266.95 19.2894 1267.73 19.9502C1268.46 20.5609 1268.9 20.946 1269.06 21.1055C1269.45 21.4974 1269.72 21.8734 1269.88 22.2334C1270.04 22.5889 1270.13 22.9785 1270.13 23.4023C1270.13 24.2272 1269.84 24.9085 1269.27 25.4463C1268.7 25.984 1267.96 26.2529 1267.04 26.2529C1266.33 26.2529 1265.7 26.0775 1265.17 25.7266C1264.64 25.3757 1264.19 24.8242 1263.81 24.0723L1265.42 23.1016C1265.9 23.9902 1266.46 24.4346 1267.08 24.4346C1267.41 24.4346 1267.69 24.3389 1267.91 24.1475C1268.13 23.9561 1268.25 23.735 1268.25 23.4844C1268.25 23.2565 1268.16 23.0286 1267.99 22.8008C1267.82 22.5729 1267.45 22.2243 1266.88 21.7549C1265.79 20.8617 1265.08 20.1735 1264.76 19.6904C1264.44 19.2028 1264.28 18.7174 1264.28 18.2344C1264.28 17.5371 1264.55 16.9401 1265.07 16.4434C1265.61 15.9421 1266.26 15.6914 1267.04 15.6914C1267.54 15.6914 1268.02 15.8076 1268.47 16.04C1268.93 16.2725 1269.42 16.6963 1269.95 17.3115ZM1271.97 15.9443H1277.46V17.8174H1273.87V19.6357H1277.46V21.4746H1273.87V24.1201H1277.46V26H1271.97V15.9443ZM1286.24 15.9443H1288.18L1292.05 26H1290.06L1289.27 23.9287H1285.17L1284.35 26H1282.36L1286.24 15.9443ZM1287.22 18.6104L1285.88 22.0625H1288.56L1287.22 18.6104ZM1293.55 15.9443H1295.82C1297.28 15.9443 1298.37 16.1266 1299.08 16.4912C1299.79 16.8512 1300.37 17.4391 1300.83 18.2549C1301.29 19.0706 1301.52 20.0231 1301.52 21.1123C1301.52 21.887 1301.39 22.6003 1301.13 23.252C1300.88 23.8991 1300.52 24.4368 1300.07 24.8652C1299.62 25.2936 1299.13 25.5898 1298.6 25.7539C1298.07 25.918 1297.15 26 1295.85 26H1293.55V15.9443ZM1295.45 17.79V24.127H1296.34C1297.22 24.127 1297.85 24.0267 1298.24 23.8262C1298.64 23.6257 1298.96 23.2884 1299.21 22.8145C1299.46 22.3405 1299.59 21.7572 1299.59 21.0645C1299.59 19.998 1299.29 19.1709 1298.69 18.583C1298.16 18.0544 1297.29 17.79 1296.1 17.79H1295.45ZM1312.58 17.7148L1311.24 18.9932C1310.33 18.0316 1309.31 17.5508 1308.17 17.5508C1307.21 17.5508 1306.4 17.8789 1305.73 18.5352C1305.08 19.1914 1304.75 20.0003 1304.75 20.9619C1304.75 21.6318 1304.9 22.2266 1305.19 22.7461C1305.48 23.2656 1305.89 23.6735 1306.42 23.9697C1306.96 24.266 1307.55 24.4141 1308.2 24.4141C1308.76 24.4141 1309.27 24.3115 1309.73 24.1064C1310.19 23.8968 1310.69 23.5186 1311.24 22.9717L1312.54 24.3252C1311.8 25.0498 1311.1 25.5534 1310.44 25.8359C1309.78 26.1139 1309.02 26.2529 1308.17 26.2529C1306.61 26.2529 1305.33 25.7585 1304.33 24.7695C1303.34 23.776 1302.84 22.5046 1302.84 20.9551C1302.84 19.9525 1303.07 19.0615 1303.52 18.2822C1303.98 17.5029 1304.62 16.8763 1305.47 16.4023C1306.32 15.9284 1307.23 15.6914 1308.2 15.6914C1309.03 15.6914 1309.83 15.8669 1310.59 16.2178C1311.36 16.5687 1312.03 17.0677 1312.58 17.7148Z" fill="white"/>
<path d="M717.391 17.7148L716.051 18.9932C715.139 18.0316 714.114 17.5508 712.975 17.5508C712.013 17.5508 711.202 17.8789 710.541 18.5352C709.885 19.1914 709.557 20.0003 709.557 20.9619C709.557 21.6318 709.702 22.2266 709.994 22.7461C710.286 23.2656 710.698 23.6735 711.231 23.9697C711.765 24.266 712.357 24.4141 713.009 24.4141C713.565 24.4141 714.073 24.3115 714.533 24.1064C714.993 23.8968 715.499 23.5186 716.051 22.9717L717.35 24.3252C716.607 25.0498 715.905 25.5534 715.244 25.8359C714.583 26.1139 713.829 26.2529 712.981 26.2529C711.418 26.2529 710.138 25.7585 709.14 24.7695C708.146 23.776 707.649 22.5046 707.649 20.9551C707.649 19.9525 707.875 19.0615 708.326 18.2822C708.782 17.5029 709.431 16.8763 710.274 16.4023C711.122 15.9284 712.034 15.6914 713.009 15.6914C713.838 15.6914 714.636 15.8669 715.401 16.2178C716.172 16.5687 716.835 17.0677 717.391 17.7148ZM722.36 18.3711C723.062 18.3711 723.721 18.5465 724.336 18.8975C724.956 19.2484 725.439 19.7246 725.785 20.3262C726.132 20.9277 726.305 21.5771 726.305 22.2744C726.305 22.9762 726.129 23.6325 725.778 24.2432C725.432 24.8538 724.958 25.3324 724.356 25.6787C723.755 26.0205 723.092 26.1914 722.367 26.1914C721.301 26.1914 720.389 25.8132 719.633 25.0566C718.881 24.2956 718.505 23.3727 718.505 22.2881C718.505 21.126 718.931 20.1576 719.783 19.3828C720.531 18.7083 721.39 18.3711 722.36 18.3711ZM722.388 20.1279C721.809 20.1279 721.326 20.3307 720.938 20.7363C720.556 21.1374 720.364 21.6523 720.364 22.2812C720.364 22.9284 720.553 23.4525 720.932 23.8535C721.314 24.2546 721.798 24.4551 722.381 24.4551C722.964 24.4551 723.45 24.2523 723.837 23.8467C724.224 23.4411 724.418 22.9193 724.418 22.2812C724.418 21.6432 724.227 21.126 723.844 20.7295C723.465 20.3285 722.98 20.1279 722.388 20.1279ZM734.945 15.5342V17.2979C734.412 17.3571 733.895 17.389 733.394 17.3936C732.482 17.4027 731.796 17.4437 731.336 17.5166C730.876 17.585 730.47 17.749 730.119 18.0088C729.768 18.264 729.52 18.5602 729.374 18.8975C729.228 19.2301 729.139 19.7109 729.107 20.3398C729.645 19.0501 730.568 18.4053 731.876 18.4053C732.838 18.4053 733.669 18.7585 734.371 19.4648C735.077 20.1667 735.431 21.0736 735.431 22.1855C735.431 23.334 735.052 24.2887 734.296 25.0498C733.539 25.8109 732.605 26.1914 731.493 26.1914C730.586 26.1914 729.786 25.9134 729.094 25.3574C728.406 24.8014 727.964 24.1406 727.768 23.375C727.572 22.6048 727.474 21.7845 727.474 20.9141C727.474 19.7975 727.613 18.8906 727.891 18.1934C728.169 17.4915 728.533 16.9652 728.984 16.6143C729.44 16.2633 729.966 16.0286 730.563 15.9102C731.16 15.7917 732.038 15.7074 733.195 15.6572C733.979 15.6208 734.562 15.5798 734.945 15.5342ZM733.544 22.2812C733.544 21.6615 733.357 21.1488 732.983 20.7432C732.614 20.333 732.124 20.1279 731.514 20.1279C730.93 20.1279 730.447 20.333 730.064 20.7432C729.682 21.1533 729.49 21.666 729.49 22.2812C729.49 22.9284 729.679 23.4525 730.058 23.8535C730.44 24.25 730.924 24.4482 731.507 24.4482C732.081 24.4482 732.564 24.25 732.956 23.8535C733.348 23.4525 733.544 22.9284 733.544 22.2812ZM744.42 22.8213H738.425C738.511 23.3499 738.742 23.7715 739.115 24.0859C739.493 24.3958 739.974 24.5508 740.558 24.5508C741.255 24.5508 741.854 24.307 742.355 23.8193L743.928 24.5576C743.536 25.1136 743.066 25.526 742.52 25.7949C741.973 26.0592 741.323 26.1914 740.571 26.1914C739.405 26.1914 738.454 25.8245 737.721 25.0908C736.987 24.3525 736.62 23.4297 736.62 22.3223C736.62 21.1875 736.985 20.2464 737.714 19.499C738.448 18.7471 739.366 18.3711 740.469 18.3711C741.64 18.3711 742.592 18.7471 743.326 19.499C744.06 20.2464 744.427 21.2354 744.427 22.4658L744.42 22.8213ZM742.547 21.3516C742.424 20.9368 742.18 20.5996 741.815 20.3398C741.455 20.0801 741.036 19.9502 740.558 19.9502C740.038 19.9502 739.582 20.096 739.19 20.3877C738.944 20.57 738.716 20.8913 738.507 21.3516H742.547ZM747.79 18.5625V19.3828C748.127 19.0456 748.492 18.7926 748.884 18.624C749.276 18.4554 749.695 18.3711 750.142 18.3711C751.112 18.3711 751.937 18.738 752.616 19.4717C753.295 20.2054 753.635 21.1465 753.635 22.2949C753.635 23.4023 753.284 24.3298 752.582 25.0771C751.88 25.82 751.049 26.1914 750.087 26.1914C749.659 26.1914 749.26 26.1162 748.891 25.9658C748.521 25.8109 748.155 25.5602 747.79 25.2139V28.7207H745.938V18.5625H747.79ZM749.752 20.0938C749.164 20.0938 748.676 20.2943 748.289 20.6953C747.902 21.0964 747.708 21.6204 747.708 22.2676C747.708 22.9284 747.902 23.4639 748.289 23.874C748.676 24.2796 749.164 24.4824 749.752 24.4824C750.322 24.4824 750.8 24.2751 751.188 23.8604C751.579 23.4456 751.775 22.917 751.775 22.2744C751.775 21.6364 751.584 21.1146 751.201 20.709C750.818 20.2988 750.335 20.0938 749.752 20.0938ZM756.164 26H755.173V18.5625H756.991V22.9307L760.799 18.5625H761.694V26H759.876V21.7207L756.164 26ZM770.868 20.0664L769.316 20.9209C769.025 20.6156 768.735 20.4036 768.448 20.2852C768.166 20.1667 767.833 20.1074 767.45 20.1074C766.753 20.1074 766.188 20.3171 765.755 20.7363C765.326 21.151 765.112 21.6842 765.112 22.3359C765.112 22.9694 765.32 23.4867 765.734 23.8877C766.149 24.2887 766.694 24.4893 767.368 24.4893C768.202 24.4893 768.852 24.2044 769.316 23.6348L770.786 24.6396C769.989 25.6742 768.863 26.1914 767.409 26.1914C766.101 26.1914 765.076 25.804 764.333 25.0293C763.595 24.2546 763.226 23.3477 763.226 22.3086C763.226 21.5885 763.406 20.9255 763.766 20.3193C764.126 19.7132 764.627 19.237 765.27 18.8906C765.917 18.5443 766.639 18.3711 767.437 18.3711C768.175 18.3711 768.838 18.5192 769.426 18.8154C770.014 19.1071 770.494 19.5241 770.868 20.0664ZM774.423 21.2422H774.977C775.756 21.2422 776.353 21.3037 776.768 21.4268C777.187 21.5452 777.54 21.7959 777.827 22.1787C778.114 22.5615 778.258 23.0423 778.258 23.6211C778.258 24.1953 778.128 24.6738 777.868 25.0566C777.608 25.4349 777.276 25.6878 776.87 25.8154C776.469 25.9385 775.904 26 775.175 26H772.55V18.5625H774.423V21.2422ZM774.423 24.5645H774.99C775.327 24.5645 775.571 24.5417 775.722 24.4961C775.872 24.446 776.004 24.3525 776.118 24.2158C776.232 24.0791 776.289 23.9128 776.289 23.7168C776.289 23.0788 775.924 22.7598 775.195 22.7598H774.423V24.5645Z" fill="white"/>
</svg>
