<svg width="157" height="339" viewBox="0 0 157 339" fill="none" xmlns="http://www.w3.org/2000/svg">
<path d="M157 338L157 27L97 27L97 338L157 338Z" fill="#FF57B3"/>
<path d="M60 338.343L60 27.3425L-7.62939e-06 27.3425L-2.54162e-05 338.343L60 338.343Z" fill="#FF57B3"/>
<path d="M134 35.3425L134 0.342529L119 0.342529L119 35.3425L134 35.3425Z" fill="white"/>
<path d="M157 35.3425L157 0.342529L142 0.342529L142 35.3425L157 35.3425Z" fill="white"/>
<path d="M112 35.3425L112 0.342529L97 0.342529L97 35.3425L112 35.3425Z" fill="white"/>
<path d="M36.9297 35.6524L36.9297 0L22.1632 -6.45463e-07L22.1632 35.6524L36.9297 35.6524Z" fill="white"/>
<path d="M60.0547 35.6524L60.0547 0L45.2882 -6.45463e-07L45.2882 35.6524L60.0547 35.6524Z" fill="white"/>
<path d="M14.7656 35.6524L14.7656 0L-0.000850677 -6.45463e-07L-0.000852236 35.6524L14.7656 35.6524Z" fill="white"/>
</svg>
