<svg width="157" height="339" viewBox="0 0 157 339" fill="none" xmlns="http://www.w3.org/2000/svg">
<path d="M-9.70397e-06 0L0 321L60 321L60 -3.79224e-06L-9.70397e-06 0Z" fill="#FF8947"/>
<path d="M97 0L97 311L157 311L157 -3.79224e-06L97 0Z" fill="#FF8947"/>
<path d="M23 303L23 338L38 338L38 303L23 303Z" fill="white"/>
<path d="M-1.5299e-06 303L0 338L15 338L15 303L-1.5299e-06 303Z" fill="white"/>
<path d="M45 303L45 338L60 338L60 303L45 303Z" fill="white"/>
<path d="M120.07 302.69L120.07 338.343L134.837 338.343L134.837 302.69L120.07 302.69Z" fill="white"/>
<path d="M96.9453 302.69L96.9453 338.343L111.712 338.343L111.712 302.69L96.9453 302.69Z" fill="white"/>
<path d="M142.234 302.69L142.234 338.343L157.001 338.343L157.001 302.69L142.234 302.69Z" fill="white"/>
</svg>
