<svg width="480" height="261" viewBox="0 0 480 261" fill="none" xmlns="http://www.w3.org/2000/svg">
<path fill-rule="evenodd" clip-rule="evenodd" d="M452.935 0.124999C461.924 0.124999 470.72 0.877862 479.25 2.31797L479.25 85.8807C471.705 83.0682 462.939 81.3976 452.935 81.3976C411.257 81.3976 391.076 110.392 391.076 130.161C391.076 149.93 411.257 178.925 452.935 178.925C462.939 178.925 471.705 177.254 479.25 174.442L479.25 258.004C470.72 259.444 461.924 260.197 452.935 260.197C402.923 260.197 358.902 236.894 333.31 201.588L-8.80623e-06 201.588L-2.56097e-06 58.7129L333.325 58.7129C358.92 23.4185 402.934 0.124995 452.935 0.124999Z" fill="#FF8947"/>
<rect width="53.244" height="36.1298" transform="matrix(-1 0 0 1 467.5 28.015)" fill="white"/>
<rect width="53.244" height="36.1298" transform="matrix(-1 0 0 1 467.5 199.788)" fill="white"/>
</svg>
