<svg width="191" height="101" viewBox="0 0 191 101" fill="none" xmlns="http://www.w3.org/2000/svg">
<path fill-rule="evenodd" clip-rule="evenodd" d="M190.121 3.7114L190.121 4.54504C189.9 57.4404 147.605 100.251 95.4632 100.251C43.1846 100.251 0.804371 57.2153 0.804375 4.1282C0.804375 2.8137 0.830361 1.50537 0.881829 0.203703L190.045 0.20372C190.091 1.36774 190.116 2.53709 190.121 3.7114Z" fill="#FF57B3"/>
<ellipse cx="74.2109" cy="27.3363" rx="18.8398" ry="25.3363" fill="white"/>
<ellipse cx="96.3047" cy="76.6972" rx="18.8398" ry="22.088" fill="white"/>
<ellipse cx="117.09" cy="27.3363" rx="18.8398" ry="25.3363" fill="white"/>
<mask id="path-5-inside-1" fill="white">
<path fill-rule="evenodd" clip-rule="evenodd" d="M190.121 3.7114L190.121 4.54504C189.9 57.4404 147.605 100.251 95.4632 100.251C43.1846 100.251 0.804371 57.2153 0.804375 4.1282C0.804375 2.8137 0.830361 1.50537 0.881829 0.203703L190.045 0.20372C190.091 1.36774 190.116 2.53709 190.121 3.7114Z"/>
</mask>
<path d="M190.121 3.7114L200.121 3.7114L200.121 3.6905L200.121 3.66959L190.121 3.7114ZM190.121 4.54504L200.121 4.58685L200.121 4.56594L200.121 4.54504L190.121 4.54504ZM0.881829 0.203703L0.88183 -9.7963L-8.73058 -9.7963L-9.11037 -0.191386L0.881829 0.203703ZM190.045 0.20372L200.037 -0.191421L199.657 -9.79628L190.045 -9.79628L190.045 0.20372ZM180.121 3.7114L180.121 4.54504L200.121 4.54504L200.121 3.7114L180.121 3.7114ZM180.121 4.50323C179.922 52.0388 141.953 90.2509 95.4632 90.2508L95.4632 110.251C153.257 110.251 199.877 62.842 200.121 4.58685L180.121 4.50323ZM95.4632 90.2508C48.8515 90.2508 10.8044 51.8377 10.8044 4.1282L-9.19562 4.1282C-9.19563 62.5929 37.5176 110.251 95.4632 110.251L95.4632 90.2508ZM10.8044 4.1282C10.8044 2.94551 10.8278 1.7689 10.874 0.598792L-9.11037 -0.191386C-9.16703 1.24184 -9.19562 2.6819 -9.19562 4.1282L10.8044 4.1282ZM0.881828 10.2037L190.045 10.2037L190.045 -9.79628L0.88183 -9.7963L0.881828 10.2037ZM180.052 0.598861C180.094 1.64519 180.117 2.69675 180.121 3.75321L200.121 3.66959C200.116 2.37743 200.087 1.09029 200.037 -0.191421L180.052 0.598861Z" fill="white" mask="url(#path-5-inside-1)"/>
</svg>
