<svg width="391" height="233" viewBox="0 0 391 233" fill="none" xmlns="http://www.w3.org/2000/svg">
<path d="M274.415 223.675H116.248C57.2163 223.675 9 175.454 9 116.417C9 57.3799 57.2163 9.15894 116.248 9.15894H274.415C333.446 9.15894 381.663 57.3799 381.663 116.417C381.663 175.454 333.446 223.675 274.415 223.675Z" fill="black"/>
<path d="M274.415 223.675H116.248C57.2163 223.675 9 175.454 9 116.417C9 57.3799 57.2163 9.15894 116.248 9.15894H274.415C333.446 9.15894 381.663 57.3799 381.663 116.417C381.663 175.454 333.446 223.675 274.415 223.675Z" stroke="white" stroke-width="18" stroke-miterlimit="10"/>
<path d="M95.9693 72.2523C110.279 72.2523 121.88 58.4312 121.88 41.3819C121.88 24.3326 110.279 10.5115 95.9693 10.5115C81.6592 10.5115 70.0586 24.3326 70.0586 41.3819C70.0586 58.4312 81.6592 72.2523 95.9693 72.2523Z" fill="white"/>
<path d="M162.208 72.2522C176.518 72.2522 188.118 58.431 188.118 41.3817C188.118 24.3325 176.518 10.5113 162.208 10.5113C147.897 10.5113 136.297 24.3325 136.297 41.3817C136.297 58.431 147.897 72.2522 162.208 72.2522Z" fill="white"/>
<path d="M228.45 72.2522C242.76 72.2522 254.36 58.431 254.36 41.3817C254.36 24.3325 242.76 10.5113 228.45 10.5113C214.14 10.5113 202.539 24.3325 202.539 41.3817C202.539 58.431 214.14 72.2522 228.45 72.2522Z" fill="white"/>
<path d="M294.465 72.2522C308.775 72.2522 320.376 58.431 320.376 41.3817C320.376 24.3325 308.775 10.5113 294.465 10.5113C280.155 10.5113 268.555 24.3325 268.555 41.3817C268.555 58.431 280.155 72.2522 294.465 72.2522Z" fill="white"/>
<path d="M95.9693 222.546C110.279 222.546 121.88 208.725 121.88 191.676C121.88 174.627 110.279 160.805 95.9693 160.805C81.6592 160.805 70.0586 174.627 70.0586 191.676C70.0586 208.725 81.6592 222.546 95.9693 222.546Z" fill="white"/>
<path d="M162.211 222.546C176.521 222.546 188.122 208.725 188.122 191.676C188.122 174.627 176.521 160.805 162.211 160.805C147.901 160.805 136.301 174.627 136.301 191.676C136.301 208.725 147.901 222.546 162.211 222.546Z" fill="white"/>
<path d="M228.45 222.547C242.76 222.547 254.36 208.726 254.36 191.676C254.36 174.627 242.76 160.806 228.45 160.806C214.14 160.806 202.539 174.627 202.539 191.676C202.539 208.726 214.14 222.547 228.45 222.547Z" fill="white"/>
<path d="M294.469 222.546C308.779 222.546 320.38 208.725 320.38 191.676C320.38 174.627 308.779 160.805 294.469 160.805C280.159 160.805 268.559 174.627 268.559 191.676C268.559 208.725 280.159 222.546 294.469 222.546Z" fill="white"/>
</svg>
