<svg width="353" height="288" viewBox="0 0 353 288" fill="none" xmlns="http://www.w3.org/2000/svg">
<path d="M176.062 287.058C78.8259 287.058 0 208.969 0 112.641H352.125C352.125 208.969 273.299 287.058 176.062 287.058Z" fill="white"/>
<path fill-rule="evenodd" clip-rule="evenodd" d="M0 88.3273C0 39.9597 39.2097 0.75 87.5773 0.75C135.945 0.75 175.155 39.9597 175.155 88.3273H0ZM175.157 88.3273C175.157 39.9597 214.367 0.75 262.735 0.75C311.102 0.75 350.312 39.9597 350.312 88.3273H175.157Z" fill="black"/>
<path d="M173.14 200.214C124.772 200.214 85.5625 161.005 85.5625 112.637H260.717C260.717 161.005 221.507 200.214 173.14 200.214Z" fill="black"/>
<path d="M123.41 145.548C111.597 145.548 102.02 135.234 102.02 122.511H144.801C144.801 135.234 135.224 145.548 123.41 145.548Z" fill="white"/>
</svg>
