<svg width="480" height="261" viewBox="0 0 480 261" fill="none" xmlns="http://www.w3.org/2000/svg">
<path fill-rule="evenodd" clip-rule="evenodd" d="M26.5649 0.124999C17.5756 0.124999 8.77993 0.877862 0.25 2.31797L0.250004 85.8807C7.7952 83.0682 16.5608 81.3976 26.5649 81.3976C68.2429 81.3976 88.4241 110.392 88.4241 130.161C88.4241 149.93 68.2429 178.925 26.5649 178.925C16.5608 178.925 7.79521 177.254 0.250008 174.442L0.250011 258.004C8.77995 259.444 17.5757 260.197 26.5649 260.197C76.5766 260.197 120.598 236.894 146.19 201.588L479.5 201.588L479.5 58.7129L146.175 58.7129C120.58 23.4185 76.5665 0.124995 26.5649 0.124999Z" fill="#FF8947"/>
<rect x="12" y="28.015" width="53.244" height="36.1298" fill="white"/>
<rect x="12" y="199.788" width="53.244" height="36.1298" fill="white"/>
</svg>
