<svg width="225" height="1038" viewBox="0 0 225 1038" fill="none" xmlns="http://www.w3.org/2000/svg">
<rect y="528" width="225" height="26" fill="#8000D4"/>
<rect width="225" height="26" fill="#8000D4"/>
<rect y="572" width="225" height="26" fill="#8000D4"/>
<rect y="44" width="225" height="26" fill="#8000D4"/>
<rect y="616" width="225" height="26" fill="#8000D4"/>
<rect y="88" width="225" height="26" fill="#8000D4"/>
<rect y="660" width="225" height="26" fill="#8000D4"/>
<rect y="132" width="225" height="26" fill="#8000D4"/>
<rect y="704" width="225" height="26" fill="#8000D4"/>
<rect y="176" width="225" height="26" fill="#8000D4"/>
<rect y="748" width="225" height="26" fill="#8000D4"/>
<rect y="220" width="225" height="26" fill="#8000D4"/>
<rect y="792" width="225" height="26" fill="#8000D4"/>
<rect y="264" width="225" height="26" fill="#8000D4"/>
<rect y="836" width="225" height="26" fill="#8000D4"/>
<rect y="308" width="225" height="26" fill="#8000D4"/>
<rect y="880" width="225" height="26" fill="#8000D4"/>
<rect y="352" width="225" height="26" fill="#8000D4"/>
<rect y="924" width="225" height="26" fill="#8000D4"/>
<rect y="396" width="225" height="26" fill="#8000D4"/>
<rect y="968" width="225" height="26" fill="#8000D4"/>
<rect y="440" width="225" height="26" fill="#8000D4"/>
<rect y="1012" width="225" height="26" fill="#8000D4"/>
<rect y="484" width="225" height="26" fill="#8000D4"/>
</svg>
