<svg width="225" height="1460" viewBox="0 0 225 1460" fill="none" xmlns="http://www.w3.org/2000/svg">
<rect y="1388" width="225" height="25" fill="#8000D4"/>
<rect y="1436" width="225" height="24" fill="#8000D4"/>
<rect y="1053" width="225" height="25" fill="#8000D4"/>
<rect y="670" width="225" height="25" fill="#8000D4"/>
<rect y="239" width="225" height="25" fill="#8000D4"/>
<rect y="814" width="225" height="25" fill="#8000D4"/>
<rect y="383" width="225" height="25" fill="#8000D4"/>
<rect y="431" width="225" height="25" fill="#8000D4"/>
<rect width="225" height="25" fill="#8000D4"/>
<rect y="1101" width="225" height="25" fill="#8000D4"/>
<rect y="718" width="225" height="25" fill="#8000D4"/>
<rect y="287" width="225" height="25" fill="#8000D4"/>
<rect y="862" width="225" height="25" fill="#8000D4"/>
<rect y="479" width="225" height="25" fill="#8000D4"/>
<rect y="48" width="225" height="25" fill="#8000D4"/>
<rect y="1149" width="225" height="25" fill="#8000D4"/>
<rect y="766" width="225" height="25" fill="#8000D4"/>
<rect y="335" width="225" height="25" fill="#8000D4"/>
<rect y="910" width="225" height="25" fill="#8000D4"/>
<rect y="527" width="225" height="25" fill="#8000D4"/>
<rect y="96" width="225" height="25" fill="#8000D4"/>
<rect y="1197" width="225" height="25" fill="#8000D4"/>
<rect y="958" width="225" height="25" fill="#8000D4"/>
<rect y="575" width="225" height="25" fill="#8000D4"/>
<rect y="144" width="225" height="25" fill="#8000D4"/>
<rect y="1245" width="225" height="24" fill="#8000D4"/>
<rect y="1006" width="225" height="24" fill="#8000D4"/>
<rect y="623" width="225" height="24" fill="#8000D4"/>
<rect y="192" width="225" height="24" fill="#8000D4"/>
<rect y="1292" width="225" height="25" fill="#8000D4"/>
<rect y="1340" width="225" height="25" fill="#8000D4"/>
</svg>
