<svg width="225" height="1198" viewBox="0 0 225 1198" fill="none" xmlns="http://www.w3.org/2000/svg">
<rect y="1075" width="225" height="25" fill="#8000D4"/>
<rect y="684" width="225" height="25" fill="#8000D4"/>
<rect y="244" width="225" height="25" fill="#8000D4"/>
<rect y="831" width="225" height="25" fill="#8000D4"/>
<rect y="391" width="225" height="25" fill="#8000D4"/>
<rect y="440" width="225" height="25" fill="#8000D4"/>
<rect width="225" height="25" fill="#8000D4"/>
<rect y="1124" width="225" height="25" fill="#8000D4"/>
<rect y="733" width="225" height="25" fill="#8000D4"/>
<rect y="293" width="225" height="25" fill="#8000D4"/>
<rect y="880" width="225" height="25" fill="#8000D4"/>
<rect y="489" width="225" height="25" fill="#8000D4"/>
<rect y="49" width="225" height="25" fill="#8000D4"/>
<rect y="1173" width="225" height="25" fill="#8000D4"/>
<rect y="782" width="225" height="25" fill="#8000D4"/>
<rect y="342" width="225" height="25" fill="#8000D4"/>
<rect y="929" width="225" height="25" fill="#8000D4"/>
<rect y="538" width="225" height="25" fill="#8000D4"/>
<rect y="98" width="225" height="25" fill="#8000D4"/>
<rect y="978" width="225" height="25" fill="#8000D4"/>
<rect y="587" width="225" height="25" fill="#8000D4"/>
<rect y="147" width="225" height="25" fill="#8000D4"/>
<rect y="1027" width="225" height="24" fill="#8000D4"/>
<rect y="636" width="225" height="24" fill="#8000D4"/>
<rect y="196" width="225" height="24" fill="#8000D4"/>
</svg>
