<svg width="92" height="75" viewBox="0 0 92 75" fill="none" xmlns="http://www.w3.org/2000/svg">
<path d="M46 74.8037C20.5949 74.8037 0 54.4013 0 29.2336H92C92 54.4013 71.4051 74.8037 46 74.8037Z" fill="white"/>
<path fill-rule="evenodd" clip-rule="evenodd" d="M45.7649 22.8814C45.7649 10.2444 56.0092 0 68.6463 0C81.2833 0 91.5277 10.2444 91.5277 22.8814H45.7649ZM0 22.8816C0 10.2445 10.2444 0.000173281 22.8814 0.000173281C35.5185 0.000173281 45.7628 10.2445 45.7628 22.8816H0Z" fill="black"/>
<path d="M45.2369 52.1143C32.5998 52.1143 22.3555 41.8699 22.3555 29.2329H68.1183C68.1183 41.8699 57.8739 52.1143 45.2369 52.1143Z" fill="black"/>
<path d="M32.2411 37.8315C29.1545 37.8315 26.6523 35.1369 26.6523 31.8129H37.8299C37.8299 35.1369 35.3277 37.8315 32.2411 37.8315Z" fill="white"/>
</svg>
