<svg width="238" height="163" viewBox="0 0 238 163" fill="none" xmlns="http://www.w3.org/2000/svg">
<path d="M237.16 109.013L60.2734 109.013L60.2734 162.079L237.16 162.079L237.16 109.013Z" fill="#FF8947"/>
<path fill-rule="evenodd" clip-rule="evenodd" d="M88 8.9041C88 5.86243 87.7453 2.88625 87.258 0H58.9831C59.9347 2.55305 60.5 5.51903 60.5 8.90411C60.5 23.0066 50.6891 29.8352 44 29.8352C37.3109 29.8352 27.5 23.0066 27.5 8.90411C27.5 5.51903 28.0653 2.55305 29.0169 0H0.742035C0.254753 2.88625 7.62939e-06 5.86243 7.62939e-06 8.90411C7.62939e-06 25.8265 7.88505 40.7218 19.8317 49.3815V162.159H68.1759V49.376C80.1183 40.7155 88 25.8229 88 8.9041Z" fill="#FF8947"/>
<rect x="78.5625" y="3.97705" width="18.016" height="12.2252" transform="rotate(90 78.5625 3.97705)" fill="white"/>
<rect x="20.4414" y="3.97705" width="18.016" height="12.2252" transform="rotate(90 20.4414 3.97705)" fill="white"/>
</svg>
