<svg width="229" height="148" viewBox="0 0 229 148" fill="none" xmlns="http://www.w3.org/2000/svg">
<path d="M228.16 94.0127L51.2734 94.0127L51.2734 147.079L228.16 147.079L228.16 94.0127Z" fill="#FF8947"/>
<path d="M38.2943 -3.57544e-07L28.5858 -8.9862e-07L28.5858 30.8763L24.2709 30.8763L24.2709 -1.1391e-06L14.563 -1.68014e-06L14.563 30.8763L10.248 30.8763L10.248 0.454218C4.35016 2.0164 1.49656e-06 7.42764 1.13913e-06 13.863L-4.68047e-06 147L53 147L53 13.8631C53 7.37586 48.5795 1.92938 42.6093 0.417253L42.6093 30.8763L38.2943 30.8763L38.2943 -3.57544e-07Z" fill="#FF8947"/>
</svg>
