<svg width="299" height="201" viewBox="0 0 299 201" fill="none" xmlns="http://www.w3.org/2000/svg">
<rect width="63.1541" height="240.216" transform="matrix(-1.19249e-08 1 1 1.19249e-08 0.550781 136.884)" fill="#FF8947"/>
<rect width="63.3066" height="174.093" transform="matrix(1 0 0 -1 178.148 200.217)" fill="#FF8947"/>
<rect width="120.85" height="70.9123" transform="matrix(-1 -5.56363e-08 -5.56363e-08 1 299 0.987305)" fill="#FF8947"/>
<rect width="16.3733" height="10.9155" transform="matrix(-1 -5.56363e-08 -5.56363e-08 1 292.375 48.8652)" fill="white"/>
<rect width="16.3733" height="10.9155" transform="matrix(-1 -5.56363e-08 -5.56363e-08 1 292.375 30.9365)" fill="white"/>
<rect width="16.3733" height="10.9155" transform="matrix(-1 -5.56363e-08 -5.56363e-08 1 292.375 13)" fill="white"/>
</svg>
