<svg width="253" height="191" viewBox="0 0 253 191" fill="none" xmlns="http://www.w3.org/2000/svg">
<path d="M144 63.831H252.782L252.782 0.000151648H144V63.831Z" fill="#FF8947"/>
<circle r="28.8483" transform="matrix(4.37114e-08 1 1 -4.37114e-08 173.09 161.978)" fill="#FF8947"/>
<circle r="28.8483" transform="matrix(4.37114e-08 1 1 -4.37114e-08 173.09 110.848)" fill="#FF8947"/>
<circle r="28.8483" transform="matrix(4.37114e-08 1 1 -4.37114e-08 172.848 60.8483)" fill="#FF8947"/>
<circle r="28.8483" transform="matrix(4.37114e-08 1 1 -4.37114e-08 125.008 161.978)" fill="#FF8947"/>
<circle r="28.8483" transform="matrix(4.37114e-08 1 1 -4.37114e-08 76.9303 161.978)" fill="#FF8947"/>
<circle r="28.8483" transform="matrix(4.37114e-08 1 1 -4.37114e-08 28.8483 161.978)" fill="#FF8947"/>
</svg>
