<svg width="92" height="56" viewBox="0 0 92 56" fill="none" xmlns="http://www.w3.org/2000/svg">
<path d="M64.2503 52.5042L27.7497 52.5042C14.127 52.5042 3 41.3761 3 27.7521C3 14.128 14.127 3 27.7497 3L64.2503 3C77.873 3 89 14.128 89 27.7521C89 41.3761 77.873 52.5042 64.2503 52.5042Z" fill="black"/>
<path d="M64.2503 52.5042L27.7497 52.5042C14.127 52.5042 3 41.3761 3 27.7521C3 14.128 14.127 3 27.7497 3L64.2503 3C77.873 3 89 14.128 89 27.7521C89 41.3761 77.873 52.5042 64.2503 52.5042Z" stroke="white" stroke-width="5" stroke-miterlimit="10"/>
<path d="M23.0693 17.5591C26.3716 17.5591 29.0487 14.3695 29.0487 10.4351C29.0487 6.50057 26.3716 3.31104 23.0693 3.31104C19.7669 3.31104 17.0898 6.50057 17.0898 10.4351C17.0898 14.3695 19.7669 17.5591 23.0693 17.5591Z" fill="white"/>
<path d="M38.3583 17.5596C41.6607 17.5596 44.3378 14.37 44.3378 10.4355C44.3378 6.50105 41.6607 3.31152 38.3584 3.31152C35.056 3.31152 32.3789 6.50105 32.3789 10.4355C32.3789 14.37 35.056 17.5596 38.3583 17.5596Z" fill="white"/>
<path d="M53.6435 17.5596C56.9459 17.5596 59.623 14.37 59.623 10.4355C59.623 6.50105 56.9459 3.31152 53.6435 3.31152C50.3412 3.31152 47.6641 6.50105 47.6641 10.4355C47.6641 14.37 50.3412 17.5596 53.6435 17.5596Z" fill="white"/>
<path d="M68.874 17.5596C72.1763 17.5596 74.8534 14.37 74.8534 10.4355C74.8534 6.50105 72.1763 3.31152 68.874 3.31152C65.5716 3.31152 62.8945 6.50105 62.8945 10.4355C62.8945 14.37 65.5716 17.5596 68.874 17.5596Z" fill="white"/>
<path d="M23.0693 52.2412C26.3716 52.2412 29.0487 49.0517 29.0487 45.1172C29.0487 41.1827 26.3716 37.9932 23.0693 37.9932C19.7669 37.9932 17.0898 41.1827 17.0898 45.1172C17.0898 49.0517 19.7669 52.2412 23.0693 52.2412Z" fill="white"/>
<path d="M38.3583 52.2407C41.6607 52.2407 44.3378 49.0512 44.3378 45.1167C44.3378 41.1822 41.6607 37.9927 38.3584 37.9927C35.056 37.9927 32.3789 41.1822 32.3789 45.1167C32.3789 49.0512 35.056 52.2407 38.3583 52.2407Z" fill="white"/>
<path d="M53.6435 52.2407C56.9459 52.2407 59.623 49.0512 59.623 45.1167C59.623 41.1822 56.9459 37.9927 53.6435 37.9927C50.3412 37.9927 47.6641 41.1822 47.6641 45.1167C47.6641 49.0512 50.3412 52.2407 53.6435 52.2407Z" fill="white"/>
<path d="M68.874 52.2407C72.1763 52.2407 74.8534 49.0512 74.8534 45.1167C74.8534 41.1822 72.1763 37.9927 68.874 37.9927C65.5716 37.9927 62.8945 41.1822 62.8945 45.1167C62.8945 49.0512 65.5716 52.2407 68.874 52.2407Z" fill="white"/>
</svg>
